<svg xmlns="http://www.w3.org/2000/svg" xmlns:xlink="http://www.w3.org/1999/xlink" width="1080" zoomAndPan="magnify" viewBox="0 0 810 809.999993" height="1080" preserveAspectRatio="xMidYMid meet" version="1.0"><defs><g/></defs><rect x="-81" width="972" fill="#ffffff" y="-80.999999" height="971.999992" fill-opacity="1"/><rect x="-81" width="972" fill="#ffffff" y="-80.999999" height="971.999992" fill-opacity="1"/><g fill="#37d399" fill-opacity="1"><g transform="translate(-25.442513, 541.520064)"><g><path d="M 47.953125 -370.28125 C 47.953125 -406.1875 60.488281 -436.921875 85.5625 -462.484375 C 110.644531 -488.054688 141.378906 -500.84375 177.765625 -500.84375 C 227.921875 -500.84375 262.835938 -479.945312 282.515625 -438.15625 C 339.066406 -458.800781 379.878906 -480.925781 404.953125 -504.53125 L 468.390625 -467.65625 C 488.554688 -451.914062 498.640625 -430.769531 498.640625 -404.21875 C 498.640625 -370.78125 474.296875 -337.34375 425.609375 -303.90625 C 491.015625 -279.8125 523.71875 -238.257812 523.71875 -179.25 C 523.71875 -128.101562 501.707031 -84.582031 457.6875 -48.6875 C 413.675781 -12.789062 363.398438 5.15625 306.859375 5.15625 C 283.253906 5.15625 260.265625 0.238281 237.890625 -9.59375 C 215.515625 -19.425781 197.5625 -30.117188 184.03125 -41.671875 C 170.507812 -53.234375 156.492188 -63.929688 141.984375 -73.765625 C 127.484375 -83.597656 115.070312 -88.515625 104.75 -88.515625 C 85.070312 -88.515625 67.613281 -74.5 52.375 -46.46875 L 42.046875 -53.109375 C 73.023438 -102.773438 109.90625 -127.609375 152.6875 -127.609375 C 162.519531 -127.609375 170.632812 -126.625 177.03125 -124.65625 C 197.6875 -144.820312 211.820312 -166.457031 219.4375 -189.5625 C 227.0625 -212.675781 230.875 -243.410156 230.875 -281.765625 L 230.875 -324.5625 C 230.875 -427.332031 204.320312 -478.71875 151.21875 -478.71875 C 134.988281 -478.71875 119.003906 -472.816406 103.265625 -461.015625 C 87.523438 -449.210938 79.65625 -435.9375 79.65625 -421.1875 C 79.65625 -409.382812 83.835938 -397.457031 92.203125 -385.40625 C 100.566406 -373.363281 109.664062 -363.035156 119.5 -354.421875 C 129.332031 -345.816406 138.425781 -335.367188 146.78125 -323.078125 C 155.144531 -310.785156 159.328125 -298.242188 159.328125 -285.453125 C 159.328125 -240.210938 135.96875 -209.726562 89.25 -194 L 86.296875 -205.796875 C 113.347656 -215.140625 126.875 -228.171875 126.875 -244.890625 C 126.875 -253.742188 122.816406 -262.84375 114.703125 -272.1875 C 106.585938 -281.53125 97.488281 -289.890625 87.40625 -297.265625 C 77.320312 -304.640625 68.222656 -314.84375 60.109375 -327.875 C 52.003906 -340.90625 47.953125 -355.039062 47.953125 -370.28125 Z M 298 -274.390625 C 339.800781 -279.304688 374.59375 -289.878906 402.375 -306.109375 C 430.15625 -322.335938 444.046875 -343.976562 444.046875 -371.03125 C 444.046875 -392.664062 436.914062 -411.59375 422.65625 -427.8125 C 408.394531 -444.039062 390.691406 -452.15625 369.546875 -452.15625 C 347.421875 -452.15625 320.375 -442.566406 288.40625 -423.390625 C 295.289062 -400.773438 298.734375 -366.351562 298.734375 -320.125 C 298.734375 -300.457031 298.488281 -285.210938 298 -274.390625 Z M 357.75 -21.390625 C 389.21875 -21.390625 415.894531 -32.082031 437.78125 -53.46875 C 459.664062 -74.863281 470.609375 -101.050781 470.609375 -132.03125 C 470.609375 -168.425781 456.710938 -199.40625 428.921875 -224.96875 C 401.140625 -250.539062 367.085938 -263.328125 326.765625 -263.328125 C 314.472656 -263.328125 304.640625 -262.34375 297.265625 -260.375 C 293.816406 -227.925781 281.273438 -200.632812 259.640625 -178.5 L 190.3125 -118.75 L 269.234375 -57.53125 C 302.671875 -33.4375 332.175781 -21.390625 357.75 -21.390625 Z M 357.75 -21.390625 "/></g></g></g><g fill="#37d399" fill-opacity="1"><g transform="translate(536.628258, 541.520064)"><g><path d="M 109.171875 -155.640625 C 111.140625 -126.628906 121.097656 -101.300781 139.046875 -79.65625 C 156.992188 -58.019531 178.503906 -47.203125 203.578125 -47.203125 C 220.796875 -47.203125 244.398438 -55.5625 274.390625 -72.28125 L 274.390625 -56.796875 C 226.691406 -34.171875 192.269531 -14.007812 171.125 3.6875 C 126.375 -20.40625 95.757812 -44.988281 79.28125 -70.0625 C 62.8125 -95.144531 54.578125 -133.503906 54.578125 -185.140625 C 54.578125 -211.691406 56.296875 -233.203125 59.734375 -249.671875 C 63.179688 -266.148438 71.664062 -280.535156 85.1875 -292.828125 C 98.71875 -305.128906 110.03125 -313.613281 119.125 -318.28125 C 128.21875 -322.957031 146.78125 -331.195312 174.8125 -343 C 184.15625 -347.425781 191.535156 -350.617188 196.953125 -352.578125 L 266.28125 -225.71875 Z M 158.59375 -322.34375 C 137.9375 -314.476562 124.039062 -305.007812 116.90625 -293.9375 C 109.78125 -282.875 106.21875 -265.050781 106.21875 -240.46875 C 106.21875 -216.863281 106.957031 -193.503906 108.4375 -170.390625 L 215.390625 -218.34375 Z M 158.59375 -322.34375 "/></g></g></g><g fill="#2e765b" fill-opacity="1"><g transform="translate(188.193458, 750.04)"><g><path d="M 90.359375 1.890625 C 81.546875 1.890625 72.65625 0.238281 63.6875 -3.0625 C 54.726562 -6.363281 46.515625 -11.195312 39.046875 -17.5625 C 31.578125 -23.9375 25.597656 -31.722656 21.109375 -40.921875 C 16.628906 -50.128906 14.390625 -60.628906 14.390625 -72.421875 C 14.390625 -85.160156 15.453125 -95.773438 17.578125 -104.265625 C 19.703125 -112.765625 22.726562 -121.101562 26.65625 -129.28125 C 30.90625 -132.101562 35.425781 -134.96875 40.21875 -137.875 C 45.019531 -140.789062 49.738281 -143.46875 54.375 -145.90625 C 59.007812 -148.34375 63.0625 -150.347656 66.53125 -151.921875 L 72.421875 -147.4375 C 75.097656 -149.320312 78.796875 -151.441406 83.515625 -153.796875 C 88.234375 -156.160156 93.265625 -158.5625 98.609375 -161 C 103.953125 -163.4375 108.828125 -165.5625 113.234375 -167.375 C 117.640625 -169.1875 120.863281 -170.40625 122.90625 -171.03125 C 123.21875 -169.925781 123.925781 -167.878906 125.03125 -164.890625 C 126.132812 -161.910156 127.429688 -158.769531 128.921875 -155.46875 C 130.410156 -152.164062 132.0625 -149.289062 133.875 -146.84375 C 135.6875 -144.40625 137.457031 -143.1875 139.1875 -143.1875 C 141.382812 -143.1875 144.210938 -144.054688 147.671875 -145.796875 L 149.5625 -140.59375 C 147.050781 -139.34375 143.984375 -137.96875 140.359375 -136.46875 C 136.742188 -134.976562 133.285156 -133.757812 129.984375 -132.8125 C 126.679688 -131.875 124.242188 -131.40625 122.671875 -131.40625 C 121.253906 -131.40625 119.25 -132.78125 116.65625 -135.53125 C 114.0625 -138.28125 111.503906 -141.539062 108.984375 -145.3125 C 106.472656 -149.09375 104.664062 -152.394531 103.5625 -155.21875 C 102.457031 -155.0625 100.921875 -154.507812 98.953125 -153.5625 C 96.992188 -152.625 95.1875 -151.09375 93.53125 -148.96875 C 91.882812 -146.851562 91.0625 -143.90625 91.0625 -140.125 C 91.0625 -135.71875 91.609375 -131.15625 92.703125 -126.4375 C 93.804688 -121.726562 94.945312 -116.9375 96.125 -112.0625 C 97.3125 -107.1875 97.90625 -102.304688 97.90625 -97.421875 C 97.90625 -90.660156 95.738281 -84.800781 91.40625 -79.84375 C 87.082031 -74.894531 81.539062 -70.925781 74.78125 -67.9375 C 68.019531 -64.945312 60.941406 -63.0625 53.546875 -62.28125 L 52.609375 -67.9375 C 53.234375 -67.9375 54.6875 -68.328125 56.96875 -69.109375 C 59.25 -69.898438 61.765625 -71.117188 64.515625 -72.765625 C 67.273438 -74.421875 69.632812 -76.742188 71.59375 -79.734375 C 73.5625 -82.722656 74.546875 -86.5 74.546875 -91.0625 C 74.546875 -97.664062 73.835938 -103.5625 72.421875 -108.75 C 71.003906 -113.9375 69.628906 -118.492188 68.296875 -122.421875 C 66.960938 -126.359375 66.296875 -130.054688 66.296875 -133.515625 C 66.296875 -137.296875 67.238281 -140.285156 69.125 -142.484375 C 66.914062 -142.484375 63.960938 -141.929688 60.265625 -140.828125 C 56.578125 -139.734375 52.84375 -137.375 49.0625 -133.75 C 45.289062 -130.132812 42.109375 -124.707031 39.515625 -117.46875 C 36.921875 -110.238281 35.625 -100.492188 35.625 -88.234375 C 35.625 -72.816406 38.882812 -59.679688 45.40625 -48.828125 C 51.9375 -37.984375 61.097656 -29.726562 72.890625 -24.0625 C 84.691406 -18.394531 98.375 -15.5625 113.9375 -15.5625 C 114.570312 -15.5625 116.65625 -16.347656 120.1875 -17.921875 C 123.726562 -19.492188 127.816406 -21.457031 132.453125 -23.8125 C 137.097656 -26.175781 141.382812 -28.382812 145.3125 -30.4375 L 147.203125 -25.484375 L 108.984375 0.234375 C 106.160156 0.859375 103.09375 1.289062 99.78125 1.53125 C 96.476562 1.769531 93.335938 1.890625 90.359375 1.890625 Z M 90.359375 1.890625 "/></g></g></g><g fill="#2e765b" fill-opacity="1"><g transform="translate(346.724156, 750.04)"><g><path d="M 71.484375 -112.53125 C 82.171875 -106.238281 89.640625 -98.332031 93.890625 -88.8125 C 98.140625 -79.300781 100.265625 -66.289062 100.265625 -49.78125 C 100.265625 -42.695312 99.4375 -36.832031 97.78125 -32.1875 C 96.132812 -27.550781 93.816406 -23.972656 90.828125 -21.453125 C 87.835938 -18.941406 84.726562 -16.859375 81.5 -15.203125 C 78.28125 -13.554688 74.742188 -11.359375 70.890625 -8.609375 C 67.035156 -5.859375 63.847656 -2.675781 61.328125 0.9375 C 44.660156 -9.28125 29.40625 -15.097656 15.5625 -16.515625 L 15.5625 -19.109375 C 21.695312 -19.578125 24.765625 -22.644531 24.765625 -28.3125 L 24.765625 -96.953125 C 39.078125 -96.953125 54.648438 -102.144531 71.484375 -112.53125 Z M 71.015625 -12.734375 C 76.359375 -15.722656 79.738281 -19.144531 81.15625 -23 C 82.570312 -26.851562 83.28125 -33.023438 83.28125 -41.515625 C 83.28125 -49.847656 82.960938 -57.039062 82.328125 -63.09375 C 81.703125 -69.15625 80.5625 -75.054688 78.90625 -80.796875 C 77.257812 -86.535156 74.625 -90.898438 71 -93.890625 C 67.382812 -96.878906 62.90625 -98.375 57.5625 -98.375 C 51.425781 -98.375 45.84375 -96.566406 40.8125 -92.953125 L 40.8125 -27.59375 C 46.945312 -22.40625 57.015625 -17.453125 71.015625 -12.734375 Z M 71.015625 -12.734375 "/></g></g></g><g fill="#2e765b" fill-opacity="1"><g transform="translate(454.062643, 750.04)"><g><path d="M 71.484375 -112.53125 C 82.171875 -106.238281 89.640625 -98.332031 93.890625 -88.8125 C 98.140625 -79.300781 100.265625 -66.289062 100.265625 -49.78125 C 100.265625 -42.695312 99.4375 -36.832031 97.78125 -32.1875 C 96.132812 -27.550781 93.816406 -23.972656 90.828125 -21.453125 C 87.835938 -18.941406 84.726562 -16.859375 81.5 -15.203125 C 78.28125 -13.554688 74.742188 -11.359375 70.890625 -8.609375 C 67.035156 -5.859375 63.847656 -2.675781 61.328125 0.9375 C 44.660156 -9.28125 29.40625 -15.097656 15.5625 -16.515625 L 15.5625 -19.109375 C 21.695312 -19.578125 24.765625 -22.644531 24.765625 -28.3125 L 24.765625 -96.953125 C 39.078125 -96.953125 54.648438 -102.144531 71.484375 -112.53125 Z M 71.015625 -12.734375 C 76.359375 -15.722656 79.738281 -19.144531 81.15625 -23 C 82.570312 -26.851562 83.28125 -33.023438 83.28125 -41.515625 C 83.28125 -49.847656 82.960938 -57.039062 82.328125 -63.09375 C 81.703125 -69.15625 80.5625 -75.054688 78.90625 -80.796875 C 77.257812 -86.535156 74.625 -90.898438 71 -93.890625 C 67.382812 -96.878906 62.90625 -98.375 57.5625 -98.375 C 51.425781 -98.375 45.84375 -96.566406 40.8125 -92.953125 L 40.8125 -27.59375 C 46.945312 -22.40625 57.015625 -17.453125 71.015625 -12.734375 Z M 71.015625 -12.734375 "/></g></g></g><g fill="#2e765b" fill-opacity="1"><g transform="translate(561.401112, 750.04)"><g><path d="M 40.578125 -28.546875 C 40.578125 -25.554688 41.554688 -22.367188 43.515625 -18.984375 C 45.484375 -15.609375 47.648438 -13.921875 50.015625 -13.921875 C 52.210938 -13.921875 55.039062 -15.570312 58.5 -18.875 L 59.453125 -14.390625 C 48.597656 -6.992188 41.832031 -1.804688 39.15625 1.171875 C 32.082031 -7.472656 23.90625 -11.953125 14.625 -12.265625 L 14.625 -14.390625 C 21.070312 -15.171875 24.296875 -21.226562 24.296875 -32.5625 L 24.296875 -114.171875 C 24.296875 -129.898438 19.34375 -139.734375 9.4375 -143.671875 L 11.09375 -147.203125 C 16.4375 -145.628906 20.835938 -144.84375 24.296875 -144.84375 C 28.859375 -144.84375 34.796875 -146.648438 42.109375 -150.265625 C 49.421875 -153.890625 54.726562 -155.78125 58.03125 -155.9375 L 58.265625 -151.6875 C 46.472656 -150.582031 40.578125 -138.316406 40.578125 -114.890625 Z M 40.578125 -28.546875 "/></g></g></g></svg>