<svg xmlns="http://www.w3.org/2000/svg" xmlns:xlink="http://www.w3.org/1999/xlink" width="320" zoomAndPan="magnify" viewBox="0 0 240 74.999997" height="100" preserveAspectRatio="xMidYMid meet" version="1.0"><defs><clipPath id="940f64456b"><path d="M 0 2.167969 L 240 2.167969 L 240 72.667969 L 0 72.667969 Z M 0 2.167969 " clip-rule="nonzero"/></clipPath></defs><g clip-path="url(#940f64456b)"><path fill="#100f0d" d="M 230.410156 72.667969 L 9.589844 72.667969 C 4.734375 72.667969 0.757812 68.699219 0.757812 63.855469 L 0.757812 10.980469 C 0.757812 6.132812 4.734375 2.167969 9.589844 2.167969 L 230.410156 2.167969 C 235.265625 2.167969 239.242188 6.132812 239.242188 10.980469 L 239.242188 63.855469 C 239.242188 68.699219 235.265625 72.667969 230.410156 72.667969 " fill-opacity="1" fill-rule="nonzero"/><path fill="#a2a2a1" d="M 230.410156 2.167969 L 9.589844 2.167969 C 4.734375 2.167969 0.757812 6.132812 0.757812 10.980469 L 0.757812 63.855469 C 0.757812 68.699219 4.734375 72.667969 9.589844 72.667969 L 230.410156 72.667969 C 235.265625 72.667969 239.242188 68.699219 239.242188 63.855469 L 239.242188 10.980469 C 239.242188 6.132812 235.265625 2.167969 230.410156 2.167969 Z M 230.410156 3.578125 C 234.5 3.578125 237.828125 6.898438 237.828125 10.980469 L 237.828125 63.855469 C 237.828125 67.9375 234.5 71.257812 230.410156 71.257812 L 9.589844 71.257812 C 5.5 71.257812 2.171875 67.9375 2.171875 63.855469 L 2.171875 10.980469 C 2.171875 6.898438 5.5 3.578125 9.589844 3.578125 L 230.410156 3.578125 " fill-opacity="1" fill-rule="nonzero"/></g><path fill="#ffffff" d="M 189.667969 55.042969 L 192.960938 55.042969 L 192.960938 33.007812 L 189.667969 33.007812 Z M 219.355469 40.945312 L 215.578125 50.496094 L 215.464844 50.496094 L 211.542969 40.945312 L 207.992188 40.945312 L 213.875 54.296875 L 210.519531 61.722656 L 213.957031 61.722656 L 223.023438 40.945312 Z M 200.664062 52.539062 C 199.585938 52.539062 198.078125 52 198.078125 50.667969 C 198.078125 48.96875 199.953125 48.316406 201.570312 48.316406 C 203.019531 48.316406 203.703125 48.625 204.585938 49.050781 C 204.328125 51.09375 202.566406 52.539062 200.664062 52.539062 Z M 201.0625 40.464844 C 198.675781 40.464844 196.203125 41.511719 195.179688 43.835938 L 198.105469 45.054688 C 198.730469 43.835938 199.894531 43.441406 201.117188 43.441406 C 202.824219 43.441406 204.554688 44.460938 204.585938 46.273438 L 204.585938 46.5 C 203.988281 46.160156 202.707031 45.652344 201.144531 45.652344 C 197.992188 45.652344 194.78125 47.378906 194.78125 50.613281 C 194.78125 53.558594 197.367188 55.457031 200.265625 55.457031 C 202.480469 55.457031 203.703125 54.464844 204.46875 53.304688 L 204.585938 53.304688 L 204.585938 55.007812 L 207.765625 55.007812 L 207.765625 46.558594 C 207.765625 42.644531 204.839844 40.464844 201.0625 40.464844 Z M 180.6875 43.628906 L 176 43.628906 L 176 36.074219 L 180.6875 36.074219 C 183.152344 36.074219 184.550781 38.109375 184.550781 39.851562 C 184.550781 41.558594 183.152344 43.628906 180.6875 43.628906 Z M 180.605469 33.007812 L 172.707031 33.007812 L 172.707031 55.042969 L 176 55.042969 L 176 46.695312 L 180.605469 46.695312 C 184.257812 46.695312 187.847656 44.058594 187.847656 39.851562 C 187.847656 35.648438 184.257812 33.007812 180.605469 33.007812 Z M 137.535156 52.542969 C 135.257812 52.542969 133.351562 50.640625 133.351562 48.027344 C 133.351562 45.386719 135.257812 43.457031 137.535156 43.457031 C 139.78125 43.457031 141.546875 45.386719 141.546875 48.027344 C 141.546875 50.640625 139.78125 52.542969 137.535156 52.542969 Z M 141.320312 42.179688 L 141.203125 42.179688 C 140.464844 41.300781 139.042969 40.503906 137.25 40.503906 C 133.492188 40.503906 130.046875 43.796875 130.046875 48.027344 C 130.046875 52.230469 133.492188 55.496094 137.25 55.496094 C 139.042969 55.496094 140.464844 54.699219 141.203125 53.792969 L 141.320312 53.792969 L 141.320312 54.871094 C 141.320312 57.738281 139.78125 59.273438 137.304688 59.273438 C 135.285156 59.273438 134.035156 57.824219 133.519531 56.601562 L 130.648438 57.796875 C 131.472656 59.78125 133.664062 62.226562 137.304688 62.226562 C 141.175781 62.226562 144.449219 59.953125 144.449219 54.414062 L 144.449219 40.957031 L 141.320312 40.957031 Z M 146.726562 55.042969 L 150.027344 55.042969 L 150.027344 33.007812 L 146.726562 33.007812 Z M 154.894531 47.773438 C 154.808594 44.875 157.144531 43.398438 158.824219 43.398438 C 160.132812 43.398438 161.242188 44.054688 161.613281 44.988281 Z M 165.140625 45.273438 C 164.515625 43.597656 162.605469 40.503906 158.707031 40.503906 C 154.835938 40.503906 151.621094 43.542969 151.621094 48 C 151.621094 52.203125 154.808594 55.496094 159.078125 55.496094 C 162.519531 55.496094 164.515625 53.394531 165.339844 52.175781 L 162.777344 50.46875 C 161.925781 51.71875 160.757812 52.542969 159.078125 52.542969 C 157.398438 52.542969 156.203125 51.777344 155.4375 50.269531 L 165.480469 46.125 Z M 85.101562 42.804688 L 85.101562 45.984375 L 92.726562 45.984375 C 92.5 47.773438 91.902344 49.078125 90.992188 49.988281 C 89.882812 51.09375 88.144531 52.316406 85.101562 52.316406 C 80.402344 52.316406 76.734375 48.539062 76.734375 43.855469 C 76.734375 39.167969 80.402344 35.394531 85.101562 35.394531 C 87.632812 35.394531 89.484375 36.386719 90.847656 37.664062 L 93.097656 35.421875 C 91.191406 33.605469 88.65625 32.210938 85.101562 32.210938 C 78.667969 32.210938 73.261719 37.4375 73.261719 43.855469 C 73.261719 50.269531 78.667969 55.496094 85.101562 55.496094 C 88.570312 55.496094 91.191406 54.359375 93.238281 52.230469 C 95.34375 50.128906 96 47.175781 96 44.789062 C 96 44.054688 95.941406 43.371094 95.828125 42.804688 Z M 104.671875 52.542969 C 102.394531 52.542969 100.429688 50.667969 100.429688 48 C 100.429688 45.300781 102.394531 43.457031 104.671875 43.457031 C 106.949219 43.457031 108.914062 45.300781 108.914062 48 C 108.914062 50.667969 106.949219 52.542969 104.671875 52.542969 Z M 104.671875 40.503906 C 100.515625 40.503906 97.128906 43.65625 97.128906 48 C 97.128906 52.316406 100.515625 55.496094 104.671875 55.496094 C 108.828125 55.496094 112.214844 52.316406 112.214844 48 C 112.214844 43.65625 108.828125 40.503906 104.671875 40.503906 Z M 121.125 52.542969 C 118.847656 52.542969 116.882812 50.667969 116.882812 48 C 116.882812 45.300781 118.847656 43.457031 121.125 43.457031 C 123.402344 43.457031 125.363281 45.300781 125.363281 48 C 125.363281 50.667969 123.402344 52.542969 121.125 52.542969 Z M 121.125 40.503906 C 116.96875 40.503906 113.582031 43.65625 113.582031 48 C 113.582031 52.316406 116.96875 55.496094 121.125 55.496094 C 125.28125 55.496094 128.667969 52.316406 128.667969 48 C 128.667969 43.65625 125.28125 40.503906 121.125 40.503906 " fill-opacity="1" fill-rule="nonzero"/><path fill="#eb3131" d="M 37.351562 36.402344 L 18.546875 56.316406 C 18.546875 56.320312 18.546875 56.324219 18.546875 56.328125 C 19.125 58.492188 21.105469 60.085938 23.453125 60.085938 C 24.394531 60.085938 25.277344 59.832031 26.03125 59.386719 L 26.09375 59.351562 L 47.261719 47.164062 L 37.351562 36.402344 " fill-opacity="1" fill-rule="nonzero"/><path fill="#f6b60b" d="M 56.378906 33.011719 L 56.363281 33 L 47.222656 27.714844 L 36.925781 36.855469 L 47.257812 47.164062 L 56.347656 41.929688 C 57.941406 41.070312 59.023438 39.394531 59.023438 37.460938 C 59.023438 35.542969 57.957031 33.871094 56.378906 33.011719 " fill-opacity="1" fill-rule="nonzero"/><path fill="#5778c5" d="M 18.542969 18.519531 C 18.429688 18.933594 18.371094 19.371094 18.371094 19.824219 L 18.371094 55.015625 C 18.371094 55.464844 18.429688 55.902344 18.542969 56.316406 L 38 36.910156 L 18.542969 18.519531 " fill-opacity="1" fill-rule="nonzero"/><path fill="#3bad49" d="M 37.492188 37.417969 L 47.226562 27.710938 L 26.078125 15.476562 C 25.3125 15.019531 24.414062 14.753906 23.453125 14.753906 C 21.105469 14.753906 19.121094 16.347656 18.542969 18.511719 C 18.542969 18.515625 18.542969 18.515625 18.542969 18.519531 L 37.492188 37.417969 " fill-opacity="1" fill-rule="nonzero"/><path stroke-linecap="butt" transform="matrix(1.324959, 0, 0, 1.321883, 0.753654, 2.166664)" fill-opacity="1" fill="#ffffff" fill-rule="nonzero" stroke-linejoin="miter" d="M 63.191984 13.041687 L 59.303303 13.041687 L 59.303303 14.005038 L 62.219077 14.005038 C 62.139475 14.791085 61.826966 15.405739 61.299237 15.854909 C 60.771509 16.301123 60.099318 16.528663 59.303303 16.528663 C 58.430635 16.528663 57.690636 16.224292 57.086254 15.618503 C 56.490717 15.00385 56.190001 14.241443 56.190001 13.322418 C 56.190001 12.403393 56.490717 11.640987 57.086254 11.023378 C 57.690636 10.420545 58.430635 10.116173 59.303303 10.116173 C 59.75143 10.116173 60.17892 10.193005 60.571031 10.364399 C 60.963142 10.532837 61.275652 10.766287 61.523301 11.070659 L 62.260352 10.328938 C 61.927205 9.947735 61.502663 9.658138 60.974935 9.445374 C 60.447206 9.232609 59.895892 9.129182 59.303303 9.129182 C 58.138763 9.129182 57.151115 9.534025 56.346255 10.340758 C 55.538448 11.147491 55.134544 12.143348 55.134544 13.322418 C 55.134544 14.498534 55.538448 15.497346 56.346255 16.304078 C 57.151115 17.107856 58.138763 17.5127 59.303303 17.5127 C 60.526808 17.5127 61.502663 17.122631 62.251507 16.324764 C 62.911905 15.662829 63.248 14.767445 63.248 13.647475 C 63.248 13.455396 63.227362 13.254452 63.191984 13.041687 Z M 64.698516 9.309441 L 64.698516 17.332441 L 69.386159 17.332441 L 69.386159 16.348404 L 65.730387 16.348404 L 65.730387 13.801139 L 69.026479 13.801139 L 69.026479 12.840743 L 65.730387 12.840743 L 65.730387 10.296432 L 69.386159 10.296432 L 69.386159 9.309441 Z M 75.954757 10.296432 L 75.954757 9.309441 L 70.441616 9.309441 L 70.441616 10.296432 L 72.682251 10.296432 L 72.682251 17.332441 L 73.714122 17.332441 L 73.714122 10.296432 Z M 80.946065 9.309441 L 79.917142 9.309441 L 79.917142 17.332441 L 80.946065 17.332441 Z M 87.753467 10.296432 L 87.753467 9.309441 L 82.240327 9.309441 L 82.240327 10.296432 L 84.480961 10.296432 L 84.480961 17.332441 L 85.512833 17.332441 L 85.512833 10.296432 Z M 98.160626 10.352578 C 97.364611 9.534025 96.388755 9.129182 95.224215 9.129182 C 94.056726 9.129182 93.083819 9.534025 92.287804 10.340758 C 91.491789 11.13567 91.099678 12.134482 91.099678 13.322418 C 91.099678 14.507399 91.491789 15.506211 92.287804 16.301123 C 93.083819 17.107856 94.056726 17.5127 95.224215 17.5127 C 96.379911 17.5127 97.364611 17.107856 98.160626 16.301123 C 98.956641 15.506211 99.348752 14.507399 99.348752 13.322418 C 99.348752 12.143348 98.956641 11.147491 98.160626 10.352578 Z M 93.027803 11.023378 C 93.620392 10.420545 94.348598 10.116173 95.224215 10.116173 C 96.096883 10.116173 96.828038 10.420545 97.408834 11.023378 C 98.004371 11.617346 98.296243 12.391573 98.296243 13.322418 C 98.296243 14.253264 98.004371 15.024535 97.408834 15.618503 C 96.828038 16.224292 96.096883 16.528663 95.224215 16.528663 C 94.348598 16.528663 93.620392 16.224292 93.027803 15.618503 C 92.444059 15.012715 92.155135 14.253264 92.155135 13.322418 C 92.155135 12.391573 92.444059 11.629166 93.027803 11.023378 Z M 101.798709 12.335427 L 101.754486 10.786973 L 101.798709 10.786973 L 105.876074 17.332441 L 106.952168 17.332441 L 106.952168 9.309441 L 105.923245 9.309441 L 105.923245 14.005038 L 105.96452 15.553492 L 105.923245 15.553492 L 102.022772 9.309441 L 100.766838 9.309441 L 100.766838 17.332441 L 101.798709 17.332441 Z M 101.798709 12.335427 " stroke="#ffffff" stroke-width="0.267" stroke-opacity="1" stroke-miterlimit="10"/></svg>