<svg xmlns="http://www.w3.org/2000/svg" xmlns:xlink="http://www.w3.org/1999/xlink" width="320" zoomAndPan="magnify" viewBox="0 0 240 74.999997" height="100" preserveAspectRatio="xMidYMid meet" version="1.0"><defs><clipPath id="8b7c904323"><path d="M 0 1.945312 L 240 1.945312 L 240 73.195312 L 0 73.195312 Z M 0 1.945312 " clip-rule="nonzero"/></clipPath></defs><g clip-path="url(#8b7c904323)"><path fill="#a6a6a6" d="M 231.457031 73.195312 L 8.410156 73.195312 C 3.773438 73.195312 0.00390625 69.402344 0.00390625 64.765625 L 0.00390625 10.363281 C 0.00390625 5.71875 3.773438 1.945312 8.410156 1.945312 L 231.457031 1.945312 C 236.089844 1.945312 239.996094 5.71875 239.996094 10.363281 L 239.996094 64.765625 C 239.996094 69.402344 236.089844 73.195312 231.457031 73.195312 Z M 231.457031 73.195312 " fill-opacity="1" fill-rule="nonzero"/></g><path fill="#000000" d="M 238.277344 64.765625 C 238.277344 68.535156 235.230469 71.585938 231.460938 71.585938 L 8.410156 71.585938 C 4.644531 71.585938 1.585938 68.535156 1.585938 64.765625 L 1.585938 10.359375 C 1.585938 6.59375 4.644531 3.53125 8.410156 3.53125 L 231.457031 3.53125 C 235.230469 3.53125 238.273438 6.59375 238.273438 10.359375 Z M 238.277344 64.765625 " fill-opacity="1" fill-rule="nonzero"/><path fill="#ffffff" d="M 53.5625 37.183594 C 53.511719 31.445312 58.253906 28.652344 58.472656 28.519531 C 55.785156 24.597656 51.621094 24.058594 50.15625 24.019531 C 46.660156 23.648438 43.269531 26.113281 41.488281 26.113281 C 39.671875 26.113281 36.929688 24.054688 33.972656 24.113281 C 30.167969 24.171875 26.609375 26.378906 24.65625 29.808594 C 20.628906 36.792969 23.632812 47.0625 27.492188 52.710938 C 29.421875 55.476562 31.679688 58.566406 34.632812 58.457031 C 37.519531 58.339844 38.597656 56.613281 42.085938 56.613281 C 45.539062 56.613281 46.554688 58.457031 49.5625 58.390625 C 52.664062 58.339844 54.617188 55.609375 56.480469 52.820312 C 58.710938 49.648438 59.605469 46.527344 59.640625 46.367188 C 59.570312 46.339844 53.621094 44.066406 53.5625 37.183594 Z M 53.5625 37.183594 " fill-opacity="1" fill-rule="nonzero"/><path fill="#ffffff" d="M 47.875 20.300781 C 49.425781 18.355469 50.492188 15.707031 50.195312 13.019531 C 47.945312 13.117188 45.132812 14.578125 43.515625 16.480469 C 42.082031 18.160156 40.800781 20.910156 41.132812 23.496094 C 43.660156 23.683594 46.253906 22.21875 47.875 20.300781 Z M 47.875 20.300781 " fill-opacity="1" fill-rule="nonzero"/><path fill="#ffffff" d="M 95.371094 58.0625 L 91.332031 58.0625 L 89.121094 51.097656 L 81.433594 51.097656 L 79.328125 58.0625 L 75.398438 58.0625 L 83.011719 34.355469 L 87.714844 34.355469 Z M 88.453125 48.175781 L 86.453125 41.988281 C 86.242188 41.355469 85.847656 39.867188 85.261719 37.519531 L 85.191406 37.519531 C 84.957031 38.53125 84.582031 40.019531 84.066406 41.988281 L 82.101562 48.175781 Z M 88.453125 48.175781 " fill-opacity="1" fill-rule="nonzero"/><path fill="#ffffff" d="M 114.953125 49.304688 C 114.953125 52.210938 114.171875 54.507812 112.601562 56.195312 C 111.199219 57.699219 109.453125 58.449219 107.371094 58.449219 C 105.125 58.449219 103.511719 57.640625 102.527344 56.019531 L 102.457031 56.019531 L 102.457031 65.027344 L 98.667969 65.027344 L 98.667969 46.59375 C 98.667969 44.765625 98.621094 42.890625 98.527344 40.96875 L 101.859375 40.96875 L 102.070312 43.675781 L 102.144531 43.675781 C 103.40625 41.636719 105.324219 40.617188 107.898438 40.617188 C 109.910156 40.617188 111.589844 41.414062 112.933594 43.007812 C 114.28125 44.605469 114.953125 46.703125 114.953125 49.304688 Z M 111.09375 49.441406 C 111.09375 47.78125 110.71875 46.40625 109.96875 45.328125 C 109.152344 44.203125 108.050781 43.640625 106.671875 43.640625 C 105.734375 43.640625 104.886719 43.953125 104.125 44.570312 C 103.367188 45.195312 102.867188 46.007812 102.636719 47.015625 C 102.519531 47.488281 102.460938 47.871094 102.460938 48.175781 L 102.460938 51.023438 C 102.460938 52.269531 102.839844 53.316406 103.601562 54.175781 C 104.359375 55.03125 105.351562 55.457031 106.566406 55.457031 C 107.992188 55.457031 109.105469 54.90625 109.898438 53.804688 C 110.695312 52.703125 111.09375 51.25 111.09375 49.441406 Z M 111.09375 49.441406 " fill-opacity="1" fill-rule="nonzero"/><path fill="#ffffff" d="M 134.574219 49.304688 C 134.574219 52.210938 133.792969 54.507812 132.222656 56.195312 C 130.820312 57.699219 129.074219 58.449219 126.992188 58.449219 C 124.746094 58.449219 123.132812 57.640625 122.152344 56.019531 L 122.078125 56.019531 L 122.078125 65.027344 L 118.289062 65.027344 L 118.289062 46.59375 C 118.289062 44.765625 118.242188 42.890625 118.148438 40.96875 L 121.484375 40.96875 L 121.695312 43.675781 L 121.765625 43.675781 C 123.027344 41.636719 124.945312 40.617188 127.523438 40.617188 C 129.53125 40.617188 131.210938 41.414062 132.558594 43.007812 C 133.902344 44.605469 134.574219 46.703125 134.574219 49.304688 Z M 130.714844 49.441406 C 130.714844 47.78125 130.339844 46.40625 129.589844 45.328125 C 128.769531 44.203125 127.671875 43.640625 126.292969 43.640625 C 125.355469 43.640625 124.507812 43.953125 123.746094 44.570312 C 122.984375 45.195312 122.488281 46.007812 122.257812 47.015625 C 122.140625 47.488281 122.078125 47.871094 122.078125 48.175781 L 122.078125 51.023438 C 122.078125 52.269531 122.460938 53.316406 123.21875 54.175781 C 123.980469 55.027344 124.96875 55.457031 126.1875 55.457031 C 127.613281 55.457031 128.726562 54.90625 129.519531 53.804688 C 130.316406 52.703125 130.714844 51.25 130.714844 49.441406 Z M 130.714844 49.441406 " fill-opacity="1" fill-rule="nonzero"/><path fill="#ffffff" d="M 156.511719 51.414062 C 156.511719 53.429688 155.8125 55.070312 154.410156 56.335938 C 152.871094 57.722656 150.722656 58.410156 147.96875 58.410156 C 145.421875 58.410156 143.378906 57.921875 141.835938 56.933594 L 142.714844 53.769531 C 144.378906 54.777344 146.203125 55.285156 148.191406 55.285156 C 149.621094 55.285156 150.730469 54.960938 151.53125 54.316406 C 152.324219 53.671875 152.722656 52.804688 152.722656 51.726562 C 152.722656 50.761719 152.394531 49.953125 151.738281 49.296875 C 151.085938 48.636719 149.996094 48.027344 148.472656 47.460938 C 144.332031 45.914062 142.261719 43.648438 142.261719 40.664062 C 142.261719 38.714844 142.988281 37.117188 144.441406 35.875 C 145.886719 34.628906 147.816406 34.007812 150.230469 34.007812 C 152.386719 34.007812 154.171875 34.382812 155.601562 35.132812 L 154.652344 38.230469 C 153.320312 37.503906 151.8125 37.140625 150.125 37.140625 C 148.792969 37.140625 147.75 37.46875 147.003906 38.125 C 146.371094 38.710938 146.054688 39.425781 146.054688 40.273438 C 146.054688 41.207031 146.417969 41.984375 147.140625 42.59375 C 147.773438 43.15625 148.921875 43.765625 150.585938 44.421875 C 152.621094 45.242188 154.113281 46.203125 155.078125 47.304688 C 156.035156 48.402344 156.511719 49.773438 156.511719 51.414062 Z M 156.511719 51.414062 " fill-opacity="1" fill-rule="nonzero"/><path fill="#ffffff" d="M 169.042969 43.816406 L 164.867188 43.816406 L 164.867188 52.117188 C 164.867188 54.226562 165.601562 55.28125 167.078125 55.28125 C 167.753906 55.28125 168.316406 55.222656 168.761719 55.105469 L 168.867188 57.988281 C 168.121094 58.269531 167.136719 58.410156 165.917969 58.410156 C 164.421875 58.410156 163.253906 57.953125 162.40625 57.039062 C 161.566406 56.121094 161.144531 54.585938 161.144531 52.429688 L 161.144531 43.816406 L 158.65625 43.816406 L 158.65625 40.964844 L 161.144531 40.964844 L 161.144531 37.835938 L 164.867188 36.710938 L 164.867188 40.964844 L 169.042969 40.964844 Z M 169.042969 43.816406 " fill-opacity="1" fill-rule="nonzero"/><path fill="#ffffff" d="M 187.894531 49.375 C 187.894531 52 187.144531 54.160156 185.644531 55.84375 C 184.078125 57.582031 181.992188 58.449219 179.394531 58.449219 C 176.894531 58.449219 174.898438 57.617188 173.414062 55.953125 C 171.925781 54.289062 171.183594 52.1875 171.183594 49.65625 C 171.183594 47.007812 171.949219 44.839844 173.484375 43.152344 C 175.015625 41.464844 177.078125 40.617188 179.675781 40.617188 C 182.179688 40.617188 184.195312 41.449219 185.714844 43.117188 C 187.167969 44.730469 187.894531 46.816406 187.894531 49.375 Z M 183.960938 49.496094 C 183.960938 47.921875 183.625 46.566406 182.945312 45.441406 C 182.148438 44.078125 181.011719 43.394531 179.542969 43.394531 C 178.019531 43.394531 176.859375 44.078125 176.066406 45.441406 C 175.386719 46.570312 175.050781 47.945312 175.050781 49.566406 C 175.050781 51.144531 175.386719 52.496094 176.066406 53.621094 C 176.886719 54.988281 178.03125 55.667969 179.507812 55.667969 C 180.953125 55.667969 182.089844 54.972656 182.910156 53.585938 C 183.609375 52.4375 183.960938 51.070312 183.960938 49.496094 Z M 183.960938 49.496094 " fill-opacity="1" fill-rule="nonzero"/><path fill="#ffffff" d="M 200.214844 44.308594 C 199.839844 44.238281 199.4375 44.203125 199.019531 44.203125 C 197.683594 44.203125 196.652344 44.707031 195.929688 45.71875 C 195.296875 46.609375 194.980469 47.734375 194.980469 49.09375 L 194.980469 58.0625 L 191.191406 58.0625 L 191.226562 46.351562 C 191.226562 44.382812 191.179688 42.585938 191.085938 40.96875 L 194.386719 40.96875 L 194.527344 44.238281 L 194.632812 44.238281 C 195.03125 43.117188 195.664062 42.210938 196.527344 41.53125 C 197.371094 40.921875 198.28125 40.617188 199.265625 40.617188 C 199.617188 40.617188 199.933594 40.640625 200.214844 40.6875 Z M 200.214844 44.308594 " fill-opacity="1" fill-rule="nonzero"/><path fill="#ffffff" d="M 217.164062 48.707031 C 217.164062 49.386719 217.121094 49.960938 217.023438 50.429688 L 205.65625 50.429688 C 205.699219 52.117188 206.25 53.410156 207.304688 54.300781 C 208.261719 55.09375 209.5 55.496094 211.023438 55.496094 C 212.707031 55.496094 214.242188 55.226562 215.625 54.683594 L 216.21875 57.320312 C 214.605469 58.027344 212.699219 58.378906 210.5 58.378906 C 207.855469 58.378906 205.777344 57.597656 204.265625 56.039062 C 202.757812 54.480469 202.003906 52.386719 202.003906 49.761719 C 202.003906 47.183594 202.707031 45.039062 204.113281 43.328125 C 205.582031 41.5 207.574219 40.585938 210.074219 40.585938 C 212.535156 40.585938 214.394531 41.5 215.660156 43.328125 C 216.660156 44.777344 217.164062 46.574219 217.164062 48.707031 Z M 213.550781 47.722656 C 213.574219 46.59375 213.328125 45.621094 212.8125 44.800781 C 212.15625 43.746094 211.148438 43.21875 209.792969 43.21875 C 208.554688 43.21875 207.546875 43.734375 206.777344 44.765625 C 206.144531 45.585938 205.769531 46.570312 205.65625 47.71875 L 213.550781 47.71875 Z M 213.550781 47.722656 " fill-opacity="1" fill-rule="nonzero"/><path fill="#ffffff" d="M 87.199219 19.773438 C 87.199219 21.871094 86.574219 23.449219 85.320312 24.507812 C 84.160156 25.484375 82.507812 25.976562 80.371094 25.976562 C 79.3125 25.976562 78.40625 25.929688 77.648438 25.835938 L 77.648438 14.382812 C 78.636719 14.222656 79.703125 14.140625 80.855469 14.140625 C 82.890625 14.140625 84.425781 14.582031 85.460938 15.46875 C 86.621094 16.472656 87.199219 17.90625 87.199219 19.773438 Z M 85.238281 19.824219 C 85.238281 18.464844 84.878906 17.421875 84.160156 16.695312 C 83.441406 15.972656 82.390625 15.609375 81.011719 15.609375 C 80.425781 15.609375 79.925781 15.648438 79.511719 15.730469 L 79.511719 24.4375 C 79.738281 24.472656 80.160156 24.488281 80.769531 24.488281 C 82.195312 24.488281 83.296875 24.09375 84.070312 23.296875 C 84.84375 22.503906 85.238281 21.347656 85.238281 19.824219 Z M 85.238281 19.824219 " fill-opacity="1" fill-rule="nonzero"/><path fill="#ffffff" d="M 97.617188 21.605469 C 97.617188 22.894531 97.25 23.953125 96.511719 24.785156 C 95.742188 25.636719 94.71875 26.0625 93.441406 26.0625 C 92.210938 26.0625 91.234375 25.65625 90.503906 24.835938 C 89.773438 24.019531 89.410156 22.988281 89.410156 21.742188 C 89.410156 20.441406 89.785156 19.375 90.539062 18.546875 C 91.292969 17.71875 92.304688 17.304688 93.582031 17.304688 C 94.8125 17.304688 95.800781 17.710938 96.546875 18.53125 C 97.257812 19.324219 97.617188 20.351562 97.617188 21.605469 Z M 95.683594 21.664062 C 95.683594 20.890625 95.515625 20.226562 95.183594 19.671875 C 94.792969 19 94.238281 18.667969 93.511719 18.667969 C 92.765625 18.667969 92.195312 19 91.804688 19.671875 C 91.472656 20.226562 91.304688 20.902344 91.304688 21.699219 C 91.304688 22.472656 91.472656 23.136719 91.804688 23.691406 C 92.207031 24.363281 92.769531 24.695312 93.496094 24.695312 C 94.207031 24.695312 94.765625 24.355469 95.167969 23.675781 C 95.511719 23.109375 95.683594 22.441406 95.683594 21.664062 Z M 95.683594 21.664062 " fill-opacity="1" fill-rule="nonzero"/><path fill="#ffffff" d="M 111.582031 17.476562 L 108.960938 25.871094 L 107.253906 25.871094 L 106.167969 22.226562 C 105.890625 21.316406 105.667969 20.410156 105.492188 19.511719 L 105.460938 19.511719 C 105.296875 20.4375 105.074219 21.339844 104.785156 22.226562 L 103.632812 25.871094 L 101.90625 25.871094 L 99.441406 17.476562 L 101.355469 17.476562 L 102.300781 21.46875 C 102.53125 22.410156 102.71875 23.308594 102.871094 24.160156 L 102.90625 24.160156 C 103.042969 23.460938 103.273438 22.566406 103.597656 21.484375 L 104.785156 17.476562 L 106.304688 17.476562 L 107.445312 21.398438 C 107.71875 22.355469 107.945312 23.277344 108.117188 24.164062 L 108.167969 24.164062 C 108.292969 23.300781 108.484375 22.378906 108.734375 21.398438 L 109.753906 17.476562 Z M 111.582031 17.476562 " fill-opacity="1" fill-rule="nonzero"/><path fill="#ffffff" d="M 121.242188 25.871094 L 119.378906 25.871094 L 119.378906 21.0625 C 119.378906 19.582031 118.816406 18.839844 117.6875 18.839844 C 117.136719 18.839844 116.691406 19.042969 116.34375 19.449219 C 116 19.859375 115.824219 20.339844 115.824219 20.890625 L 115.824219 25.871094 L 113.960938 25.871094 L 113.960938 19.875 C 113.960938 19.136719 113.941406 18.335938 113.894531 17.472656 L 115.53125 17.472656 L 115.621094 18.785156 L 115.671875 18.785156 C 115.886719 18.375 116.210938 18.039062 116.636719 17.769531 C 117.140625 17.457031 117.707031 17.296875 118.324219 17.296875 C 119.109375 17.296875 119.757812 17.550781 120.277344 18.058594 C 120.917969 18.679688 121.242188 19.609375 121.242188 20.839844 Z M 121.242188 25.871094 " fill-opacity="1" fill-rule="nonzero"/><path fill="#ffffff" d="M 124.515625 13.621094 L 126.378906 13.621094 L 126.378906 25.871094 L 124.515625 25.871094 Z M 124.515625 13.621094 " fill-opacity="1" fill-rule="nonzero"/><path fill="#ffffff" d="M 137.347656 21.605469 C 137.347656 22.894531 136.980469 23.953125 136.242188 24.785156 C 135.472656 25.636719 134.449219 26.0625 133.171875 26.0625 C 131.941406 26.0625 130.960938 25.65625 130.234375 24.835938 C 129.503906 24.019531 129.140625 22.988281 129.140625 21.742188 C 129.140625 20.441406 129.515625 19.375 130.269531 18.546875 C 131.023438 17.71875 132.035156 17.304688 133.308594 17.304688 C 134.542969 17.304688 135.527344 17.710938 136.277344 18.53125 C 136.988281 19.324219 137.347656 20.351562 137.347656 21.605469 Z M 135.414062 21.664062 C 135.414062 20.890625 135.246094 20.226562 134.914062 19.671875 C 134.523438 19 133.964844 18.667969 133.242188 18.667969 C 132.492188 18.667969 131.925781 19 131.535156 19.671875 C 131.203125 20.226562 131.035156 20.902344 131.035156 21.699219 C 131.035156 22.472656 131.203125 23.136719 131.535156 23.691406 C 131.9375 24.363281 132.5 24.695312 133.226562 24.695312 C 133.9375 24.695312 134.492188 24.355469 134.894531 23.675781 C 135.242188 23.109375 135.414062 22.441406 135.414062 21.664062 Z M 135.414062 21.664062 " fill-opacity="1" fill-rule="nonzero"/><path fill="#ffffff" d="M 146.363281 25.871094 L 144.691406 25.871094 L 144.550781 24.90625 L 144.5 24.90625 C 143.929688 25.675781 143.113281 26.0625 142.054688 26.0625 C 141.261719 26.0625 140.621094 25.808594 140.140625 25.300781 C 139.703125 24.84375 139.484375 24.269531 139.484375 23.59375 C 139.484375 22.566406 139.910156 21.785156 140.769531 21.242188 C 141.625 20.699219 142.832031 20.4375 144.382812 20.449219 L 144.382812 20.292969 C 144.382812 19.183594 143.804688 18.632812 142.644531 18.632812 C 141.816406 18.632812 141.085938 18.839844 140.457031 19.253906 L 140.078125 18.027344 C 140.859375 17.546875 141.820312 17.304688 142.953125 17.304688 C 145.144531 17.304688 146.242188 18.460938 146.242188 20.777344 L 146.242188 23.871094 C 146.242188 24.707031 146.285156 25.375 146.363281 25.871094 Z M 144.429688 22.988281 L 144.429688 21.691406 C 142.375 21.65625 141.347656 22.21875 141.347656 23.382812 C 141.347656 23.820312 141.464844 24.148438 141.703125 24.367188 C 141.945312 24.585938 142.25 24.695312 142.613281 24.695312 C 143.023438 24.695312 143.40625 24.566406 143.753906 24.308594 C 144.105469 24.046875 144.320312 23.71875 144.398438 23.3125 C 144.417969 23.222656 144.429688 23.113281 144.429688 22.988281 Z M 144.429688 22.988281 " fill-opacity="1" fill-rule="nonzero"/><path fill="#ffffff" d="M 156.949219 25.871094 L 155.296875 25.871094 L 155.210938 24.523438 L 155.160156 24.523438 C 154.628906 25.550781 153.730469 26.0625 152.464844 26.0625 C 151.457031 26.0625 150.617188 25.664062 149.949219 24.871094 C 149.28125 24.078125 148.949219 23.046875 148.949219 21.777344 C 148.949219 20.417969 149.3125 19.320312 150.035156 18.476562 C 150.738281 17.695312 151.597656 17.300781 152.625 17.300781 C 153.75 17.300781 154.535156 17.683594 154.984375 18.441406 L 155.019531 18.441406 L 155.019531 13.621094 L 156.882812 13.621094 L 156.882812 23.609375 C 156.882812 24.425781 156.90625 25.179688 156.949219 25.871094 Z M 155.019531 22.332031 L 155.019531 20.929688 C 155.019531 20.6875 155 20.492188 154.96875 20.34375 C 154.863281 19.894531 154.636719 19.515625 154.292969 19.210938 C 153.949219 18.90625 153.53125 18.753906 153.046875 18.753906 C 152.351562 18.753906 151.808594 19.03125 151.410156 19.585938 C 151.011719 20.136719 150.8125 20.84375 150.8125 21.710938 C 150.8125 22.539062 151 23.210938 151.382812 23.730469 C 151.789062 24.28125 152.332031 24.558594 153.011719 24.558594 C 153.625 24.558594 154.113281 24.328125 154.484375 23.867188 C 154.84375 23.441406 155.019531 22.929688 155.019531 22.332031 Z M 155.019531 22.332031 " fill-opacity="1" fill-rule="nonzero"/><path fill="#ffffff" d="M 172.882812 21.605469 C 172.882812 22.894531 172.515625 23.953125 171.78125 24.785156 C 171.007812 25.636719 169.988281 26.0625 168.710938 26.0625 C 167.480469 26.0625 166.503906 25.65625 165.769531 24.835938 C 165.039062 24.019531 164.675781 22.988281 164.675781 21.742188 C 164.675781 20.441406 165.050781 19.375 165.804688 18.546875 C 166.558594 17.71875 167.570312 17.304688 168.851562 17.304688 C 170.078125 17.304688 171.070312 17.710938 171.816406 18.53125 C 172.527344 19.324219 172.882812 20.351562 172.882812 21.605469 Z M 170.953125 21.664062 C 170.953125 20.890625 170.785156 20.226562 170.453125 19.671875 C 170.0625 19 169.507812 18.667969 168.78125 18.667969 C 168.035156 18.667969 167.464844 19 167.074219 19.671875 C 166.738281 20.226562 166.574219 20.902344 166.574219 21.699219 C 166.574219 22.472656 166.738281 23.136719 167.074219 23.691406 C 167.476562 24.363281 168.039062 24.695312 168.761719 24.695312 C 169.472656 24.695312 170.035156 24.355469 170.4375 23.675781 C 170.777344 23.109375 170.953125 22.441406 170.953125 21.664062 Z M 170.953125 21.664062 " fill-opacity="1" fill-rule="nonzero"/><path fill="#ffffff" d="M 182.902344 25.871094 L 181.039062 25.871094 L 181.039062 21.0625 C 181.039062 19.582031 180.480469 18.839844 179.351562 18.839844 C 178.796875 18.839844 178.351562 19.042969 178.003906 19.449219 C 177.660156 19.859375 177.488281 20.339844 177.488281 20.890625 L 177.488281 25.871094 L 175.625 25.871094 L 175.625 19.875 C 175.625 19.136719 175.601562 18.335938 175.558594 17.472656 L 177.191406 17.472656 L 177.28125 18.785156 L 177.332031 18.785156 C 177.550781 18.375 177.875 18.039062 178.296875 17.769531 C 178.804688 17.457031 179.367188 17.296875 179.988281 17.296875 C 180.769531 17.296875 181.417969 17.550781 181.9375 18.058594 C 182.582031 18.679688 182.902344 19.609375 182.902344 20.839844 Z M 182.902344 25.871094 " fill-opacity="1" fill-rule="nonzero"/><path fill="#ffffff" d="M 195.441406 18.875 L 193.386719 18.875 L 193.386719 22.953125 C 193.386719 23.988281 193.753906 24.507812 194.476562 24.507812 C 194.808594 24.507812 195.085938 24.480469 195.304688 24.421875 L 195.351562 25.835938 C 194.984375 25.976562 194.5 26.042969 193.90625 26.042969 C 193.167969 26.042969 192.597656 25.820312 192.183594 25.371094 C 191.765625 24.921875 191.5625 24.167969 191.5625 23.109375 L 191.5625 18.875 L 190.335938 18.875 L 190.335938 17.476562 L 191.5625 17.476562 L 191.5625 15.9375 L 193.386719 15.382812 L 193.386719 17.472656 L 195.4375 17.472656 L 195.4375 18.875 Z M 195.441406 18.875 " fill-opacity="1" fill-rule="nonzero"/><path fill="#ffffff" d="M 205.304688 25.871094 L 203.4375 25.871094 L 203.4375 21.097656 C 203.4375 19.59375 202.875 18.839844 201.75 18.839844 C 200.886719 18.839844 200.296875 19.277344 199.972656 20.148438 C 199.917969 20.332031 199.886719 20.558594 199.886719 20.820312 L 199.886719 25.871094 L 198.023438 25.871094 L 198.023438 13.621094 L 199.886719 13.621094 L 199.886719 18.683594 L 199.921875 18.683594 C 200.507812 17.761719 201.347656 17.300781 202.4375 17.300781 C 203.210938 17.300781 203.847656 17.554688 204.355469 18.0625 C 204.988281 18.695312 205.304688 19.636719 205.304688 20.878906 Z M 205.304688 25.871094 " fill-opacity="1" fill-rule="nonzero"/><path fill="#ffffff" d="M 215.476562 21.277344 C 215.476562 21.609375 215.453125 21.894531 215.40625 22.121094 L 209.820312 22.121094 C 209.84375 22.953125 210.113281 23.585938 210.628906 24.023438 C 211.101562 24.414062 211.710938 24.609375 212.457031 24.609375 C 213.285156 24.609375 214.039062 24.480469 214.71875 24.214844 L 215.007812 25.511719 C 214.214844 25.855469 213.28125 26.027344 212.195312 26.027344 C 210.898438 26.027344 209.875 25.644531 209.136719 24.878906 C 208.394531 24.113281 208.027344 23.085938 208.027344 21.796875 C 208.027344 20.53125 208.371094 19.476562 209.0625 18.632812 C 209.78125 17.738281 210.757812 17.289062 211.992188 17.289062 C 213.195312 17.289062 214.113281 17.738281 214.730469 18.632812 C 215.230469 19.347656 215.476562 20.230469 215.476562 21.277344 Z M 213.699219 20.792969 C 213.714844 20.238281 213.589844 19.761719 213.339844 19.359375 C 213.015625 18.839844 212.523438 18.582031 211.855469 18.582031 C 211.246094 18.582031 210.75 18.835938 210.371094 19.34375 C 210.0625 19.746094 209.878906 20.230469 209.820312 20.792969 Z M 213.699219 20.792969 " fill-opacity="1" fill-rule="nonzero"/></svg>