<svg xmlns="http://www.w3.org/2000/svg" xmlns:xlink="http://www.w3.org/1999/xlink" width="1080" zoomAndPan="magnify" viewBox="0 0 810 809.999993" height="1080" preserveAspectRatio="xMidYMid meet" version="1.0"><defs><g/></defs><rect x="-81" width="972" fill="#ffffff" y="-80.999999" height="971.999992" fill-opacity="1"/><rect x="-81" width="972" fill="#217e5b" y="-80.999999" height="971.999992" fill-opacity="1"/><g fill="#ccece8" fill-opacity="1"><g transform="translate(149.484371, 142.38259)"><g><path d="M 0.234375 -0.265625 L 0.234375 -1.203125 C 0.234375 -1.378906 0.320312 -1.46875 0.5 -1.46875 L 1.234375 -1.46875 C 2.171875 -1.53125 3.128906 -1.566406 4.109375 -1.578125 C 5.085938 -1.585938 5.972656 -1.707031 6.765625 -1.9375 C 8.597656 -2.46875 9.515625 -3.800781 9.515625 -5.9375 L 9.515625 -41.109375 C 9.515625 -43.304688 8.210938 -44.707031 5.609375 -45.3125 C 4.867188 -45.46875 4.125 -45.597656 3.375 -45.703125 L 2.671875 -45.703125 C 2.492188 -45.703125 2.40625 -45.789062 2.40625 -45.96875 L 2.40625 -46.78125 C 2.40625 -46.957031 2.492188 -47.046875 2.671875 -47.046875 L 34.390625 -47.046875 C 34.796875 -47.046875 35.085938 -46.972656 35.265625 -46.828125 C 35.441406 -46.679688 35.550781 -46.363281 35.59375 -45.875 L 36.203125 -36.203125 C 36.203125 -35.972656 36.035156 -35.859375 35.703125 -35.859375 C 35.367188 -35.859375 35.125 -35.960938 34.96875 -36.171875 C 34.832031 -36.390625 34.65625 -37.195312 34.4375 -38.59375 C 34.226562 -40 33.847656 -41.164062 33.296875 -42.09375 C 32.742188 -43.03125 31.765625 -43.625 30.359375 -43.875 L 16.453125 -43.875 C 16.160156 -43.875 16.015625 -43.726562 16.015625 -43.4375 L 16.015625 -26.1875 C 16.015625 -25.96875 16.125 -25.859375 16.34375 -25.859375 L 27.890625 -25.859375 C 30.867188 -25.859375 32.359375 -27.59375 32.359375 -31.0625 C 32.359375 -31.238281 32.445312 -31.328125 32.625 -31.328125 L 33.4375 -31.328125 C 33.613281 -31.328125 33.703125 -31.238281 33.703125 -31.0625 L 33.703125 -16.78125 C 33.703125 -16.601562 33.613281 -16.515625 33.4375 -16.515625 L 32.625 -16.515625 C 32.445312 -16.515625 32.359375 -16.601562 32.359375 -16.78125 C 32.359375 -20.070312 31.40625 -21.972656 29.5 -22.484375 C 28.957031 -22.617188 28.390625 -22.6875 27.796875 -22.6875 L 16.34375 -22.6875 C 16.125 -22.6875 16.015625 -22.578125 16.015625 -22.359375 L 16.015625 -6.109375 C 16.015625 -4.441406 16.78125 -3.492188 18.3125 -3.265625 C 18.757812 -3.203125 19.226562 -3.171875 19.71875 -3.171875 L 30.828125 -3.171875 C 33.117188 -3.171875 34.898438 -4.179688 36.171875 -6.203125 C 37.078125 -7.648438 37.628906 -9.304688 37.828125 -11.171875 C 37.898438 -11.796875 38.234375 -12.109375 38.828125 -12.109375 C 39.097656 -12.109375 39.234375 -11.960938 39.234375 -11.671875 L 38.140625 -0.46875 C 38.003906 -0.15625 37.847656 0 37.671875 0 L 0.5 0 C 0.320312 0 0.234375 -0.0859375 0.234375 -0.265625 Z M 0.234375 -0.265625 "/></g></g></g><g fill="#ccece8" fill-opacity="1"><g transform="translate(191.650812, 142.38259)"><g><path d="M 16.71875 -1.328125 C 16.851562 -1.328125 16.921875 -1.238281 16.921875 -1.0625 L 16.921875 -0.265625 C 16.921875 -0.0859375 16.851562 0 16.71875 0 L 1.140625 0 C 0.960938 0 0.875 -0.0859375 0.875 -0.265625 L 0.875 -1.0625 C 0.875 -1.238281 0.960938 -1.328125 1.140625 -1.328125 C 4.785156 -1.328125 6.765625 -2.894531 7.078125 -6.03125 C 7.160156 -6.945312 7.25 -8.46875 7.34375 -10.59375 C 7.445312 -12.71875 7.742188 -17.285156 8.234375 -24.296875 C 8.722656 -31.316406 8.96875 -37 8.96875 -41.34375 L 8.96875 -42.578125 C 8.96875 -43.460938 8.460938 -44.203125 7.453125 -44.796875 C 6.441406 -45.398438 5.703125 -45.703125 5.234375 -45.703125 C 4.765625 -45.703125 4.53125 -45.789062 4.53125 -45.96875 L 4.53125 -46.78125 C 4.53125 -46.957031 4.617188 -47.046875 4.796875 -47.046875 L 14.453125 -47.046875 C 14.867188 -46.972656 15.210938 -46.726562 15.484375 -46.3125 L 31.125 -11.4375 C 31.238281 -11.28125 31.328125 -11.144531 31.390625 -11.03125 C 31.460938 -10.925781 31.628906 -10.878906 31.890625 -10.890625 C 32.160156 -10.898438 32.363281 -11.097656 32.5 -11.484375 L 47.96875 -45.703125 C 48.4375 -46.597656 48.863281 -47.046875 49.25 -47.046875 L 58.953125 -47.046875 C 59.128906 -47.046875 59.21875 -46.957031 59.21875 -46.78125 L 59.21875 -45.96875 C 59.21875 -45.789062 59.160156 -45.703125 59.046875 -45.703125 C 58.378906 -45.703125 57.554688 -45.484375 56.578125 -45.046875 C 55.085938 -44.378906 54.34375 -43.390625 54.34375 -42.078125 L 56.34375 -5.203125 C 56.394531 -4.046875 57 -3.109375 58.15625 -2.390625 C 59.3125 -1.679688 60.820312 -1.328125 62.6875 -1.328125 C 62.863281 -1.328125 62.953125 -1.238281 62.953125 -1.0625 L 62.953125 -0.265625 C 62.953125 -0.0859375 62.863281 0 62.6875 0 L 43.734375 0 C 43.554688 0 43.46875 -0.0859375 43.46875 -0.265625 L 43.46875 -1.0625 C 43.46875 -1.238281 43.554688 -1.328125 43.734375 -1.328125 C 47.722656 -1.328125 49.71875 -2.296875 49.71875 -4.234375 L 47.9375 -36.09375 C 47.914062 -36.320312 47.851562 -36.4375 47.75 -36.4375 C 47.65625 -36.4375 47.578125 -36.332031 47.515625 -36.125 L 30.921875 -0.234375 C 30.835938 -0.078125 30.582031 0 30.15625 0 C 29.738281 0 29.492188 -0.0859375 29.421875 -0.265625 L 13.078125 -36.234375 C 12.941406 -36.546875 12.8125 -36.703125 12.6875 -36.703125 C 12.570312 -36.703125 12.515625 -36.457031 12.515625 -35.96875 C 12.515625 -34.945312 12.242188 -30.117188 11.703125 -21.484375 C 11.171875 -12.859375 10.90625 -7.476562 10.90625 -5.34375 L 10.90625 -3.96875 C 11.175781 -2.695312 12.4375 -1.875 14.6875 -1.5 C 15.320312 -1.382812 16 -1.328125 16.71875 -1.328125 Z M 16.71875 -1.328125 "/></g></g></g><g fill="#ccece8" fill-opacity="1"><g transform="translate(256.001337, 142.38259)"><g><path d="M 0.59375 0 C 0.414062 0 0.328125 -0.0859375 0.328125 -0.265625 L 0.328125 -1.0625 C 0.328125 -1.238281 0.484375 -1.328125 0.796875 -1.328125 C 1.847656 -1.328125 3.003906 -1.441406 4.265625 -1.671875 C 8.335938 -2.359375 10.375 -3.757812 10.375 -5.875 L 10.375 -41.0625 C 10.15625 -43.914062 8.851562 -45.460938 6.46875 -45.703125 C 5.757812 -45.796875 4.972656 -45.84375 4.109375 -45.84375 L 2.203125 -45.84375 C 2.023438 -45.84375 1.9375 -45.929688 1.9375 -46.109375 L 1.9375 -46.9375 C 1.9375 -47.113281 2.023438 -47.203125 2.203125 -47.203125 L 3.671875 -47.25 L 9.40625 -47.28125 L 21.28125 -47.640625 C 34.007812 -47.640625 40.375 -43.878906 40.375 -36.359375 C 40.375 -33.179688 38.726562 -30.535156 35.4375 -28.421875 C 34.925781 -28.085938 34.484375 -27.84375 34.109375 -27.6875 C 33.742188 -27.53125 33.539062 -27.441406 33.5 -27.421875 C 36.4375 -25.773438 38.742188 -23.925781 40.421875 -21.875 C 42.097656 -19.832031 42.9375 -17.390625 42.9375 -14.546875 C 42.9375 -8.472656 40.066406 -4.25 34.328125 -1.875 C 31.367188 -0.625 28.15625 0 24.6875 0 Z M 17.484375 -26.015625 C 17.191406 -26.015625 17.046875 -25.894531 17.046875 -25.65625 L 17.046875 -7.375 C 17.046875 -5.789062 17.785156 -4.519531 19.265625 -3.5625 C 20.742188 -2.613281 22.34375 -2.140625 24.0625 -2.140625 C 27.351562 -2.140625 30.15625 -3.3125 32.46875 -5.65625 C 34.78125 -8 35.9375 -10.890625 35.9375 -14.328125 C 35.9375 -17.765625 34.695312 -20.570312 32.21875 -22.75 C 29.738281 -24.925781 26.59375 -26.015625 22.78125 -26.015625 Z M 16.984375 -28.71875 C 16.984375 -28.300781 17.238281 -28.09375 17.75 -28.09375 L 25.953125 -28.09375 C 28.085938 -28.09375 29.882812 -28.878906 31.34375 -30.453125 C 32.800781 -32.035156 33.53125 -33.804688 33.53125 -35.765625 C 33.53125 -39.253906 32.539062 -41.78125 30.5625 -43.34375 C 28.582031 -44.914062 25.945312 -45.703125 22.65625 -45.703125 C 21.65625 -45.640625 20.957031 -45.609375 20.5625 -45.609375 C 20.175781 -45.609375 19.769531 -45.613281 19.34375 -45.625 C 18.925781 -45.632812 18.503906 -45.601562 18.078125 -45.53125 C 17.660156 -45.46875 17.375 -45.328125 17.21875 -45.109375 C 17.0625 -44.890625 16.984375 -44.519531 16.984375 -44 Z M 16.984375 -28.71875 "/></g></g></g><g fill="#ccece8" fill-opacity="1"><g transform="translate(302.437797, 142.38259)"><g><path d="M 1.734375 0 C 1.554688 0 1.46875 -0.222656 1.46875 -0.671875 L 1.46875 -1.0625 C 1.46875 -1.238281 1.554688 -1.328125 1.734375 -1.328125 C 1.867188 -1.328125 2.078125 -1.347656 2.359375 -1.390625 C 2.648438 -1.441406 2.953125 -1.488281 3.265625 -1.53125 C 3.578125 -1.570312 3.863281 -1.617188 4.125 -1.671875 C 4.394531 -1.734375 4.585938 -1.773438 4.703125 -1.796875 C 6.972656 -2.304688 8.109375 -3.597656 8.109375 -5.671875 L 8.109375 -40.90625 C 8.109375 -42.8125 7.34375 -44.164062 5.8125 -44.96875 C 4.894531 -45.457031 3.914062 -45.703125 2.875 -45.703125 L 1.59375 -45.703125 C 1.414062 -45.703125 1.328125 -45.789062 1.328125 -45.96875 L 1.328125 -46.78125 C 1.328125 -46.957031 1.460938 -47.046875 1.734375 -47.046875 L 20.046875 -47.546875 L 23.421875 -47.546875 C 27.359375 -47.273438 30.65625 -45.84375 33.3125 -43.25 C 35.96875 -40.664062 37.296875 -37.472656 37.296875 -33.671875 C 37.296875 -29.878906 35.71875 -26.929688 32.5625 -24.828125 C 31.582031 -24.179688 30.523438 -23.601562 29.390625 -23.09375 L 39.5 -6.578125 C 41.257812 -3.679688 43.617188 -1.644531 46.578125 -0.46875 C 46.816406 -0.394531 46.9375 -0.238281 46.9375 0 C 46.9375 0.550781 46.570312 0.828125 45.84375 0.828125 C 40.832031 0.828125 36.847656 -1.070312 33.890625 -4.875 C 33.242188 -5.71875 32.601562 -6.660156 31.96875 -7.703125 L 23.328125 -21.25 L 15.375 -21.625 L 15.109375 -21.625 C 14.773438 -21.625 14.609375 -21.46875 14.609375 -21.15625 L 14.609375 -5.765625 C 14.609375 -4.546875 14.953125 -3.632812 15.640625 -3.03125 C 16.335938 -2.4375 17.53125 -2.023438 19.21875 -1.796875 C 19.664062 -1.734375 20.207031 -1.640625 20.84375 -1.515625 C 21.488281 -1.390625 21.925781 -1.328125 22.15625 -1.328125 C 22.394531 -1.328125 22.515625 -1.238281 22.515625 -1.0625 L 22.515625 -0.265625 C 22.515625 -0.0859375 22.425781 0 22.25 0 Z M 17.3125 -45.796875 C 17.050781 -45.785156 16.769531 -45.769531 16.46875 -45.75 C 16.164062 -45.738281 15.78125 -45.726562 15.3125 -45.71875 C 14.84375 -45.707031 14.609375 -45.523438 14.609375 -45.171875 L 14.609375 -24.953125 L 14.6875 -23.953125 C 14.75 -23.484375 14.957031 -23.238281 15.3125 -23.21875 L 18.71875 -23.015625 C 24.96875 -23.015625 28.738281 -25.238281 30.03125 -29.6875 C 30.445312 -31.09375 30.65625 -32.695312 30.65625 -34.5 C 30.65625 -38.007812 29.5625 -40.773438 27.375 -42.796875 C 25.1875 -44.828125 22.390625 -45.84375 18.984375 -45.84375 C 18.671875 -45.84375 18.378906 -45.835938 18.109375 -45.828125 C 17.847656 -45.816406 17.582031 -45.804688 17.3125 -45.796875 Z M 17.3125 -45.796875 "/></g></g></g><g fill="#ccece8" fill-opacity="1"><g transform="translate(349.774964, 142.38259)"><g><path d="M 17.75 -0.265625 C 17.75 -0.0859375 17.660156 0 17.484375 0 L 0.4375 0 C 0.257812 0 0.171875 -0.0859375 0.171875 -0.265625 L 0.171875 -1.0625 C 0.171875 -1.238281 0.3125 -1.328125 0.59375 -1.328125 C 3.644531 -1.460938 5.703125 -3.085938 6.765625 -6.203125 L 20.390625 -45.609375 C 20.410156 -45.648438 20.421875 -45.707031 20.421875 -45.78125 L 20.046875 -46.875 C 20.046875 -46.988281 20.09375 -47.046875 20.1875 -47.046875 L 26.859375 -47.046875 C 26.898438 -47.023438 26.957031 -47 27.03125 -46.96875 C 27.113281 -46.945312 27.175781 -46.882812 27.21875 -46.78125 L 41.34375 -7.171875 C 41.644531 -6.566406 41.890625 -6.019531 42.078125 -5.53125 C 42.273438 -5.039062 42.492188 -4.597656 42.734375 -4.203125 C 43.273438 -3.285156 44.15625 -2.585938 45.375 -2.109375 C 46.394531 -1.585938 47.328125 -1.328125 48.171875 -1.328125 C 48.347656 -1.328125 48.4375 -1.226562 48.4375 -1.03125 L 48.4375 -0.265625 C 48.4375 -0.0859375 48.347656 0 48.171875 0 L 27.765625 0 C 27.578125 0 27.484375 -0.0859375 27.484375 -0.265625 L 27.484375 -1.0625 C 27.484375 -1.238281 27.894531 -1.347656 28.71875 -1.390625 C 29.539062 -1.441406 30.222656 -1.488281 30.765625 -1.53125 C 33.859375 -1.863281 35.40625 -2.910156 35.40625 -4.671875 C 35.40625 -4.804688 35.378906 -4.960938 35.328125 -5.140625 L 30.296875 -19.34375 C 30.273438 -19.394531 30.226562 -19.5 30.15625 -19.65625 C 29.894531 -20.40625 29.429688 -20.78125 28.765625 -20.78125 L 16.921875 -20.78125 C 16.253906 -20.78125 15.726562 -20.414062 15.34375 -19.6875 C 15.28125 -19.53125 15.25 -19.441406 15.25 -19.421875 L 10.25 -4.765625 L 10.25 -4.46875 C 10.25 -3.894531 10.546875 -3.375 11.140625 -2.90625 C 12.492188 -1.851562 14.316406 -1.328125 16.609375 -1.328125 L 17.484375 -1.328125 C 17.660156 -1.328125 17.75 -1.238281 17.75 -1.0625 Z M 27.625 -24.484375 C 28.019531 -24.484375 28.21875 -24.648438 28.21875 -24.984375 C 28.21875 -25.160156 28.175781 -25.363281 28.09375 -25.59375 L 23.125 -39.265625 C 22.894531 -39.867188 22.726562 -40.171875 22.625 -40.171875 C 22.507812 -40.171875 22.332031 -39.859375 22.09375 -39.234375 L 17.421875 -25.59375 C 17.328125 -25.363281 17.28125 -25.117188 17.28125 -24.859375 C 17.28125 -24.609375 17.445312 -24.484375 17.78125 -24.484375 Z M 27.625 -24.484375 "/></g></g></g><g fill="#ccece8" fill-opacity="1"><g transform="translate(398.379805, 142.38259)"><g><path d="M 44.875 -1.265625 C 44.757812 -1.085938 44.484375 -1.046875 44.046875 -1.140625 C 43.617188 -1.242188 43.113281 -1.296875 42.53125 -1.296875 C 41.957031 -1.296875 41.140625 -1.175781 40.078125 -0.9375 C 39.023438 -0.707031 37.363281 -0.34375 35.09375 0.15625 C 32.820312 0.65625 30.753906 0.90625 28.890625 0.90625 C 24.660156 0.90625 20.5625 -0.0859375 16.59375 -2.078125 C 12.625 -4.078125 9.445312 -6.90625 7.0625 -10.5625 C 4.6875 -14.21875 3.5 -18.457031 3.5 -23.28125 C 3.5 -28.113281 4.691406 -32.488281 7.078125 -36.40625 C 10.546875 -42.132812 15.769531 -45.867188 22.75 -47.609375 C 24.976562 -48.160156 27.203125 -48.4375 29.421875 -48.4375 C 32.472656 -48.4375 36.085938 -47.925781 40.265625 -46.90625 C 41.535156 -46.59375 42.609375 -46.269531 43.484375 -45.9375 C 44.367188 -45.601562 44.910156 -45.4375 45.109375 -45.4375 L 46.109375 -45.703125 L 47.140625 -45.703125 C 47.410156 -45.703125 47.546875 -45.515625 47.546875 -45.140625 L 47.546875 -34.765625 C 47.546875 -34.546875 47.34375 -34.4375 46.9375 -34.4375 C 46.539062 -34.4375 46.304688 -34.484375 46.234375 -34.578125 C 46.171875 -34.679688 46.101562 -34.804688 46.03125 -34.953125 C 45.96875 -35.097656 45.894531 -35.242188 45.8125 -35.390625 C 45.738281 -35.546875 45.660156 -35.691406 45.578125 -35.828125 C 45.503906 -35.960938 45.457031 -36.0625 45.4375 -36.125 C 42.101562 -42.820312 37.046875 -46.171875 30.265625 -46.171875 C 24.140625 -46.171875 19.351562 -44.222656 15.90625 -40.328125 C 12.46875 -36.441406 10.75 -31.289062 10.75 -24.875 C 10.75 -18.457031 12.644531 -12.945312 16.4375 -8.34375 C 20.226562 -3.738281 25.378906 -1.4375 31.890625 -1.4375 C 35.453125 -1.4375 38.695312 -2.492188 41.625 -4.609375 C 44.550781 -6.722656 46.847656 -9.3125 48.515625 -12.375 C 48.554688 -12.507812 48.6875 -12.578125 48.90625 -12.578125 L 49.34375 -12.578125 C 49.5625 -12.578125 49.671875 -12.441406 49.671875 -12.171875 C 49.671875 -11.910156 49.609375 -11.65625 49.484375 -11.40625 Z M 44.875 -1.265625 "/></g></g></g><g fill="#ccece8" fill-opacity="1"><g transform="translate(450.620823, 142.38259)"><g><path d="M 0.234375 -0.265625 L 0.234375 -1.203125 C 0.234375 -1.378906 0.320312 -1.46875 0.5 -1.46875 L 1.234375 -1.46875 C 2.171875 -1.53125 3.128906 -1.566406 4.109375 -1.578125 C 5.085938 -1.585938 5.972656 -1.707031 6.765625 -1.9375 C 8.597656 -2.46875 9.515625 -3.800781 9.515625 -5.9375 L 9.515625 -41.109375 C 9.515625 -43.304688 8.210938 -44.707031 5.609375 -45.3125 C 4.867188 -45.46875 4.125 -45.597656 3.375 -45.703125 L 2.671875 -45.703125 C 2.492188 -45.703125 2.40625 -45.789062 2.40625 -45.96875 L 2.40625 -46.78125 C 2.40625 -46.957031 2.492188 -47.046875 2.671875 -47.046875 L 34.390625 -47.046875 C 34.796875 -47.046875 35.085938 -46.972656 35.265625 -46.828125 C 35.441406 -46.679688 35.550781 -46.363281 35.59375 -45.875 L 36.203125 -36.203125 C 36.203125 -35.972656 36.035156 -35.859375 35.703125 -35.859375 C 35.367188 -35.859375 35.125 -35.960938 34.96875 -36.171875 C 34.832031 -36.390625 34.65625 -37.195312 34.4375 -38.59375 C 34.226562 -40 33.847656 -41.164062 33.296875 -42.09375 C 32.742188 -43.03125 31.765625 -43.625 30.359375 -43.875 L 16.453125 -43.875 C 16.160156 -43.875 16.015625 -43.726562 16.015625 -43.4375 L 16.015625 -26.1875 C 16.015625 -25.96875 16.125 -25.859375 16.34375 -25.859375 L 27.890625 -25.859375 C 30.867188 -25.859375 32.359375 -27.59375 32.359375 -31.0625 C 32.359375 -31.238281 32.445312 -31.328125 32.625 -31.328125 L 33.4375 -31.328125 C 33.613281 -31.328125 33.703125 -31.238281 33.703125 -31.0625 L 33.703125 -16.78125 C 33.703125 -16.601562 33.613281 -16.515625 33.4375 -16.515625 L 32.625 -16.515625 C 32.445312 -16.515625 32.359375 -16.601562 32.359375 -16.78125 C 32.359375 -20.070312 31.40625 -21.972656 29.5 -22.484375 C 28.957031 -22.617188 28.390625 -22.6875 27.796875 -22.6875 L 16.34375 -22.6875 C 16.125 -22.6875 16.015625 -22.578125 16.015625 -22.359375 L 16.015625 -6.109375 C 16.015625 -4.441406 16.78125 -3.492188 18.3125 -3.265625 C 18.757812 -3.203125 19.226562 -3.171875 19.71875 -3.171875 L 30.828125 -3.171875 C 33.117188 -3.171875 34.898438 -4.179688 36.171875 -6.203125 C 37.078125 -7.648438 37.628906 -9.304688 37.828125 -11.171875 C 37.898438 -11.796875 38.234375 -12.109375 38.828125 -12.109375 C 39.097656 -12.109375 39.234375 -11.960938 39.234375 -11.671875 L 38.140625 -0.46875 C 38.003906 -0.15625 37.847656 0 37.671875 0 L 0.5 0 C 0.320312 0 0.234375 -0.0859375 0.234375 -0.265625 Z M 0.234375 -0.265625 "/></g></g></g><g fill="#ccece8" fill-opacity="1"><g transform="translate(492.787264, 142.38259)"><g/></g></g><g fill="#ccece8" fill-opacity="1"><g transform="translate(511.135004, 142.38259)"><g><path d="M 13.3125 -1.0625 C 13.3125 -1.238281 13.410156 -1.328125 13.609375 -1.328125 L 14.546875 -1.328125 C 16.722656 -1.328125 18.472656 -1.796875 19.796875 -2.734375 C 21.117188 -3.671875 21.78125 -4.757812 21.78125 -6 L 21.78125 -42.9375 C 21.78125 -43.40625 21.6875 -43.664062 21.5 -43.71875 C 21.3125 -43.78125 21.082031 -43.832031 20.8125 -43.875 L 8 -43.875 C 5.9375 -43.425781 4.582031 -41.835938 3.9375 -39.109375 C 3.582031 -37.640625 3.367188 -36.695312 3.296875 -36.28125 C 3.234375 -35.875 3.113281 -35.671875 2.9375 -35.671875 L 2.328125 -35.671875 C 2.203125 -35.671875 2.140625 -35.710938 2.140625 -35.796875 L 2.140625 -36.90625 L 3.375 -47.3125 C 3.5 -48 3.71875 -48.34375 4.03125 -48.34375 C 4.34375 -48.34375 4.675781 -48.125 5.03125 -47.6875 C 5.394531 -47.257812 6.078125 -47.046875 7.078125 -47.046875 L 43.03125 -47.046875 C 43.988281 -47.046875 44.566406 -47.15625 44.765625 -47.375 C 44.972656 -47.59375 45.164062 -47.804688 45.34375 -48.015625 C 45.519531 -48.234375 45.742188 -48.34375 46.015625 -48.34375 C 46.296875 -48.34375 46.472656 -48.226562 46.546875 -48 C 46.628906 -47.78125 46.691406 -47.550781 46.734375 -47.3125 L 47.96875 -36.90625 L 47.96875 -35.796875 C 47.96875 -35.710938 47.90625 -35.671875 47.78125 -35.671875 L 47.171875 -35.671875 C 46.992188 -35.671875 46.875 -35.835938 46.8125 -36.171875 C 46.457031 -38.390625 45.941406 -40.148438 45.265625 -41.453125 C 44.597656 -42.753906 43.546875 -43.5625 42.109375 -43.875 L 29.265625 -43.875 C 28.992188 -43.832031 28.765625 -43.78125 28.578125 -43.71875 C 28.390625 -43.664062 28.296875 -43.40625 28.296875 -42.9375 L 28.296875 -6 C 28.296875 -4.757812 28.957031 -3.671875 30.28125 -2.734375 C 31.601562 -1.796875 33.351562 -1.328125 35.53125 -1.328125 L 36.5 -1.328125 C 36.675781 -1.328125 36.765625 -1.238281 36.765625 -1.0625 L 36.765625 -0.265625 C 36.765625 -0.0859375 36.675781 0 36.5 0 L 13.578125 0 C 13.398438 0 13.3125 -0.0859375 13.3125 -0.265625 Z M 13.3125 -1.0625 "/></g></g></g><g fill="#ccece8" fill-opacity="1"><g transform="translate(561.241034, 142.38259)"><g><path d="M 48.609375 -6.03125 C 48.609375 -3.03125 50.6875 -1.460938 54.84375 -1.328125 C 55.019531 -1.328125 55.109375 -1.238281 55.109375 -1.0625 L 55.109375 -0.265625 C 55.109375 -0.0859375 55.019531 0 54.84375 0 L 33.625 0 C 33.445312 0 33.359375 -0.0859375 33.359375 -0.265625 L 33.359375 -1.0625 C 33.359375 -1.238281 33.914062 -1.328125 35.03125 -1.328125 C 36.144531 -1.328125 37.410156 -1.570312 38.828125 -2.0625 C 41.015625 -2.78125 42.109375 -3.984375 42.109375 -5.671875 L 42.109375 -21.59375 C 42.109375 -21.8125 42.070312 -21.953125 42 -22.015625 C 41.9375 -22.085938 41.796875 -22.125 41.578125 -22.125 L 15.28125 -22.125 C 15.0625 -22.125 14.914062 -22.085938 14.84375 -22.015625 C 14.78125 -21.953125 14.75 -21.8125 14.75 -21.59375 L 14.75 -5.34375 C 14.75 -2.664062 16.71875 -1.328125 20.65625 -1.328125 C 20.832031 -1.328125 20.921875 -1.238281 20.921875 -1.0625 L 20.921875 -0.265625 C 20.921875 -0.0859375 20.84375 0 20.6875 0 L 2.265625 0 C 2.085938 0 2 -0.0859375 2 -0.265625 L 2 -1.0625 C 2 -1.238281 2.222656 -1.328125 2.671875 -1.328125 C 6.378906 -1.328125 8.234375 -2.921875 8.234375 -6.109375 L 8.234375 -41.703125 C 8.234375 -44.304688 6.691406 -45.6875 3.609375 -45.84375 C 3.140625 -45.863281 2.90625 -45.960938 2.90625 -46.140625 L 2.90625 -46.78125 C 2.90625 -46.957031 2.984375 -47.046875 3.140625 -47.046875 L 19.890625 -47.046875 C 20.066406 -47.046875 20.15625 -46.957031 20.15625 -46.78125 L 20.15625 -46.140625 C 20.15625 -46.003906 19.941406 -45.9375 19.515625 -45.9375 C 16.335938 -45.9375 14.75 -44.367188 14.75 -41.234375 L 14.75 -25.828125 C 14.75 -25.597656 14.78125 -25.453125 14.84375 -25.390625 C 14.914062 -25.328125 15.0625 -25.296875 15.28125 -25.296875 L 41.578125 -25.296875 C 41.796875 -25.296875 41.9375 -25.328125 42 -25.390625 C 42.070312 -25.453125 42.109375 -25.597656 42.109375 -25.828125 L 42.109375 -41.765625 C 42.054688 -41.972656 42.023438 -42.160156 42.015625 -42.328125 C 42.003906 -42.492188 41.96875 -42.753906 41.90625 -43.109375 C 41.75 -43.859375 40.957031 -44.472656 39.53125 -44.953125 C 38.113281 -45.429688 36.503906 -45.738281 34.703125 -45.875 C 34.523438 -45.875 34.4375 -45.960938 34.4375 -46.140625 L 34.4375 -46.78125 C 34.4375 -46.957031 34.515625 -47.046875 34.671875 -47.046875 L 53.921875 -47.046875 C 54.097656 -47.046875 54.1875 -46.957031 54.1875 -46.78125 L 54.1875 -46.140625 C 54.1875 -46.003906 53.972656 -45.9375 53.546875 -45.9375 C 50.253906 -45.9375 48.609375 -44.367188 48.609375 -41.234375 Z M 48.609375 -6.03125 "/></g></g></g><g fill="#ccece8" fill-opacity="1"><g transform="translate(618.352543, 142.38259)"><g><path d="M 0.234375 -0.265625 L 0.234375 -1.203125 C 0.234375 -1.378906 0.320312 -1.46875 0.5 -1.46875 L 1.234375 -1.46875 C 2.171875 -1.53125 3.128906 -1.566406 4.109375 -1.578125 C 5.085938 -1.585938 5.972656 -1.707031 6.765625 -1.9375 C 8.597656 -2.46875 9.515625 -3.800781 9.515625 -5.9375 L 9.515625 -41.109375 C 9.515625 -43.304688 8.210938 -44.707031 5.609375 -45.3125 C 4.867188 -45.46875 4.125 -45.597656 3.375 -45.703125 L 2.671875 -45.703125 C 2.492188 -45.703125 2.40625 -45.789062 2.40625 -45.96875 L 2.40625 -46.78125 C 2.40625 -46.957031 2.492188 -47.046875 2.671875 -47.046875 L 34.390625 -47.046875 C 34.796875 -47.046875 35.085938 -46.972656 35.265625 -46.828125 C 35.441406 -46.679688 35.550781 -46.363281 35.59375 -45.875 L 36.203125 -36.203125 C 36.203125 -35.972656 36.035156 -35.859375 35.703125 -35.859375 C 35.367188 -35.859375 35.125 -35.960938 34.96875 -36.171875 C 34.832031 -36.390625 34.65625 -37.195312 34.4375 -38.59375 C 34.226562 -40 33.847656 -41.164062 33.296875 -42.09375 C 32.742188 -43.03125 31.765625 -43.625 30.359375 -43.875 L 16.453125 -43.875 C 16.160156 -43.875 16.015625 -43.726562 16.015625 -43.4375 L 16.015625 -26.1875 C 16.015625 -25.96875 16.125 -25.859375 16.34375 -25.859375 L 27.890625 -25.859375 C 30.867188 -25.859375 32.359375 -27.59375 32.359375 -31.0625 C 32.359375 -31.238281 32.445312 -31.328125 32.625 -31.328125 L 33.4375 -31.328125 C 33.613281 -31.328125 33.703125 -31.238281 33.703125 -31.0625 L 33.703125 -16.78125 C 33.703125 -16.601562 33.613281 -16.515625 33.4375 -16.515625 L 32.625 -16.515625 C 32.445312 -16.515625 32.359375 -16.601562 32.359375 -16.78125 C 32.359375 -20.070312 31.40625 -21.972656 29.5 -22.484375 C 28.957031 -22.617188 28.390625 -22.6875 27.796875 -22.6875 L 16.34375 -22.6875 C 16.125 -22.6875 16.015625 -22.578125 16.015625 -22.359375 L 16.015625 -6.109375 C 16.015625 -4.441406 16.78125 -3.492188 18.3125 -3.265625 C 18.757812 -3.203125 19.226562 -3.171875 19.71875 -3.171875 L 30.828125 -3.171875 C 33.117188 -3.171875 34.898438 -4.179688 36.171875 -6.203125 C 37.078125 -7.648438 37.628906 -9.304688 37.828125 -11.171875 C 37.898438 -11.796875 38.234375 -12.109375 38.828125 -12.109375 C 39.097656 -12.109375 39.234375 -11.960938 39.234375 -11.671875 L 38.140625 -0.46875 C 38.003906 -0.15625 37.847656 0 37.671875 0 L 0.5 0 C 0.320312 0 0.234375 -0.0859375 0.234375 -0.265625 Z M 0.234375 -0.265625 "/></g></g></g><g fill="#ccece8" fill-opacity="1"><g transform="translate(225.539055, 206.132587)"><g><path d="M 16.71875 -1.328125 C 16.851562 -1.328125 16.921875 -1.238281 16.921875 -1.0625 L 16.921875 -0.265625 C 16.921875 -0.0859375 16.851562 0 16.71875 0 L 1.140625 0 C 0.960938 0 0.875 -0.0859375 0.875 -0.265625 L 0.875 -1.0625 C 0.875 -1.238281 0.960938 -1.328125 1.140625 -1.328125 C 4.785156 -1.328125 6.765625 -2.894531 7.078125 -6.03125 C 7.160156 -6.945312 7.25 -8.46875 7.34375 -10.59375 C 7.445312 -12.71875 7.742188 -17.285156 8.234375 -24.296875 C 8.722656 -31.316406 8.96875 -37 8.96875 -41.34375 L 8.96875 -42.578125 C 8.96875 -43.460938 8.460938 -44.203125 7.453125 -44.796875 C 6.441406 -45.398438 5.703125 -45.703125 5.234375 -45.703125 C 4.765625 -45.703125 4.53125 -45.789062 4.53125 -45.96875 L 4.53125 -46.78125 C 4.53125 -46.957031 4.617188 -47.046875 4.796875 -47.046875 L 14.453125 -47.046875 C 14.867188 -46.972656 15.210938 -46.726562 15.484375 -46.3125 L 31.125 -11.4375 C 31.238281 -11.28125 31.328125 -11.144531 31.390625 -11.03125 C 31.460938 -10.925781 31.628906 -10.878906 31.890625 -10.890625 C 32.160156 -10.898438 32.363281 -11.097656 32.5 -11.484375 L 47.96875 -45.703125 C 48.4375 -46.597656 48.863281 -47.046875 49.25 -47.046875 L 58.953125 -47.046875 C 59.128906 -47.046875 59.21875 -46.957031 59.21875 -46.78125 L 59.21875 -45.96875 C 59.21875 -45.789062 59.160156 -45.703125 59.046875 -45.703125 C 58.378906 -45.703125 57.554688 -45.484375 56.578125 -45.046875 C 55.085938 -44.378906 54.34375 -43.390625 54.34375 -42.078125 L 56.34375 -5.203125 C 56.394531 -4.046875 57 -3.109375 58.15625 -2.390625 C 59.3125 -1.679688 60.820312 -1.328125 62.6875 -1.328125 C 62.863281 -1.328125 62.953125 -1.238281 62.953125 -1.0625 L 62.953125 -0.265625 C 62.953125 -0.0859375 62.863281 0 62.6875 0 L 43.734375 0 C 43.554688 0 43.46875 -0.0859375 43.46875 -0.265625 L 43.46875 -1.0625 C 43.46875 -1.238281 43.554688 -1.328125 43.734375 -1.328125 C 47.722656 -1.328125 49.71875 -2.296875 49.71875 -4.234375 L 47.9375 -36.09375 C 47.914062 -36.320312 47.851562 -36.4375 47.75 -36.4375 C 47.65625 -36.4375 47.578125 -36.332031 47.515625 -36.125 L 30.921875 -0.234375 C 30.835938 -0.078125 30.582031 0 30.15625 0 C 29.738281 0 29.492188 -0.0859375 29.421875 -0.265625 L 13.078125 -36.234375 C 12.941406 -36.546875 12.8125 -36.703125 12.6875 -36.703125 C 12.570312 -36.703125 12.515625 -36.457031 12.515625 -35.96875 C 12.515625 -34.945312 12.242188 -30.117188 11.703125 -21.484375 C 11.171875 -12.859375 10.90625 -7.476562 10.90625 -5.34375 L 10.90625 -3.96875 C 11.175781 -2.695312 12.4375 -1.875 14.6875 -1.5 C 15.320312 -1.382812 16 -1.328125 16.71875 -1.328125 Z M 16.71875 -1.328125 "/></g></g></g><g fill="#ccece8" fill-opacity="1"><g transform="translate(289.88958, 206.132587)"><g><path d="M 17.75 -0.265625 C 17.75 -0.0859375 17.660156 0 17.484375 0 L 0.4375 0 C 0.257812 0 0.171875 -0.0859375 0.171875 -0.265625 L 0.171875 -1.0625 C 0.171875 -1.238281 0.3125 -1.328125 0.59375 -1.328125 C 3.644531 -1.460938 5.703125 -3.085938 6.765625 -6.203125 L 20.390625 -45.609375 C 20.410156 -45.648438 20.421875 -45.707031 20.421875 -45.78125 L 20.046875 -46.875 C 20.046875 -46.988281 20.09375 -47.046875 20.1875 -47.046875 L 26.859375 -47.046875 C 26.898438 -47.023438 26.957031 -47 27.03125 -46.96875 C 27.113281 -46.945312 27.175781 -46.882812 27.21875 -46.78125 L 41.34375 -7.171875 C 41.644531 -6.566406 41.890625 -6.019531 42.078125 -5.53125 C 42.273438 -5.039062 42.492188 -4.597656 42.734375 -4.203125 C 43.273438 -3.285156 44.15625 -2.585938 45.375 -2.109375 C 46.394531 -1.585938 47.328125 -1.328125 48.171875 -1.328125 C 48.347656 -1.328125 48.4375 -1.226562 48.4375 -1.03125 L 48.4375 -0.265625 C 48.4375 -0.0859375 48.347656 0 48.171875 0 L 27.765625 0 C 27.578125 0 27.484375 -0.0859375 27.484375 -0.265625 L 27.484375 -1.0625 C 27.484375 -1.238281 27.894531 -1.347656 28.71875 -1.390625 C 29.539062 -1.441406 30.222656 -1.488281 30.765625 -1.53125 C 33.859375 -1.863281 35.40625 -2.910156 35.40625 -4.671875 C 35.40625 -4.804688 35.378906 -4.960938 35.328125 -5.140625 L 30.296875 -19.34375 C 30.273438 -19.394531 30.226562 -19.5 30.15625 -19.65625 C 29.894531 -20.40625 29.429688 -20.78125 28.765625 -20.78125 L 16.921875 -20.78125 C 16.253906 -20.78125 15.726562 -20.414062 15.34375 -19.6875 C 15.28125 -19.53125 15.25 -19.441406 15.25 -19.421875 L 10.25 -4.765625 L 10.25 -4.46875 C 10.25 -3.894531 10.546875 -3.375 11.140625 -2.90625 C 12.492188 -1.851562 14.316406 -1.328125 16.609375 -1.328125 L 17.484375 -1.328125 C 17.660156 -1.328125 17.75 -1.238281 17.75 -1.0625 Z M 27.625 -24.484375 C 28.019531 -24.484375 28.21875 -24.648438 28.21875 -24.984375 C 28.21875 -25.160156 28.175781 -25.363281 28.09375 -25.59375 L 23.125 -39.265625 C 22.894531 -39.867188 22.726562 -40.171875 22.625 -40.171875 C 22.507812 -40.171875 22.332031 -39.859375 22.09375 -39.234375 L 17.421875 -25.59375 C 17.328125 -25.363281 17.28125 -25.117188 17.28125 -24.859375 C 17.28125 -24.609375 17.445312 -24.484375 17.78125 -24.484375 Z M 27.625 -24.484375 "/></g></g></g><g fill="#ccece8" fill-opacity="1"><g transform="translate(338.494409, 206.132587)"><g><path d="M 52.046875 -20.6875 C 52.285156 -20.6875 52.40625 -20.515625 52.40625 -20.171875 C 52.40625 -19.828125 52.285156 -19.585938 52.046875 -19.453125 C 51.441406 -19.203125 50.820312 -18.988281 50.1875 -18.8125 C 49.5625 -18.632812 48.976562 -18.398438 48.4375 -18.109375 C 47.21875 -17.441406 46.609375 -16.363281 46.609375 -14.875 L 46.609375 -4.03125 C 46.609375 -3.539062 45.429688 -2.882812 43.078125 -2.0625 C 40.734375 -1.238281 38.828125 -0.640625 37.359375 -0.265625 C 30.492188 1.421875 24.359375 1.242188 18.953125 -0.796875 C 12.742188 -3.179688 8.347656 -7.441406 5.765625 -13.578125 C 4.484375 -16.648438 3.84375 -19.703125 3.84375 -22.734375 C 3.84375 -25.773438 4.140625 -28.328125 4.734375 -30.390625 C 6.554688 -36.710938 10.382812 -41.570312 16.21875 -44.96875 C 20.019531 -47.195312 24.015625 -48.3125 28.203125 -48.3125 C 32.398438 -48.3125 36.859375 -47.46875 41.578125 -45.78125 C 42.441406 -45.46875 42.925781 -45.3125 43.03125 -45.3125 L 43.4375 -45.3125 L 44.78125 -45.640625 L 45.609375 -45.640625 C 45.847656 -45.640625 45.96875 -45.519531 45.96875 -45.28125 L 45.96875 -34.171875 C 45.96875 -33.742188 45.722656 -33.53125 45.234375 -33.53125 L 45.109375 -33.53125 C 44.679688 -33.570312 44.390625 -34.140625 44.234375 -35.234375 C 44.191406 -35.453125 44.160156 -35.617188 44.140625 -35.734375 C 41.910156 -42.691406 37.21875 -46.171875 30.0625 -46.171875 C 24.320312 -46.171875 19.742188 -44 16.328125 -39.65625 C 12.910156 -35.320312 11.203125 -30.164062 11.203125 -24.1875 C 11.203125 -18.207031 12.921875 -12.921875 16.359375 -8.328125 C 19.796875 -3.734375 24.519531 -1.4375 30.53125 -1.4375 C 33.625 -1.4375 36.171875 -1.914062 38.171875 -2.875 C 38.941406 -3.25 39.539062 -3.722656 39.96875 -4.296875 L 39.96875 -13.453125 C 39.96875 -15.515625 39.378906 -17.03125 38.203125 -18 C 37.023438 -18.96875 34.851562 -19.453125 31.6875 -19.453125 C 31.445312 -19.453125 31.328125 -19.65625 31.328125 -20.0625 C 31.328125 -20.476562 31.445312 -20.6875 31.6875 -20.6875 Z M 52.046875 -20.6875 "/></g></g></g><g fill="#ccece8" fill-opacity="1"><g transform="translate(392.570201, 206.132587)"><g><path d="M 8.40625 -41.703125 C 8.40625 -44.367188 6.867188 -45.703125 3.796875 -45.703125 C 3.304688 -45.703125 3.0625 -45.789062 3.0625 -45.96875 L 3.0625 -46.78125 C 3.0625 -46.957031 3.15625 -47.046875 3.34375 -47.046875 L 20.046875 -47.046875 C 20.222656 -47.046875 20.3125 -46.957031 20.3125 -46.78125 L 20.3125 -45.96875 C 20.3125 -45.789062 19.820312 -45.703125 18.84375 -45.703125 C 17.863281 -45.703125 16.960938 -45.390625 16.140625 -44.765625 C 15.316406 -44.148438 14.90625 -42.875 14.90625 -40.9375 L 14.90625 -5.34375 C 14.90625 -2.664062 16.453125 -1.328125 19.546875 -1.328125 C 20.015625 -1.328125 20.25 -1.238281 20.25 -1.0625 L 20.25 -0.265625 C 20.25 -0.0859375 20.160156 0 19.984375 0 L 3.265625 0 C 3.085938 0 3 -0.0859375 3 -0.265625 L 3 -1.0625 C 3 -1.238281 3.488281 -1.328125 4.46875 -1.328125 C 5.445312 -1.328125 6.347656 -1.640625 7.171875 -2.265625 C 7.992188 -2.890625 8.40625 -4.171875 8.40625 -6.109375 Z M 8.40625 -41.703125 "/></g></g></g><g fill="#ccece8" fill-opacity="1"><g transform="translate(415.88851, 206.132587)"><g><path d="M 44.875 -1.265625 C 44.757812 -1.085938 44.484375 -1.046875 44.046875 -1.140625 C 43.617188 -1.242188 43.113281 -1.296875 42.53125 -1.296875 C 41.957031 -1.296875 41.140625 -1.175781 40.078125 -0.9375 C 39.023438 -0.707031 37.363281 -0.34375 35.09375 0.15625 C 32.820312 0.65625 30.753906 0.90625 28.890625 0.90625 C 24.660156 0.90625 20.5625 -0.0859375 16.59375 -2.078125 C 12.625 -4.078125 9.445312 -6.90625 7.0625 -10.5625 C 4.6875 -14.21875 3.5 -18.457031 3.5 -23.28125 C 3.5 -28.113281 4.691406 -32.488281 7.078125 -36.40625 C 10.546875 -42.132812 15.769531 -45.867188 22.75 -47.609375 C 24.976562 -48.160156 27.203125 -48.4375 29.421875 -48.4375 C 32.472656 -48.4375 36.085938 -47.925781 40.265625 -46.90625 C 41.535156 -46.59375 42.609375 -46.269531 43.484375 -45.9375 C 44.367188 -45.601562 44.910156 -45.4375 45.109375 -45.4375 L 46.109375 -45.703125 L 47.140625 -45.703125 C 47.410156 -45.703125 47.546875 -45.515625 47.546875 -45.140625 L 47.546875 -34.765625 C 47.546875 -34.546875 47.34375 -34.4375 46.9375 -34.4375 C 46.539062 -34.4375 46.304688 -34.484375 46.234375 -34.578125 C 46.171875 -34.679688 46.101562 -34.804688 46.03125 -34.953125 C 45.96875 -35.097656 45.894531 -35.242188 45.8125 -35.390625 C 45.738281 -35.546875 45.660156 -35.691406 45.578125 -35.828125 C 45.503906 -35.960938 45.457031 -36.0625 45.4375 -36.125 C 42.101562 -42.820312 37.046875 -46.171875 30.265625 -46.171875 C 24.140625 -46.171875 19.351562 -44.222656 15.90625 -40.328125 C 12.46875 -36.441406 10.75 -31.289062 10.75 -24.875 C 10.75 -18.457031 12.644531 -12.945312 16.4375 -8.34375 C 20.226562 -3.738281 25.378906 -1.4375 31.890625 -1.4375 C 35.453125 -1.4375 38.695312 -2.492188 41.625 -4.609375 C 44.550781 -6.722656 46.847656 -9.3125 48.515625 -12.375 C 48.554688 -12.507812 48.6875 -12.578125 48.90625 -12.578125 L 49.34375 -12.578125 C 49.5625 -12.578125 49.671875 -12.441406 49.671875 -12.171875 C 49.671875 -11.910156 49.609375 -11.65625 49.484375 -11.40625 Z M 44.875 -1.265625 "/></g></g></g><g fill="#ccece8" fill-opacity="1"><g transform="translate(468.129527, 206.132587)"><g/></g></g><g fill="#ccece8" fill-opacity="1"><g transform="translate(486.477267, 206.132587)"><g><path d="M 42.765625 -2.875 C 40.835938 -1.6875 38.726562 -0.757812 36.4375 -0.09375 C 34.144531 0.570312 32.109375 0.90625 30.328125 0.90625 C 26.679688 0.90625 23.203125 0.3125 19.890625 -0.875 C 15.347656 -2.519531 11.695312 -4.953125 8.9375 -8.171875 C 5.425781 -12.285156 3.671875 -17.503906 3.671875 -23.828125 C 3.671875 -28.378906 4.835938 -32.53125 7.171875 -36.28125 C 9.503906 -40.03125 12.734375 -42.992188 16.859375 -45.171875 C 20.984375 -47.347656 25.421875 -48.4375 30.171875 -48.4375 C 34.921875 -48.4375 39.175781 -47.378906 42.9375 -45.265625 C 46.695312 -43.160156 49.710938 -40.257812 51.984375 -36.5625 C 54.253906 -32.875 55.390625 -28.875 55.390625 -24.5625 C 55.390625 -20.257812 54.265625 -16.164062 52.015625 -12.28125 C 49.765625 -8.40625 46.679688 -5.269531 42.765625 -2.875 Z M 10.671875 -24.875 C 10.671875 -21.1875 11.488281 -17.523438 13.125 -13.890625 C 14.757812 -10.253906 17.097656 -7.289062 20.140625 -5 C 23.191406 -2.707031 26.722656 -1.5625 30.734375 -1.5625 C 36.421875 -1.5625 40.859375 -3.742188 44.046875 -8.109375 C 46.910156 -12.046875 48.34375 -17.070312 48.34375 -23.1875 C 48.34375 -29.300781 46.585938 -34.570312 43.078125 -39 C 41.359375 -41.15625 39.257812 -42.882812 36.78125 -44.1875 C 34.300781 -45.488281 31.796875 -46.140625 29.265625 -46.140625 C 26.742188 -46.140625 24.675781 -45.859375 23.0625 -45.296875 C 21.457031 -44.742188 20 -43.984375 18.6875 -43.015625 C 17.375 -42.054688 16.21875 -40.90625 15.21875 -39.5625 C 14.21875 -38.226562 13.382812 -36.785156 12.71875 -35.234375 C 11.351562 -32.023438 10.671875 -28.570312 10.671875 -24.875 Z M 10.671875 -24.875 "/></g></g></g><g fill="#ccece8" fill-opacity="1"><g transform="translate(545.523628, 206.132587)"><g><path d="M 28.625 -26.984375 C 31.601562 -26.984375 33.09375 -28.441406 33.09375 -31.359375 C 33.09375 -31.535156 33.179688 -31.625 33.359375 -31.625 L 34.171875 -31.625 C 34.347656 -31.625 34.4375 -31.535156 34.4375 -31.359375 L 34.4375 -18.953125 C 34.4375 -18.773438 34.347656 -18.6875 34.171875 -18.6875 L 33.359375 -18.6875 C 33.179688 -18.6875 33.09375 -18.773438 33.09375 -18.953125 C 33.09375 -20.992188 32.515625 -22.40625 31.359375 -23.1875 C 30.734375 -23.613281 29.84375 -23.828125 28.6875 -23.828125 L 15.546875 -23.828125 C 15.015625 -23.828125 14.75 -23.523438 14.75 -22.921875 L 14.75 -5.765625 C 14.75 -4.253906 15.65625 -3.132812 17.46875 -2.40625 C 19.28125 -1.6875 20.425781 -1.328125 20.90625 -1.328125 C 21.382812 -1.328125 21.625 -1.238281 21.625 -1.0625 L 21.625 -0.265625 C 21.625 -0.0859375 21.535156 0 21.359375 0 L 3.140625 0 C 2.960938 0 2.875 -0.0859375 2.875 -0.265625 L 2.875 -1.0625 C 2.875 -1.238281 3.0625 -1.328125 3.4375 -1.328125 C 3.8125 -1.328125 4.398438 -1.503906 5.203125 -1.859375 C 6.003906 -2.222656 6.707031 -2.753906 7.3125 -3.453125 C 7.925781 -4.148438 8.234375 -5 8.234375 -6 L 8.234375 -42.03125 C 8.234375 -43.476562 7.46875 -44.515625 5.9375 -45.140625 C 5.050781 -45.515625 4.171875 -45.703125 3.296875 -45.703125 L 3.171875 -45.703125 C 2.992188 -45.703125 2.90625 -45.789062 2.90625 -45.96875 L 2.90625 -46.78125 C 2.90625 -46.957031 2.992188 -47.046875 3.171875 -47.046875 L 34.625 -47.046875 C 34.894531 -46.992188 35.097656 -46.925781 35.234375 -46.84375 C 35.367188 -46.769531 35.4375 -46.582031 35.4375 -46.28125 L 35.4375 -38.203125 C 35.4375 -37.929688 35.394531 -37.757812 35.3125 -37.6875 C 35.238281 -37.625 35.097656 -37.59375 34.890625 -37.59375 L 34.5 -37.59375 C 34.457031 -37.625 34.304688 -38.234375 34.046875 -39.421875 C 33.785156 -40.609375 33.390625 -41.523438 32.859375 -42.171875 C 31.953125 -43.148438 30.921875 -43.695312 29.765625 -43.8125 C 29.296875 -43.851562 28.726562 -43.875 28.0625 -43.875 L 15.40625 -43.875 C 14.96875 -43.875 14.75 -43.648438 14.75 -43.203125 L 14.75 -27.765625 C 14.75 -27.242188 15.015625 -26.984375 15.546875 -26.984375 Z M 28.625 -26.984375 "/></g></g></g><g fill="#ffffff" fill-opacity="1"><g transform="translate(114.281959, 430.038718)"><g><path d="M 36.339844 10.175781 L 109.023438 10.175781 C 127.339844 10.175781 138.09375 -0.582031 138.09375 -18.898438 L 138.09375 -91.578125 C 138.09375 -109.894531 127.339844 -120.652344 109.023438 -120.652344 L 36.339844 -120.652344 C 18.023438 -120.652344 7.269531 -109.894531 7.269531 -91.578125 L 7.269531 -18.898438 C 7.269531 -0.582031 18.023438 10.175781 36.339844 10.175781 Z M 50.730469 -18.460938 L 50.730469 -93.757812 L 98.410156 -93.757812 L 98.410156 -83.582031 L 62.941406 -83.582031 L 62.941406 -60.179688 L 92.886719 -60.179688 L 92.886719 -50.730469 L 62.941406 -50.730469 L 62.941406 -18.460938 Z M 50.730469 -18.460938 "/></g></g></g><g fill="#ffffff" fill-opacity="1"><g transform="translate(259.6383, 430.038718)"><g><path d="M 36.339844 10.175781 L 109.023438 10.175781 C 127.339844 10.175781 138.09375 -0.582031 138.09375 -18.898438 L 138.09375 -91.578125 C 138.09375 -109.894531 127.339844 -120.652344 109.023438 -120.652344 L 36.339844 -120.652344 C 18.023438 -120.652344 7.269531 -109.894531 7.269531 -91.578125 L 7.269531 -18.898438 C 7.269531 -0.582031 18.023438 10.175781 36.339844 10.175781 Z M 72.683594 -16.714844 C 51.894531 -16.714844 37.214844 -31.980469 37.214844 -56.402344 C 37.214844 -80.96875 51.894531 -95.503906 72.683594 -95.503906 C 93.46875 -95.503906 108.003906 -80.820312 108.003906 -56.402344 C 108.003906 -31.980469 93.46875 -16.714844 72.683594 -16.714844 Z M 72.683594 -27.039062 C 86.492188 -27.039062 95.359375 -38.375 95.359375 -56.402344 C 95.359375 -74.425781 86.492188 -85.183594 72.683594 -85.183594 C 58.871094 -85.183594 49.859375 -74.425781 49.859375 -56.402344 C 49.859375 -38.375 58.871094 -27.039062 72.683594 -27.039062 Z M 72.683594 -27.039062 "/></g></g></g><g fill="#ffffff" fill-opacity="1"><g transform="translate(404.99464, 430.038718)"><g><path d="M 36.339844 10.175781 L 109.023438 10.175781 C 127.339844 10.175781 138.09375 -0.582031 138.09375 -18.898438 L 138.09375 -91.578125 C 138.09375 -109.894531 127.339844 -120.652344 109.023438 -120.652344 L 36.339844 -120.652344 C 18.023438 -120.652344 7.269531 -109.894531 7.269531 -91.578125 L 7.269531 -18.898438 C 7.269531 -0.582031 18.023438 10.175781 36.339844 10.175781 Z M 43.171875 -18.460938 L 43.171875 -93.757812 L 55.527344 -93.757812 L 83.003906 -49.421875 L 91.871094 -33.289062 L 92.449219 -33.289062 C 91.722656 -40.847656 90.851562 -50.441406 90.851562 -58.726562 L 90.851562 -93.757812 L 102.191406 -93.757812 L 102.191406 -18.460938 L 89.835938 -18.460938 L 62.359375 -62.652344 L 53.492188 -79.078125 L 52.914062 -79.078125 C 53.492188 -71.082031 54.367188 -61.925781 54.367188 -53.785156 L 54.367188 -18.460938 Z M 43.171875 -18.460938 "/></g></g></g><g fill="#ffffff" fill-opacity="1"><g transform="translate(550.351004, 430.038718)"><g><path d="M 36.339844 10.175781 L 109.023438 10.175781 C 127.339844 10.175781 138.09375 -0.582031 138.09375 -18.898438 L 138.09375 -91.578125 C 138.09375 -109.894531 127.339844 -120.652344 109.023438 -120.652344 L 36.339844 -120.652344 C 18.023438 -120.652344 7.269531 -109.894531 7.269531 -91.578125 L 7.269531 -18.898438 C 7.269531 -0.582031 18.023438 10.175781 36.339844 10.175781 Z M 66.429688 -18.460938 L 66.429688 -83.582031 L 42.738281 -83.582031 L 42.738281 -93.757812 L 102.625 -93.757812 L 102.625 -83.582031 L 78.785156 -83.582031 L 78.785156 -18.460938 Z M 66.429688 -18.460938 "/></g></g></g><g fill="#ffffff" fill-opacity="1"><g transform="translate(41.597861, 566.162476)"><g><path d="M 36.339844 10.175781 L 109.023438 10.175781 C 127.339844 10.175781 138.09375 -0.582031 138.09375 -18.898438 L 138.09375 -91.578125 C 138.09375 -109.894531 127.339844 -120.652344 109.023438 -120.652344 L 36.339844 -120.652344 C 18.023438 -120.652344 7.269531 -109.894531 7.269531 -91.578125 L 7.269531 -18.898438 C 7.269531 -0.582031 18.023438 10.175781 36.339844 10.175781 Z M 78.640625 -16.714844 C 58.289062 -16.714844 42.738281 -30.816406 42.738281 -55.964844 C 42.738281 -80.675781 58.726562 -95.503906 79.660156 -95.503906 C 89.398438 -95.503906 97.25 -90.996094 102.191406 -86.054688 L 95.359375 -78.351562 C 91.144531 -82.566406 86.347656 -85.183594 79.804688 -85.183594 C 65.121094 -85.183594 55.382812 -74.28125 55.382812 -56.253906 C 55.382812 -37.941406 64.542969 -27.039062 79.222656 -27.039062 C 86.78125 -27.039062 92.304688 -29.800781 97.101562 -35.03125 L 103.933594 -27.765625 C 97.25 -20.351562 89.109375 -16.714844 78.640625 -16.714844 Z M 78.640625 -16.714844 "/></g></g></g><g fill="#ffffff" fill-opacity="1"><g transform="translate(186.954202, 566.162476)"><g><path d="M 36.339844 10.175781 L 109.023438 10.175781 C 127.339844 10.175781 138.09375 -0.582031 138.09375 -18.898438 L 138.09375 -91.578125 C 138.09375 -109.894531 127.339844 -120.652344 109.023438 -120.652344 L 36.339844 -120.652344 C 18.023438 -120.652344 7.269531 -109.894531 7.269531 -91.578125 L 7.269531 -18.898438 C 7.269531 -0.582031 18.023438 10.175781 36.339844 10.175781 Z M 45.789062 -18.460938 L 45.789062 -93.757812 L 71.953125 -93.757812 C 88.671875 -93.757812 101.027344 -88.089844 101.027344 -71.808594 C 101.027344 -60.324219 94.195312 -53.203125 83.4375 -50.441406 L 103.5 -18.460938 L 90.5625 -18.460938 L 71.953125 -48.695312 L 58.144531 -48.695312 L 58.144531 -18.460938 Z M 58.144531 -57.417969 L 70.5 -57.417969 C 83.003906 -57.417969 89.253906 -62.214844 89.253906 -71.082031 C 89.253906 -80.53125 82.566406 -84.019531 70.5 -84.019531 L 58.144531 -84.019531 Z M 58.144531 -57.417969 "/></g></g></g><g fill="#ffffff" fill-opacity="1"><g transform="translate(332.310542, 566.162476)"><g><path d="M 36.339844 10.175781 L 109.023438 10.175781 C 127.339844 10.175781 138.09375 -0.582031 138.09375 -18.898438 L 138.09375 -91.578125 C 138.09375 -109.894531 127.339844 -120.652344 109.023438 -120.652344 L 36.339844 -120.652344 C 18.023438 -120.652344 7.269531 -109.894531 7.269531 -91.578125 L 7.269531 -18.898438 C 7.269531 -0.582031 18.023438 10.175781 36.339844 10.175781 Z M 50.730469 -18.460938 L 50.730469 -93.757812 L 98.265625 -93.757812 L 98.265625 -84.019531 L 62.941406 -84.019531 L 62.941406 -62.507812 L 92.886719 -62.507812 L 92.886719 -53.058594 L 62.941406 -53.058594 L 62.941406 -28.199219 L 99.71875 -28.199219 L 99.71875 -18.460938 Z M 50.730469 -18.460938 "/></g></g></g><g fill="#ffffff" fill-opacity="1"><g transform="translate(477.666906, 566.162476)"><g><path d="M 36.339844 10.175781 L 109.023438 10.175781 C 127.339844 10.175781 138.09375 -0.582031 138.09375 -18.898438 L 138.09375 -91.578125 C 138.09375 -109.894531 127.339844 -120.652344 109.023438 -120.652344 L 36.339844 -120.652344 C 18.023438 -120.652344 7.269531 -109.894531 7.269531 -91.578125 L 7.269531 -18.898438 C 7.269531 -0.582031 18.023438 10.175781 36.339844 10.175781 Z M 38.8125 -18.460938 L 65.703125 -93.757812 L 79.515625 -93.757812 L 106.40625 -18.460938 L 93.613281 -18.460938 L 86.492188 -39.539062 L 58.144531 -39.539062 L 51.023438 -18.460938 Z M 60.90625 -48.84375 L 83.730469 -48.84375 L 80.242188 -59.308594 C 79.660156 -61.632812 73.410156 -81.695312 72.683594 -83.875 L 72.101562 -83.875 C 69.484375 -75.589844 67.304688 -67.738281 64.6875 -59.308594 Z M 60.90625 -48.84375 "/></g></g></g><g fill="#ffffff" fill-opacity="1"><g transform="translate(623.023223, 566.162476)"><g><path d="M 36.339844 10.175781 L 109.023438 10.175781 C 127.339844 10.175781 138.09375 -0.582031 138.09375 -18.898438 L 138.09375 -91.578125 C 138.09375 -109.894531 127.339844 -120.652344 109.023438 -120.652344 L 36.339844 -120.652344 C 18.023438 -120.652344 7.269531 -109.894531 7.269531 -91.578125 L 7.269531 -18.898438 C 7.269531 -0.582031 18.023438 10.175781 36.339844 10.175781 Z M 66.429688 -18.460938 L 66.429688 -83.582031 L 42.738281 -83.582031 L 42.738281 -93.757812 L 102.625 -93.757812 L 102.625 -83.582031 L 78.785156 -83.582031 L 78.785156 -18.460938 Z M 66.429688 -18.460938 "/></g></g></g><g fill="#ffffff" fill-opacity="1"><g transform="translate(41.597861, 702.286234)"><g><path d="M 36.339844 10.175781 L 109.023438 10.175781 C 127.339844 10.175781 138.09375 -0.582031 138.09375 -18.898438 L 138.09375 -91.578125 C 138.09375 -109.894531 127.339844 -120.652344 109.023438 -120.652344 L 36.339844 -120.652344 C 18.023438 -120.652344 7.269531 -109.894531 7.269531 -91.578125 L 7.269531 -18.898438 C 7.269531 -0.582031 18.023438 10.175781 36.339844 10.175781 Z M 66.578125 -18.460938 L 66.578125 -93.757812 L 78.785156 -93.757812 L 78.785156 -18.460938 Z M 66.578125 -18.460938 "/></g></g></g><g fill="#ffffff" fill-opacity="1"><g transform="translate(186.954202, 702.286234)"><g><path d="M 36.339844 10.175781 L 109.023438 10.175781 C 127.339844 10.175781 138.09375 -0.582031 138.09375 -18.898438 L 138.09375 -91.578125 C 138.09375 -109.894531 127.339844 -120.652344 109.023438 -120.652344 L 36.339844 -120.652344 C 18.023438 -120.652344 7.269531 -109.894531 7.269531 -91.578125 L 7.269531 -18.898438 C 7.269531 -0.582031 18.023438 10.175781 36.339844 10.175781 Z M 65.558594 -18.460938 L 39.976562 -93.757812 L 52.765625 -93.757812 L 64.976562 -54.949219 C 67.738281 -46.082031 69.917969 -38.957031 72.535156 -30.234375 L 73.117188 -30.234375 C 76.023438 -38.957031 77.914062 -46.082031 80.675781 -54.949219 L 92.742188 -93.757812 L 104.953125 -93.757812 L 79.660156 -18.460938 Z M 65.558594 -18.460938 "/></g></g></g><g fill="#ffffff" fill-opacity="1"><g transform="translate(332.310542, 702.286234)"><g><path d="M 36.339844 10.175781 L 109.023438 10.175781 C 127.339844 10.175781 138.09375 -0.582031 138.09375 -18.898438 L 138.09375 -91.578125 C 138.09375 -109.894531 127.339844 -120.652344 109.023438 -120.652344 L 36.339844 -120.652344 C 18.023438 -120.652344 7.269531 -109.894531 7.269531 -91.578125 L 7.269531 -18.898438 C 7.269531 -0.582031 18.023438 10.175781 36.339844 10.175781 Z M 66.578125 -18.460938 L 66.578125 -93.757812 L 78.785156 -93.757812 L 78.785156 -18.460938 Z M 66.578125 -18.460938 "/></g></g></g><g fill="#ffffff" fill-opacity="1"><g transform="translate(477.666906, 702.286234)"><g><path d="M 36.339844 10.175781 L 109.023438 10.175781 C 127.339844 10.175781 138.09375 -0.582031 138.09375 -18.898438 L 138.09375 -91.578125 C 138.09375 -109.894531 127.339844 -120.652344 109.023438 -120.652344 L 36.339844 -120.652344 C 18.023438 -120.652344 7.269531 -109.894531 7.269531 -91.578125 L 7.269531 -18.898438 C 7.269531 -0.582031 18.023438 10.175781 36.339844 10.175781 Z M 66.429688 -18.460938 L 66.429688 -83.582031 L 42.738281 -83.582031 L 42.738281 -93.757812 L 102.625 -93.757812 L 102.625 -83.582031 L 78.785156 -83.582031 L 78.785156 -18.460938 Z M 66.429688 -18.460938 "/></g></g></g><g fill="#ffffff" fill-opacity="1"><g transform="translate(623.023223, 702.286234)"><g><path d="M 66.285156 -18.460938 L 66.285156 -46.953125 L 42.15625 -93.757812 L 55.09375 -93.757812 L 64.6875 -73.988281 C 67.15625 -68.320312 69.628906 -63.085938 72.390625 -57.417969 L 72.972656 -57.417969 L 80.675781 -73.988281 L 90.125 -93.757812 L 102.917969 -93.757812 L 78.640625 -46.953125 L 78.640625 -18.460938 Z M 109.023438 10.175781 C 127.339844 10.175781 138.09375 -0.582031 138.09375 -18.898438 L 138.09375 -91.578125 C 138.09375 -109.894531 127.339844 -120.652344 109.023438 -120.652344 L 36.339844 -120.652344 C 18.023438 -120.652344 7.269531 -109.894531 7.269531 -91.578125 L 7.269531 -18.898438 C 7.269531 -0.582031 18.023438 10.175781 36.339844 10.175781 Z M 109.023438 10.175781 "/></g></g></g></svg>