<svg xmlns="http://www.w3.org/2000/svg" xmlns:xlink="http://www.w3.org/1999/xlink" width="1080" zoomAndPan="magnify" viewBox="0 0 810 809.999993" height="1080" preserveAspectRatio="xMidYMid meet" version="1.0"><defs><g/><clipPath id="1adf6268cb"><path d="M 322.101562 322.101562 L 487.898438 322.101562 L 487.898438 487.898438 L 322.101562 487.898438 Z M 322.101562 322.101562 " clip-rule="nonzero"/></clipPath><clipPath id="af37326616"><path d="M 405 487.898438 L 322.101562 405 L 363.550781 405 L 363.550781 322.101562 L 446.449219 322.101562 L 446.449219 405 L 487.898438 405 L 405 487.898438 " clip-rule="nonzero"/></clipPath></defs><rect x="-81" width="972" fill="#ffffff" y="-80.999999" height="971.999992" fill-opacity="1"/><rect x="-81" width="972" fill="#ffffff" y="-80.999999" height="971.999992" fill-opacity="1"/><rect x="-81" width="972" fill="#ccece8" y="-80.999999" height="971.999992" fill-opacity="1"/><path fill="#37d399" d="M -19.5 405 L 810 405 L 810 810 L -19.5 810 Z M -19.5 405 " fill-opacity="1" fill-rule="nonzero"/><g fill="#039e8e" fill-opacity="1"><g transform="translate(153.610352, 170.585973)"><g><path d="M 17.613281 0 L 23.332031 0 L 23.332031 -40.035156 L 38.671875 -40.035156 L 38.671875 -45.496094 L 2.210938 -45.496094 L 2.210938 -40.035156 L 17.613281 -40.035156 Z M 17.613281 0 "/></g></g></g><g fill="#039e8e" fill-opacity="1"><g transform="translate(194.555469, 170.585973)"><g><path d="M 6.042969 0 L 11.503906 0 L 11.503906 -17.222656 C 11.503906 -24.632812 15.988281 -29.378906 22.359375 -29.378906 C 28.207031 -29.378906 31.847656 -25.21875 31.847656 -18.457031 L 31.847656 0 L 37.308594 0 L 37.308594 -18.980469 C 37.308594 -28.597656 31.976562 -34.578125 23.074219 -34.578125 C 18.71875 -34.578125 14.429688 -32.953125 11.503906 -29.3125 L 11.503906 -48.097656 L 6.042969 -48.097656 Z M 6.042969 0 "/></g></g></g><g fill="#039e8e" fill-opacity="1"><g transform="translate(237.255375, 170.585973)"><g><path d="M 20.667969 0.84375 C 28.273438 0.84375 34.511719 -3.25 37.242188 -9.8125 L 31.066406 -9.8125 C 28.988281 -6.238281 25.152344 -4.289062 20.734375 -4.289062 C 14.300781 -4.289062 9.75 -8.320312 8.90625 -14.6875 L 38.085938 -14.6875 C 38.476562 -26.453125 31.523438 -34.578125 20.734375 -34.578125 C 10.527344 -34.578125 3.378906 -27.296875 3.378906 -16.898438 C 3.378906 -6.433594 10.464844 0.84375 20.667969 0.84375 Z M 8.96875 -19.5 C 9.945312 -25.476562 14.492188 -29.441406 20.734375 -29.441406 C 26.90625 -29.441406 31.457031 -25.671875 32.628906 -19.5 Z M 8.96875 -19.5 "/></g></g></g><g fill="#039e8e" fill-opacity="1"><g transform="translate(278.590449, 170.585973)"><g/></g></g><g fill="#039e8e" fill-opacity="1"><g transform="translate(294.708524, 170.585973)"><g><path d="M 6.628906 0 L 12.347656 0 L 12.347656 -34.835938 L 27.429688 -12.089844 L 32.109375 -12.089844 L 47.1875 -34.773438 L 47.1875 0 L 52.90625 0 L 52.90625 -45.496094 L 47.578125 -45.496094 L 29.832031 -18.523438 L 11.960938 -45.496094 L 6.628906 -45.496094 Z M 6.628906 0 "/></g></g></g><g fill="#039e8e" fill-opacity="1"><g transform="translate(354.241431, 170.585973)"><g><path d="M 17.09375 0.519531 C 22.554688 0.519531 26.84375 -1.234375 29.898438 -4.679688 L 30.484375 0 L 34.96875 0 L 34.96875 -21.449219 C 34.96875 -29.246094 29.054688 -34.578125 20.214844 -34.578125 C 12.867188 -34.578125 7.34375 -30.613281 5.847656 -24.113281 L 11.375 -24.113281 C 12.480469 -27.429688 15.921875 -29.507812 20.277344 -29.507812 C 25.996094 -29.507812 29.507812 -26.324219 29.507812 -21.058594 L 29.507812 -19.824219 L 15.730469 -19.824219 C 8.710938 -19.824219 4.09375 -15.859375 4.09375 -9.75 C 4.09375 -3.378906 8.96875 0.519531 17.09375 0.519531 Z M 9.554688 -9.8125 C 9.554688 -13 12.152344 -15.015625 15.921875 -15.015625 L 29.574219 -15.015625 C 29.378906 -8.773438 24.308594 -4.355469 17.289062 -4.355469 C 12.542969 -4.355469 9.554688 -6.5 9.554688 -9.8125 Z M 9.554688 -9.8125 "/></g></g></g><g fill="#039e8e" fill-opacity="1"><g transform="translate(394.536626, 170.585973)"><g><path d="M 21.125 13.84375 C 31.199219 13.84375 37.761719 7.605469 37.761719 -1.949219 L 37.761719 -33.730469 L 33.277344 -33.730469 L 32.691406 -29.183594 C 29.703125 -32.5625 25.28125 -34.578125 20.214844 -34.578125 C 10.59375 -34.578125 3.378906 -27.296875 3.378906 -17.484375 C 3.378906 -7.605469 10.59375 -0.324219 20.214844 -0.324219 C 25.089844 -0.324219 29.3125 -2.210938 32.300781 -5.328125 L 32.300781 -2.144531 C 32.300781 4.808594 28.207031 8.773438 21.125 8.773438 C 15.597656 8.773438 11.765625 6.238281 10.722656 2.144531 L 5.199219 2.144531 C 6.433594 9.359375 12.542969 13.84375 21.125 13.84375 Z M 8.839844 -17.484375 C 8.839844 -24.375 13.84375 -29.3125 20.796875 -29.3125 C 27.816406 -29.3125 32.757812 -24.375 32.757812 -17.484375 C 32.757812 -10.527344 27.816406 -5.65625 20.796875 -5.65625 C 13.84375 -5.65625 8.839844 -10.527344 8.839844 -17.484375 Z M 8.839844 -17.484375 "/></g></g></g><g fill="#039e8e" fill-opacity="1"><g transform="translate(438.341402, 170.585973)"><g><path d="M 6.042969 0 L 11.503906 0 L 11.503906 -33.730469 L 6.042969 -33.730469 Z M 4.355469 -43.546875 C 4.355469 -41.140625 6.109375 -39.320312 8.773438 -39.320312 C 11.4375 -39.320312 13.128906 -41.140625 13.128906 -43.546875 C 13.128906 -46.015625 11.4375 -47.835938 8.773438 -47.835938 C 6.109375 -47.835938 4.355469 -46.015625 4.355469 -43.546875 Z M 4.355469 -43.546875 "/></g></g></g><g fill="#039e8e" fill-opacity="1"><g transform="translate(455.889314, 170.585973)"><g><path d="M 20.734375 0.84375 C 29.183594 0.84375 35.746094 -4.226562 38.023438 -12.414062 L 32.238281 -12.414062 C 30.546875 -7.539062 26.191406 -4.417969 20.734375 -4.417969 C 13.777344 -4.417969 8.839844 -9.554688 8.839844 -16.898438 C 8.839844 -24.179688 13.777344 -29.378906 20.734375 -29.378906 C 25.867188 -29.378906 30.09375 -26.582031 32.109375 -21.902344 L 37.632812 -21.902344 C 35.941406 -29.507812 29.117188 -34.578125 20.734375 -34.578125 C 10.59375 -34.578125 3.378906 -27.167969 3.378906 -16.898438 C 3.378906 -6.566406 10.59375 0.84375 20.734375 0.84375 Z M 20.734375 0.84375 "/></g></g></g><g fill="#039e8e" fill-opacity="1"><g transform="translate(497.094406, 170.585973)"><g/></g></g><g fill="#039e8e" fill-opacity="1"><g transform="translate(513.212493, 170.585973)"><g><path d="M 27.296875 0.84375 C 41.140625 0.84375 50.890625 -8.90625 50.890625 -22.75 C 50.890625 -36.59375 41.140625 -46.339844 27.296875 -46.339844 C 13.453125 -46.339844 3.769531 -36.59375 3.769531 -22.75 C 3.769531 -8.90625 13.453125 0.84375 27.296875 0.84375 Z M 9.621094 -22.75 C 9.621094 -33.34375 16.832031 -40.621094 27.296875 -40.621094 C 37.761719 -40.621094 44.976562 -33.34375 44.976562 -22.75 C 44.976562 -12.152344 37.761719 -4.875 27.296875 -4.875 C 16.832031 -4.875 9.621094 -12.152344 9.621094 -22.75 Z M 9.621094 -22.75 "/></g></g></g><g fill="#039e8e" fill-opacity="1"><g transform="translate(567.805981, 170.585973)"><g><path d="M 9.292969 -37.175781 L 9.292969 -33.730469 L 1.949219 -33.730469 L 1.949219 -28.726562 L 9.292969 -28.726562 L 9.292969 0 L 14.753906 0 L 14.753906 -28.726562 L 26.519531 -28.726562 L 26.519531 -33.730469 L 14.753906 -33.730469 L 14.753906 -36.851562 C 14.753906 -41.726562 16.832031 -43.804688 21.578125 -43.804688 L 26.84375 -43.804688 L 26.84375 -48.941406 L 21.058594 -48.941406 C 13.453125 -48.941406 9.292969 -44.847656 9.292969 -37.175781 Z M 9.292969 -37.175781 "/></g></g></g><g fill="#039e8e" fill-opacity="1"><g transform="translate(595.29771, 170.585973)"><g/></g></g><g fill="#039e8e" fill-opacity="1"><g transform="translate(611.415797, 170.585973)"><g><path d="M 1.105469 0 L 7.214844 0 L 11.375 -10.335938 L 33.539062 -10.335938 L 37.828125 0 L 43.871094 0 L 25.152344 -45.496094 L 19.824219 -45.496094 Z M 13.582031 -15.664062 L 22.488281 -37.503906 L 31.394531 -15.664062 Z M 13.582031 -15.664062 "/></g></g></g><g fill="#039e8e" fill-opacity="1"><g transform="translate(155.485352, 235.08597)"><g><path d="M 6.628906 0 L 12.285156 0 L 12.285156 -35.617188 L 37.4375 0 L 42.765625 0 L 42.765625 -45.496094 L 37.175781 -45.496094 L 37.175781 -9.878906 L 12.023438 -45.496094 L 6.628906 -45.496094 Z M 6.628906 0 "/></g></g></g><g fill="#039e8e" fill-opacity="1"><g transform="translate(204.879457, 235.08597)"><g><path d="M 20.667969 0.84375 C 28.273438 0.84375 34.511719 -3.25 37.242188 -9.8125 L 31.066406 -9.8125 C 28.988281 -6.238281 25.152344 -4.289062 20.734375 -4.289062 C 14.300781 -4.289062 9.75 -8.320312 8.90625 -14.6875 L 38.085938 -14.6875 C 38.476562 -26.453125 31.523438 -34.578125 20.734375 -34.578125 C 10.527344 -34.578125 3.378906 -27.296875 3.378906 -16.898438 C 3.378906 -6.433594 10.464844 0.84375 20.667969 0.84375 Z M 8.96875 -19.5 C 9.945312 -25.476562 14.492188 -29.441406 20.734375 -29.441406 C 26.90625 -29.441406 31.457031 -25.671875 32.628906 -19.5 Z M 8.96875 -19.5 "/></g></g></g><g fill="#039e8e" fill-opacity="1"><g transform="translate(246.214531, 235.08597)"><g><path d="M 13.195312 0 L 18.457031 0 L 28.207031 -25.671875 L 32.628906 -13.910156 L 38.023438 0 L 43.222656 0 L 55.3125 -33.730469 L 49.589844 -33.730469 L 44.132812 -18.457031 L 40.558594 -8.1875 L 30.675781 -33.730469 L 25.671875 -33.730469 L 19.886719 -18.457031 L 15.921875 -8.125 L 12.285156 -18.457031 L 6.890625 -33.730469 L 1.105469 -33.730469 Z M 13.195312 0 "/></g></g></g><g fill="#039e8e" fill-opacity="1"><g transform="translate(302.627801, 235.08597)"><g/></g></g><g fill="#039e8e" fill-opacity="1"><g transform="translate(318.745876, 235.08597)"><g><path d="M 6.628906 0 L 25.089844 0 C 34.253906 0 39.972656 -4.875 39.972656 -12.738281 C 39.972656 -17.875 37.4375 -21.707031 32.757812 -23.59375 C 36.460938 -25.476562 38.671875 -28.988281 38.671875 -33.40625 C 38.671875 -40.75 32.953125 -45.496094 24.242188 -45.496094 L 6.628906 -45.496094 Z M 12.347656 -5.328125 L 12.347656 -20.601562 L 24.894531 -20.601562 C 30.808594 -20.601562 34.121094 -17.808594 34.121094 -13 C 34.121094 -8.125 30.808594 -5.328125 24.957031 -5.328125 Z M 12.347656 -25.804688 L 12.347656 -40.167969 L 24.113281 -40.167969 C 29.636719 -40.167969 32.824219 -37.566406 32.824219 -32.953125 C 32.824219 -28.402344 29.703125 -25.804688 24.113281 -25.804688 Z M 12.347656 -25.804688 "/></g></g></g><g fill="#039e8e" fill-opacity="1"><g transform="translate(362.355657, 235.08597)"><g><path d="M 20.667969 0.84375 C 28.273438 0.84375 34.511719 -3.25 37.242188 -9.8125 L 31.066406 -9.8125 C 28.988281 -6.238281 25.152344 -4.289062 20.734375 -4.289062 C 14.300781 -4.289062 9.75 -8.320312 8.90625 -14.6875 L 38.085938 -14.6875 C 38.476562 -26.453125 31.523438 -34.578125 20.734375 -34.578125 C 10.527344 -34.578125 3.378906 -27.296875 3.378906 -16.898438 C 3.378906 -6.433594 10.464844 0.84375 20.667969 0.84375 Z M 8.96875 -19.5 C 9.945312 -25.476562 14.492188 -29.441406 20.734375 -29.441406 C 26.90625 -29.441406 31.457031 -25.671875 32.628906 -19.5 Z M 8.96875 -19.5 "/></g></g></g><g fill="#039e8e" fill-opacity="1"><g transform="translate(403.690731, 235.08597)"><g><path d="M 21.125 13.84375 C 31.199219 13.84375 37.761719 7.605469 37.761719 -1.949219 L 37.761719 -33.730469 L 33.277344 -33.730469 L 32.691406 -29.183594 C 29.703125 -32.5625 25.28125 -34.578125 20.214844 -34.578125 C 10.59375 -34.578125 3.378906 -27.296875 3.378906 -17.484375 C 3.378906 -7.605469 10.59375 -0.324219 20.214844 -0.324219 C 25.089844 -0.324219 29.3125 -2.210938 32.300781 -5.328125 L 32.300781 -2.144531 C 32.300781 4.808594 28.207031 8.773438 21.125 8.773438 C 15.597656 8.773438 11.765625 6.238281 10.722656 2.144531 L 5.199219 2.144531 C 6.433594 9.359375 12.542969 13.84375 21.125 13.84375 Z M 8.839844 -17.484375 C 8.839844 -24.375 13.84375 -29.3125 20.796875 -29.3125 C 27.816406 -29.3125 32.757812 -24.375 32.757812 -17.484375 C 32.757812 -10.527344 27.816406 -5.65625 20.796875 -5.65625 C 13.84375 -5.65625 8.839844 -10.527344 8.839844 -17.484375 Z M 8.839844 -17.484375 "/></g></g></g><g fill="#039e8e" fill-opacity="1"><g transform="translate(447.495507, 235.08597)"><g><path d="M 6.042969 0 L 11.503906 0 L 11.503906 -33.730469 L 6.042969 -33.730469 Z M 4.355469 -43.546875 C 4.355469 -41.140625 6.109375 -39.320312 8.773438 -39.320312 C 11.4375 -39.320312 13.128906 -41.140625 13.128906 -43.546875 C 13.128906 -46.015625 11.4375 -47.835938 8.773438 -47.835938 C 6.109375 -47.835938 4.355469 -46.015625 4.355469 -43.546875 Z M 4.355469 -43.546875 "/></g></g></g><g fill="#039e8e" fill-opacity="1"><g transform="translate(465.043419, 235.08597)"><g><path d="M 6.042969 0 L 11.503906 0 L 11.503906 -17.027344 C 11.503906 -24.4375 15.988281 -29.378906 22.292969 -29.378906 C 28.207031 -29.378906 31.847656 -25.089844 31.847656 -18.261719 L 31.847656 0 L 37.308594 0 L 37.308594 -18.785156 C 37.308594 -28.402344 31.976562 -34.578125 23.007812 -34.578125 C 18.457031 -34.578125 14.039062 -32.824219 11.113281 -28.792969 L 10.527344 -33.730469 L 6.042969 -33.730469 Z M 6.042969 0 "/></g></g></g><g fill="#039e8e" fill-opacity="1"><g transform="translate(507.743315, 235.08597)"><g><path d="M 6.042969 0 L 11.503906 0 L 11.503906 -17.027344 C 11.503906 -24.4375 15.988281 -29.378906 22.292969 -29.378906 C 28.207031 -29.378906 31.847656 -25.089844 31.847656 -18.261719 L 31.847656 0 L 37.308594 0 L 37.308594 -18.785156 C 37.308594 -28.402344 31.976562 -34.578125 23.007812 -34.578125 C 18.457031 -34.578125 14.039062 -32.824219 11.113281 -28.792969 L 10.527344 -33.730469 L 6.042969 -33.730469 Z M 6.042969 0 "/></g></g></g><g fill="#039e8e" fill-opacity="1"><g transform="translate(550.443234, 235.08597)"><g><path d="M 6.042969 0 L 11.503906 0 L 11.503906 -33.730469 L 6.042969 -33.730469 Z M 4.355469 -43.546875 C 4.355469 -41.140625 6.109375 -39.320312 8.773438 -39.320312 C 11.4375 -39.320312 13.128906 -41.140625 13.128906 -43.546875 C 13.128906 -46.015625 11.4375 -47.835938 8.773438 -47.835938 C 6.109375 -47.835938 4.355469 -46.015625 4.355469 -43.546875 Z M 4.355469 -43.546875 "/></g></g></g><g fill="#039e8e" fill-opacity="1"><g transform="translate(567.991146, 235.08597)"><g><path d="M 6.042969 0 L 11.503906 0 L 11.503906 -17.027344 C 11.503906 -24.4375 15.988281 -29.378906 22.292969 -29.378906 C 28.207031 -29.378906 31.847656 -25.089844 31.847656 -18.261719 L 31.847656 0 L 37.308594 0 L 37.308594 -18.785156 C 37.308594 -28.402344 31.976562 -34.578125 23.007812 -34.578125 C 18.457031 -34.578125 14.039062 -32.824219 11.113281 -28.792969 L 10.527344 -33.730469 L 6.042969 -33.730469 Z M 6.042969 0 "/></g></g></g><g fill="#039e8e" fill-opacity="1"><g transform="translate(610.691064, 235.08597)"><g><path d="M 21.125 13.84375 C 31.199219 13.84375 37.761719 7.605469 37.761719 -1.949219 L 37.761719 -33.730469 L 33.277344 -33.730469 L 32.691406 -29.183594 C 29.703125 -32.5625 25.28125 -34.578125 20.214844 -34.578125 C 10.59375 -34.578125 3.378906 -27.296875 3.378906 -17.484375 C 3.378906 -7.605469 10.59375 -0.324219 20.214844 -0.324219 C 25.089844 -0.324219 29.3125 -2.210938 32.300781 -5.328125 L 32.300781 -2.144531 C 32.300781 4.808594 28.207031 8.773438 21.125 8.773438 C 15.597656 8.773438 11.765625 6.238281 10.722656 2.144531 L 5.199219 2.144531 C 6.433594 9.359375 12.542969 13.84375 21.125 13.84375 Z M 8.839844 -17.484375 C 8.839844 -24.375 13.84375 -29.3125 20.796875 -29.3125 C 27.816406 -29.3125 32.757812 -24.375 32.757812 -17.484375 C 32.757812 -10.527344 27.816406 -5.65625 20.796875 -5.65625 C 13.84375 -5.65625 8.839844 -10.527344 8.839844 -17.484375 Z M 8.839844 -17.484375 "/></g></g></g><g clip-path="url(#1adf6268cb)"><g clip-path="url(#af37326616)"><path fill="#039e8e" d="M 322.101562 322.101562 L 487.898438 322.101562 L 487.898438 487.898438 L 322.101562 487.898438 Z M 322.101562 322.101562 " fill-opacity="1" fill-rule="nonzero"/></g></g><g fill="#ffffff" fill-opacity="1"><g transform="translate(122.227541, 596.585966)"><g><path d="M 24.453125 -54.421875 L 24.453125 -3.90625 L 32.265625 -3.90625 L 32.265625 -54.421875 Z M -0.234375 -58.328125 L 56.875 -58.328125 L 56.875 -54.421875 L 36.171875 -54.421875 L 36.171875 0 L 20.546875 0 L 20.546875 -54.421875 L -0.234375 -54.421875 Z M -0.234375 -58.328125 "/></g></g></g><g fill="#ffffff" fill-opacity="1"><g transform="translate(178.862632, 596.585966)"><g><path d="M 40 -40.515625 C 40.238281 -40.222656 40.460938 -39.921875 40.671875 -39.609375 C 42.515625 -36.898438 43.4375 -33.070312 43.4375 -28.125 L 43.4375 -3.90625 L 48.90625 -3.90625 L 48.90625 -26.40625 C 48.90625 -31.4375 47.828125 -35.132812 45.671875 -37.5 C 44.285156 -39.007812 42.394531 -40.015625 40 -40.515625 Z M 11.171875 -56.875 L 11.171875 -3.90625 L 16.453125 -3.90625 L 16.453125 -56.875 Z M 7.265625 -60.78125 L 20.359375 -60.78125 L 20.359375 -36.953125 C 22.253906 -39.585938 24.488281 -41.554688 27.0625 -42.859375 C 29.644531 -44.160156 32.617188 -44.8125 35.984375 -44.8125 C 41.503906 -44.8125 45.6875 -43.253906 48.53125 -40.140625 C 51.382812 -37.023438 52.8125 -32.445312 52.8125 -26.40625 L 52.8125 0 L 39.53125 0 L 39.53125 -28.125 C 39.53125 -32.269531 38.832031 -35.367188 37.4375 -37.421875 C 36.050781 -39.484375 33.960938 -40.515625 31.171875 -40.515625 C 27.835938 -40.515625 25.203125 -39.273438 23.265625 -36.796875 C 21.328125 -34.328125 20.359375 -30.957031 20.359375 -26.6875 L 20.359375 0 L 7.265625 0 Z M 7.265625 -60.78125 "/></g></g></g><g fill="#ffffff" fill-opacity="1"><g transform="translate(237.802185, 596.585966)"><g><path d="M 44.890625 -20.15625 L 20.3125 -20.15625 L 20.359375 -3.984375 C 22.304688 -3.441406 24.519531 -3.171875 27 -3.171875 C 32.644531 -3.171875 38.007812 -4.378906 43.09375 -6.796875 L 43.09375 -2.234375 C 40.25 -1.054688 37.554688 -0.203125 35.015625 0.328125 C 32.484375 0.867188 29.820312 1.140625 27.03125 1.140625 C 20.050781 1.140625 14.523438 -0.890625 10.453125 -4.953125 C 6.378906 -9.023438 4.34375 -14.523438 4.34375 -21.453125 C 4.34375 -28.609375 6.273438 -34.289062 10.140625 -38.5 C 14.003906 -42.707031 19.21875 -44.8125 25.78125 -44.8125 C 31.75 -44.8125 36.425781 -42.894531 39.8125 -39.0625 C 43.195312 -35.238281 44.890625 -30.109375 44.890625 -23.671875 Z M 16.25 -38.09375 C 11.09375 -34.914062 8.515625 -29.507812 8.515625 -21.875 C 8.546875 -14.875 11.125 -9.523438 16.25 -5.828125 Z M 20.359375 -24.0625 L 40.390625 -24.0625 C 40.316406 -29.007812 38.953125 -32.988281 36.296875 -36 C 33.640625 -39.007812 30.109375 -40.515625 25.703125 -40.515625 C 23.773438 -40.515625 21.976562 -40.289062 20.3125 -39.84375 Z M 20.359375 -24.0625 "/></g></g></g><g fill="#ffffff" fill-opacity="1"><g transform="translate(287.016123, 596.585966)"><g/></g></g><g fill="#ffffff" fill-opacity="1"><g transform="translate(305.49433, 596.585966)"><g><path d="M 58.640625 0 L 58.640625 -54.421875 L 42.34375 -11.21875 L 39.578125 -11.21875 L 23.40625 -54.421875 L 23.359375 0 L 7.65625 0 L 7.65625 -58.328125 L 26.09375 -58.328125 L 40.984375 -18.640625 L 55.9375 -58.328125 L 74.34375 -58.328125 L 74.34375 0 Z M 62.546875 -54.421875 L 62.546875 -3.90625 L 70.4375 -3.90625 L 70.4375 -54.421875 Z M 11.5625 -54.421875 L 11.5625 -3.90625 L 19.453125 -3.90625 L 19.453125 -54.421875 Z M 11.5625 -54.421875 "/></g></g></g><g fill="#ffffff" fill-opacity="1"><g transform="translate(387.478506, 596.585966)"><g><path d="M 41.84375 -24.96875 C 41.84375 -30.457031 40.863281 -34.070312 38.90625 -35.8125 C 36.957031 -37.5625 35.1875 -38.75 33.59375 -39.375 C 35.550781 -36.957031 36.53125 -33.976562 36.53125 -30.4375 L 36.53125 -3.90625 L 41.84375 -3.90625 Z M 45.75 -24.96875 L 45.75 0 L 32.625 0 L 32.625 -6.640625 C 30.976562 -3.984375 28.929688 -2.019531 26.484375 -0.75 C 24.035156 0.507812 21.691406 1.140625 19.453125 1.140625 C 14.972656 1.140625 11.410156 -0.113281 8.765625 -2.625 C 6.128906 -5.144531 4.8125 -8.515625 4.8125 -12.734375 C 4.8125 -17.660156 6.457031 -21.375 9.75 -23.875 C 13.039062 -26.375 17.957031 -27.625 24.5 -27.625 L 32.625 -27.625 L 32.625 -30.4375 C 32.625 -33.738281 31.859375 -36.296875 30.328125 -38.109375 C 28.804688 -39.921875 26.082031 -40.828125 22.15625 -40.828125 C 19.65625 -40.828125 17.21875 -40.523438 14.84375 -39.921875 C 12.476562 -39.328125 10.203125 -38.429688 8.015625 -37.234375 L 8.015625 -41.765625 C 11.109375 -42.773438 14.109375 -43.535156 17.015625 -44.046875 C 19.921875 -44.554688 22.101562 -44.8125 23.5625 -44.8125 C 31.007812 -44.8125 36.566406 -43.171875 40.234375 -39.890625 C 43.910156 -36.609375 45.75 -31.632812 45.75 -24.96875 Z M 32.625 -20.390625 L 32.625 -23.71875 L 24.5 -23.71875 C 23.09375 -23.71875 21.773438 -23.664062 20.546875 -23.5625 L 20.546875 -2.8125 C 22.992188 -2.914062 24.851562 -3.472656 26.125 -4.484375 C 27.40625 -5.503906 28.816406 -6.953125 30.359375 -8.828125 C 31.867188 -10.679688 32.625 -14.535156 32.625 -20.390625 Z M 16.640625 -3.015625 L 16.640625 -22.890625 C 14.898438 -22.421875 13.144531 -21.515625 11.375 -20.171875 C 9.601562 -18.835938 8.71875 -16.359375 8.71875 -12.734375 C 8.71875 -9.640625 9.507812 -7.335938 11.09375 -5.828125 C 12.6875 -4.316406 14.535156 -3.378906 16.640625 -3.015625 Z M 16.640625 -3.015625 "/></g></g></g><g fill="#ffffff" fill-opacity="1"><g transform="translate(440.403034, 596.585966)"><g><path d="M 40.234375 -39.765625 L 40.234375 -2.15625 C 40.234375 3.113281 38.851562 7.570312 36.09375 11.21875 C 36.226562 11.34375 37.820312 10.382812 40.875 8.34375 C 43.9375 6.300781 45.46875 1.707031 45.46875 -5.4375 L 45.46875 -39.765625 Z M 9.6875 14.34375 L 9.6875 9.34375 C 11.800781 10.488281 13.882812 11.332031 15.9375 11.875 C 18 12.425781 20.097656 12.703125 22.234375 12.703125 C 26.941406 12.703125 30.46875 11.46875 32.8125 9 C 35.15625 6.539062 36.328125 2.820312 36.328125 -2.15625 L 36.328125 -6.5625 C 34.816406 -3.957031 32.910156 -2.019531 30.609375 -0.75 C 28.304688 0.507812 25.539062 1.140625 22.3125 1.140625 C 17.019531 1.140625 12.710938 -0.96875 9.390625 -5.1875 C 6.078125 -9.414062 4.421875 -14.96875 4.421875 -21.84375 C 4.421875 -28.71875 6.078125 -34.265625 9.390625 -38.484375 C 12.710938 -42.703125 17.019531 -44.8125 22.3125 -44.8125 C 25.539062 -44.8125 28.304688 -44.175781 30.609375 -42.90625 C 32.910156 -41.644531 34.816406 -39.710938 36.328125 -37.109375 L 36.328125 -43.671875 L 49.375 -43.671875 L 49.375 -5.4375 C 49.375 2.019531 47.429688 7.5625 43.546875 11.1875 C 39.671875 14.820312 33.738281 16.640625 25.75 16.640625 C 22.78125 16.640625 19.976562 16.453125 17.34375 16.078125 C 14.71875 15.703125 12.164062 15.125 9.6875 14.34375 Z M 8.671875 -19.140625 C 8.671875 -15.003906 9.894531 -11.242188 12.34375 -7.859375 C 13.488281 -6.265625 14.84375 -5.050781 16.40625 -4.21875 L 16.40625 -39.453125 C 14.84375 -38.617188 13.488281 -37.410156 12.34375 -35.828125 C 10.863281 -33.765625 9.835938 -31.238281 9.265625 -28.25 C 8.867188 -26.289062 8.671875 -23.253906 8.671875 -19.140625 Z M 20.515625 -2.890625 C 21.160156 -2.816406 21.820312 -2.78125 22.5 -2.78125 C 26.800781 -2.78125 29.925781 -4.144531 31.875 -6.875 C 33.882812 -9.582031 35.175781 -12.445312 35.75 -15.46875 C 36.113281 -17.394531 36.296875 -20.414062 36.296875 -24.53125 C 36.296875 -28.675781 35.054688 -32.441406 32.578125 -35.828125 C 30.160156 -39.210938 26.800781 -40.90625 22.5 -40.90625 C 21.820312 -40.90625 21.160156 -40.863281 20.515625 -40.78125 Z M 20.515625 -2.890625 "/></g></g></g><g fill="#ffffff" fill-opacity="1"><g transform="translate(497.038124, 596.585966)"><g><path d="M 12.890625 -39.84375 L 12.890625 -3.90625 L 18.171875 -3.90625 L 18.171875 -39.84375 Z M 11.921875 -60.78125 L 19.140625 -60.78125 L 19.140625 -51.6875 L 11.921875 -51.6875 Z M 8.984375 -43.75 L 22.078125 -43.75 L 22.078125 0 L 8.984375 0 Z M 8.984375 -43.75 "/></g></g></g><g fill="#ffffff" fill-opacity="1"><g transform="translate(525.121306, 596.585966)"><g><path d="M 39.03125 -5.59375 L 39.03125 -1.6875 C 37.019531 -0.75 34.941406 -0.046875 32.796875 0.421875 C 30.648438 0.898438 28.363281 1.140625 25.9375 1.140625 C 19.351562 1.140625 14.117188 -0.929688 10.234375 -5.078125 C 6.359375 -9.222656 4.421875 -14.8125 4.421875 -21.84375 C 4.421875 -28.976562 6.378906 -34.585938 10.296875 -38.671875 C 14.210938 -42.765625 19.582031 -44.8125 26.40625 -44.8125 C 28.625 -44.8125 30.785156 -44.582031 32.890625 -44.125 C 35.003906 -43.664062 37.050781 -42.984375 39.03125 -42.078125 L 39.03125 -38.171875 C 37.226562 -38.972656 34.910156 -39.6875 32.078125 -40.3125 C 30.222656 -40.707031 28.332031 -40.90625 26.40625 -40.90625 C 24.113281 -40.90625 22.03125 -40.644531 20.15625 -40.125 L 20.15625 -3.515625 C 21.90625 -3.023438 23.832031 -2.78125 25.9375 -2.78125 C 28.070312 -2.78125 30.078125 -2.988281 31.953125 -3.40625 C 34.191406 -3.894531 36.550781 -4.625 39.03125 -5.59375 Z M 16.25 -5.203125 L 16.25 -38.4375 C 15.101562 -37.757812 14.0625 -36.941406 13.125 -35.984375 C 9.925781 -32.648438 8.328125 -27.9375 8.328125 -21.84375 C 8.328125 -15.851562 9.914062 -11.148438 13.09375 -7.734375 C 14.03125 -6.742188 15.082031 -5.898438 16.25 -5.203125 Z M 16.25 -5.203125 "/></g></g></g><g fill="#ffffff" fill-opacity="1"><g transform="translate(569.101361, 596.585966)"><g/></g></g><g fill="#ffffff" fill-opacity="1"><g transform="translate(587.579538, 596.585966)"><g><path d="M 31.484375 -59.375 C 39.660156 -59.375 46.195312 -56.640625 51.09375 -51.171875 C 56.039062 -45.628906 58.515625 -38.273438 58.515625 -29.109375 C 58.515625 -19.960938 56.054688 -12.628906 51.140625 -7.109375 C 46.210938 -1.609375 39.660156 1.140625 31.484375 1.140625 C 23.285156 1.140625 16.738281 -1.609375 11.84375 -7.109375 C 6.914062 -12.578125 4.453125 -19.910156 4.453125 -29.109375 C 4.453125 -38.328125 6.914062 -45.679688 11.84375 -51.171875 C 16.738281 -56.640625 23.285156 -59.375 31.484375 -59.375 Z M 21.953125 -4.921875 C 24.765625 -3.617188 27.941406 -2.96875 31.484375 -2.96875 C 35.023438 -2.96875 38.203125 -3.617188 41.015625 -4.921875 L 41.015625 -53.328125 C 38.203125 -54.628906 35.023438 -55.28125 31.484375 -55.28125 C 27.941406 -55.28125 24.765625 -54.628906 21.953125 -53.328125 Z M 17.859375 -7.46875 L 17.859375 -50.75 C 16.921875 -49.988281 16.035156 -49.128906 15.203125 -48.171875 C 11.160156 -43.429688 9.140625 -37.078125 9.140625 -29.109375 C 9.140625 -21.140625 11.160156 -14.796875 15.203125 -10.078125 C 16.035156 -9.117188 16.921875 -8.25 17.859375 -7.46875 Z M 45.125 -50.703125 L 45.125 -7.546875 C 46.03125 -8.296875 46.890625 -9.140625 47.703125 -10.078125 C 51.734375 -14.816406 53.75 -21.164062 53.75 -29.125 C 53.75 -37.082031 51.734375 -43.429688 47.703125 -48.171875 C 46.890625 -49.109375 46.03125 -49.953125 45.125 -50.703125 Z M 4.453125 -29.109375 Z M 4.453125 -29.109375 "/></g></g></g><g fill="#ffffff" fill-opacity="1"><g transform="translate(650.542135, 596.585966)"><g><path d="M 20.671875 -56.796875 C 17.984375 -56.535156 16.039062 -55.820312 14.84375 -54.65625 C 13.363281 -53.195312 12.625 -50.578125 12.625 -46.796875 L 12.625 -3.90625 L 17.890625 -3.90625 L 17.890625 -46.796875 C 17.890625 -49.273438 18.175781 -51.398438 18.75 -53.171875 C 19.21875 -54.628906 19.859375 -55.835938 20.671875 -56.796875 Z M 38.875 -60.78125 L 38.875 -56.875 L 32.078125 -56.875 C 28.222656 -56.875 25.539062 -56.132812 24.03125 -54.65625 C 22.539062 -53.21875 21.796875 -50.597656 21.796875 -46.796875 L 21.796875 -42.890625 L 36.953125 -42.890625 L 36.953125 -38.984375 L 21.796875 -38.984375 L 21.796875 0 L 8.71875 0 L 8.71875 -38.984375 L 1.84375 -38.984375 L 1.84375 -42.890625 L 8.71875 -42.890625 L 8.71875 -46.796875 C 8.71875 -51.691406 9.847656 -55.234375 12.109375 -57.421875 C 14.398438 -59.660156 17.992188 -60.78125 22.890625 -60.78125 Z M 38.875 -60.78125 "/></g></g></g><g fill="#ffffff" fill-opacity="1"><g transform="translate(274.008784, 676.085962)"><g><path d="M 33.640625 -54.421875 L 25.625 -54.421875 L 44.921875 -3.90625 L 52.9375 -3.90625 Z M 36.328125 -58.328125 L 58.59375 0 L 42.1875 0 L 36.25 -16.296875 L 11.25 -16.296875 L 5.28125 0 L 0.625 0 L 22.859375 -58.328125 Z M 23.796875 -50.546875 L 12.65625 -20.203125 L 34.84375 -20.203125 Z M 23.796875 -50.546875 "/></g></g></g><g fill="#ffffff" fill-opacity="1"><g transform="translate(333.260807, 676.085962)"><g/></g></g><g fill="#ffffff" fill-opacity="1"><g transform="translate(351.739009, 676.085962)"><g><path d="M 7.765625 0 L 7.765625 -57.125 L 13.84375 -57.125 L 50.234375 -17.921875 L 50.234375 -57.125 L 54.484375 -57.125 L 54.484375 0 L 48.3125 0 L 12 -39.28125 L 12 0 Z M 50.234375 -4.234375 L 50.234375 -12.078125 L 12 -52.875 L 12 -44.953125 Z M 50.234375 -4.234375 "/></g></g></g><g fill="#ffffff" fill-opacity="1"><g transform="translate(413.972959, 676.085962)"><g><path d="M 44.890625 -20.15625 L 20.3125 -20.15625 L 20.359375 -3.984375 C 22.304688 -3.441406 24.519531 -3.171875 27 -3.171875 C 32.644531 -3.171875 38.007812 -4.378906 43.09375 -6.796875 L 43.09375 -2.234375 C 40.25 -1.054688 37.554688 -0.203125 35.015625 0.328125 C 32.484375 0.867188 29.820312 1.140625 27.03125 1.140625 C 20.050781 1.140625 14.523438 -0.890625 10.453125 -4.953125 C 6.378906 -9.023438 4.34375 -14.523438 4.34375 -21.453125 C 4.34375 -28.609375 6.273438 -34.289062 10.140625 -38.5 C 14.003906 -42.707031 19.21875 -44.8125 25.78125 -44.8125 C 31.75 -44.8125 36.425781 -42.894531 39.8125 -39.0625 C 43.195312 -35.238281 44.890625 -30.109375 44.890625 -23.671875 Z M 16.25 -38.09375 C 11.09375 -34.914062 8.515625 -29.507812 8.515625 -21.875 C 8.546875 -14.875 11.125 -9.523438 16.25 -5.828125 Z M 20.359375 -24.0625 L 40.390625 -24.0625 C 40.316406 -29.007812 38.953125 -32.988281 36.296875 -36 C 33.640625 -39.007812 30.109375 -40.515625 25.703125 -40.515625 C 23.773438 -40.515625 21.976562 -40.289062 20.3125 -39.84375 Z M 20.359375 -24.0625 "/></g></g></g><g fill="#ffffff" fill-opacity="1"><g transform="translate(463.1869, 676.085962)"><g><path d="M 39.421875 -39.84375 L 48.796875 -3.90625 L 54.0625 -3.90625 L 44.609375 -39.84375 Z M 8.4375 -39.84375 L 17.8125 -3.90625 L 23.09375 -3.90625 L 13.640625 -39.84375 Z M 3.359375 -43.75 L 16.640625 -43.75 L 25.625 -9.609375 L 34.578125 -43.75 L 47.625 -43.75 L 56.609375 -9.609375 L 65.546875 -43.75 L 69.453125 -43.75 L 58.015625 0 L 45.90625 0 L 36.484375 -35.859375 L 27.03125 0 L 14.8125 0 Z M 3.359375 -43.75 "/></g></g></g><g fill="#ffffff" fill-opacity="1"><g transform="translate(178.020507, 755.585958)"><g><path d="M 7.859375 -58.328125 L 31.84375 -58.328125 C 37.851562 -58.328125 42.484375 -57.078125 45.734375 -54.578125 C 48.992188 -52.078125 50.625 -48.519531 50.625 -43.90625 C 50.625 -37.945312 48.125 -33.753906 43.125 -31.328125 C 49.738281 -28.804688 53.046875 -23.804688 53.046875 -16.328125 C 53.046875 -11.117188 51.273438 -7.09375 47.734375 -4.25 C 44.191406 -1.414062 39.15625 0 32.625 0 L 7.859375 0 Z M 23.484375 -29.109375 L 23.484375 -3.90625 L 32.625 -3.90625 C 34.15625 -3.90625 35.585938 -4 36.921875 -4.1875 L 36.921875 -28.828125 C 35.585938 -29.015625 34.15625 -29.109375 32.625 -29.109375 Z M 23.484375 -54.421875 L 23.484375 -33.015625 L 31.84375 -33.015625 C 32.78125 -33.085938 33.664062 -33.125 34.5 -33.125 L 34.5 -54.34375 C 33.664062 -54.394531 32.78125 -54.421875 31.84375 -54.421875 Z M 11.765625 -54.421875 L 11.765625 -3.90625 L 19.65625 -3.90625 L 19.65625 -54.421875 Z M 41.015625 -5.078125 C 46.429688 -6.847656 49.140625 -10.597656 49.140625 -16.328125 C 49.140625 -22.296875 46.429688 -26.164062 41.015625 -27.9375 Z M 38.59375 -33.796875 C 44.007812 -35.203125 46.71875 -38.570312 46.71875 -43.90625 C 46.71875 -49.007812 44.007812 -52.265625 38.59375 -53.671875 Z M 38.59375 -33.796875 "/></g></g></g><g fill="#ffffff" fill-opacity="1"><g transform="translate(236.491356, 755.585958)"><g><path d="M 44.890625 -20.15625 L 20.3125 -20.15625 L 20.359375 -3.984375 C 22.304688 -3.441406 24.519531 -3.171875 27 -3.171875 C 32.644531 -3.171875 38.007812 -4.378906 43.09375 -6.796875 L 43.09375 -2.234375 C 40.25 -1.054688 37.554688 -0.203125 35.015625 0.328125 C 32.484375 0.867188 29.820312 1.140625 27.03125 1.140625 C 20.050781 1.140625 14.523438 -0.890625 10.453125 -4.953125 C 6.378906 -9.023438 4.34375 -14.523438 4.34375 -21.453125 C 4.34375 -28.609375 6.273438 -34.289062 10.140625 -38.5 C 14.003906 -42.707031 19.21875 -44.8125 25.78125 -44.8125 C 31.75 -44.8125 36.425781 -42.894531 39.8125 -39.0625 C 43.195312 -35.238281 44.890625 -30.109375 44.890625 -23.671875 Z M 16.25 -38.09375 C 11.09375 -34.914062 8.515625 -29.507812 8.515625 -21.875 C 8.546875 -14.875 11.125 -9.523438 16.25 -5.828125 Z M 20.359375 -24.0625 L 40.390625 -24.0625 C 40.316406 -29.007812 38.953125 -32.988281 36.296875 -36 C 33.640625 -39.007812 30.109375 -40.515625 25.703125 -40.515625 C 23.773438 -40.515625 21.976562 -40.289062 20.3125 -39.84375 Z M 20.359375 -24.0625 "/></g></g></g><g fill="#ffffff" fill-opacity="1"><g transform="translate(285.705297, 755.585958)"><g><path d="M 40.234375 -39.765625 L 40.234375 -2.15625 C 40.234375 3.113281 38.851562 7.570312 36.09375 11.21875 C 36.226562 11.34375 37.820312 10.382812 40.875 8.34375 C 43.9375 6.300781 45.46875 1.707031 45.46875 -5.4375 L 45.46875 -39.765625 Z M 9.6875 14.34375 L 9.6875 9.34375 C 11.800781 10.488281 13.882812 11.332031 15.9375 11.875 C 18 12.425781 20.097656 12.703125 22.234375 12.703125 C 26.941406 12.703125 30.46875 11.46875 32.8125 9 C 35.15625 6.539062 36.328125 2.820312 36.328125 -2.15625 L 36.328125 -6.5625 C 34.816406 -3.957031 32.910156 -2.019531 30.609375 -0.75 C 28.304688 0.507812 25.539062 1.140625 22.3125 1.140625 C 17.019531 1.140625 12.710938 -0.96875 9.390625 -5.1875 C 6.078125 -9.414062 4.421875 -14.96875 4.421875 -21.84375 C 4.421875 -28.71875 6.078125 -34.265625 9.390625 -38.484375 C 12.710938 -42.703125 17.019531 -44.8125 22.3125 -44.8125 C 25.539062 -44.8125 28.304688 -44.175781 30.609375 -42.90625 C 32.910156 -41.644531 34.816406 -39.710938 36.328125 -37.109375 L 36.328125 -43.671875 L 49.375 -43.671875 L 49.375 -5.4375 C 49.375 2.019531 47.429688 7.5625 43.546875 11.1875 C 39.671875 14.820312 33.738281 16.640625 25.75 16.640625 C 22.78125 16.640625 19.976562 16.453125 17.34375 16.078125 C 14.71875 15.703125 12.164062 15.125 9.6875 14.34375 Z M 8.671875 -19.140625 C 8.671875 -15.003906 9.894531 -11.242188 12.34375 -7.859375 C 13.488281 -6.265625 14.84375 -5.050781 16.40625 -4.21875 L 16.40625 -39.453125 C 14.84375 -38.617188 13.488281 -37.410156 12.34375 -35.828125 C 10.863281 -33.765625 9.835938 -31.238281 9.265625 -28.25 C 8.867188 -26.289062 8.671875 -23.253906 8.671875 -19.140625 Z M 20.515625 -2.890625 C 21.160156 -2.816406 21.820312 -2.78125 22.5 -2.78125 C 26.800781 -2.78125 29.925781 -4.144531 31.875 -6.875 C 33.882812 -9.582031 35.175781 -12.445312 35.75 -15.46875 C 36.113281 -17.394531 36.296875 -20.414062 36.296875 -24.53125 C 36.296875 -28.675781 35.054688 -32.441406 32.578125 -35.828125 C 30.160156 -39.210938 26.800781 -40.90625 22.5 -40.90625 C 21.820312 -40.90625 21.160156 -40.863281 20.515625 -40.78125 Z M 20.515625 -2.890625 "/></g></g></g><g fill="#ffffff" fill-opacity="1"><g transform="translate(342.340388, 755.585958)"><g><path d="M 12.890625 -39.84375 L 12.890625 -3.90625 L 18.171875 -3.90625 L 18.171875 -39.84375 Z M 11.921875 -60.78125 L 19.140625 -60.78125 L 19.140625 -51.6875 L 11.921875 -51.6875 Z M 8.984375 -43.75 L 22.078125 -43.75 L 22.078125 0 L 8.984375 0 Z M 8.984375 -43.75 "/></g></g></g><g fill="#ffffff" fill-opacity="1"><g transform="translate(370.423581, 755.585958)"><g><path d="M 40 -40.515625 C 40.238281 -40.222656 40.460938 -39.921875 40.671875 -39.609375 C 42.515625 -36.898438 43.4375 -33.070312 43.4375 -28.125 L 43.4375 -3.90625 L 48.90625 -3.90625 L 48.90625 -26.40625 C 48.90625 -31.4375 47.828125 -35.132812 45.671875 -37.5 C 44.285156 -39.007812 42.394531 -40.015625 40 -40.515625 Z M 11.171875 -39.84375 L 11.171875 -3.90625 L 16.453125 -3.90625 L 16.453125 -39.84375 Z M 7.265625 -43.75 L 20.359375 -43.75 L 20.359375 -36.953125 C 22.253906 -39.585938 24.488281 -41.554688 27.0625 -42.859375 C 29.644531 -44.160156 32.617188 -44.8125 35.984375 -44.8125 C 41.503906 -44.8125 45.6875 -43.253906 48.53125 -40.140625 C 51.382812 -37.023438 52.8125 -32.445312 52.8125 -26.40625 L 52.8125 0 L 39.53125 0 L 39.53125 -28.125 C 39.53125 -32.269531 38.832031 -35.367188 37.4375 -37.421875 C 36.050781 -39.484375 33.960938 -40.515625 31.171875 -40.515625 C 27.835938 -40.515625 25.203125 -39.273438 23.265625 -36.796875 C 21.328125 -34.328125 20.359375 -30.957031 20.359375 -26.6875 L 20.359375 0 L 7.265625 0 Z M 7.265625 -43.75 "/></g></g></g><g fill="#ffffff" fill-opacity="1"><g transform="translate(429.363146, 755.585958)"><g><path d="M 40 -40.515625 C 40.238281 -40.222656 40.460938 -39.921875 40.671875 -39.609375 C 42.515625 -36.898438 43.4375 -33.070312 43.4375 -28.125 L 43.4375 -3.90625 L 48.90625 -3.90625 L 48.90625 -26.40625 C 48.90625 -31.4375 47.828125 -35.132812 45.671875 -37.5 C 44.285156 -39.007812 42.394531 -40.015625 40 -40.515625 Z M 11.171875 -39.84375 L 11.171875 -3.90625 L 16.453125 -3.90625 L 16.453125 -39.84375 Z M 7.265625 -43.75 L 20.359375 -43.75 L 20.359375 -36.953125 C 22.253906 -39.585938 24.488281 -41.554688 27.0625 -42.859375 C 29.644531 -44.160156 32.617188 -44.8125 35.984375 -44.8125 C 41.503906 -44.8125 45.6875 -43.253906 48.53125 -40.140625 C 51.382812 -37.023438 52.8125 -32.445312 52.8125 -26.40625 L 52.8125 0 L 39.53125 0 L 39.53125 -28.125 C 39.53125 -32.269531 38.832031 -35.367188 37.4375 -37.421875 C 36.050781 -39.484375 33.960938 -40.515625 31.171875 -40.515625 C 27.835938 -40.515625 25.203125 -39.273438 23.265625 -36.796875 C 21.328125 -34.328125 20.359375 -30.957031 20.359375 -26.6875 L 20.359375 0 L 7.265625 0 Z M 7.265625 -43.75 "/></g></g></g><g fill="#ffffff" fill-opacity="1"><g transform="translate(488.302688, 755.585958)"><g><path d="M 12.890625 -39.84375 L 12.890625 -3.90625 L 18.171875 -3.90625 L 18.171875 -39.84375 Z M 11.921875 -60.78125 L 19.140625 -60.78125 L 19.140625 -51.6875 L 11.921875 -51.6875 Z M 8.984375 -43.75 L 22.078125 -43.75 L 22.078125 0 L 8.984375 0 Z M 8.984375 -43.75 "/></g></g></g><g fill="#ffffff" fill-opacity="1"><g transform="translate(516.385893, 755.585958)"><g><path d="M 40 -40.515625 C 40.238281 -40.222656 40.460938 -39.921875 40.671875 -39.609375 C 42.515625 -36.898438 43.4375 -33.070312 43.4375 -28.125 L 43.4375 -3.90625 L 48.90625 -3.90625 L 48.90625 -26.40625 C 48.90625 -31.4375 47.828125 -35.132812 45.671875 -37.5 C 44.285156 -39.007812 42.394531 -40.015625 40 -40.515625 Z M 11.171875 -39.84375 L 11.171875 -3.90625 L 16.453125 -3.90625 L 16.453125 -39.84375 Z M 7.265625 -43.75 L 20.359375 -43.75 L 20.359375 -36.953125 C 22.253906 -39.585938 24.488281 -41.554688 27.0625 -42.859375 C 29.644531 -44.160156 32.617188 -44.8125 35.984375 -44.8125 C 41.503906 -44.8125 45.6875 -43.253906 48.53125 -40.140625 C 51.382812 -37.023438 52.8125 -32.445312 52.8125 -26.40625 L 52.8125 0 L 39.53125 0 L 39.53125 -28.125 C 39.53125 -32.269531 38.832031 -35.367188 37.4375 -37.421875 C 36.050781 -39.484375 33.960938 -40.515625 31.171875 -40.515625 C 27.835938 -40.515625 25.203125 -39.273438 23.265625 -36.796875 C 21.328125 -34.328125 20.359375 -30.957031 20.359375 -26.6875 L 20.359375 0 L 7.265625 0 Z M 7.265625 -43.75 "/></g></g></g><g fill="#ffffff" fill-opacity="1"><g transform="translate(575.325435, 755.585958)"><g><path d="M 40.234375 -39.765625 L 40.234375 -2.15625 C 40.234375 3.113281 38.851562 7.570312 36.09375 11.21875 C 36.226562 11.34375 37.820312 10.382812 40.875 8.34375 C 43.9375 6.300781 45.46875 1.707031 45.46875 -5.4375 L 45.46875 -39.765625 Z M 9.6875 14.34375 L 9.6875 9.34375 C 11.800781 10.488281 13.882812 11.332031 15.9375 11.875 C 18 12.425781 20.097656 12.703125 22.234375 12.703125 C 26.941406 12.703125 30.46875 11.46875 32.8125 9 C 35.15625 6.539062 36.328125 2.820312 36.328125 -2.15625 L 36.328125 -6.5625 C 34.816406 -3.957031 32.910156 -2.019531 30.609375 -0.75 C 28.304688 0.507812 25.539062 1.140625 22.3125 1.140625 C 17.019531 1.140625 12.710938 -0.96875 9.390625 -5.1875 C 6.078125 -9.414062 4.421875 -14.96875 4.421875 -21.84375 C 4.421875 -28.71875 6.078125 -34.265625 9.390625 -38.484375 C 12.710938 -42.703125 17.019531 -44.8125 22.3125 -44.8125 C 25.539062 -44.8125 28.304688 -44.175781 30.609375 -42.90625 C 32.910156 -41.644531 34.816406 -39.710938 36.328125 -37.109375 L 36.328125 -43.671875 L 49.375 -43.671875 L 49.375 -5.4375 C 49.375 2.019531 47.429688 7.5625 43.546875 11.1875 C 39.671875 14.820312 33.738281 16.640625 25.75 16.640625 C 22.78125 16.640625 19.976562 16.453125 17.34375 16.078125 C 14.71875 15.703125 12.164062 15.125 9.6875 14.34375 Z M 8.671875 -19.140625 C 8.671875 -15.003906 9.894531 -11.242188 12.34375 -7.859375 C 13.488281 -6.265625 14.84375 -5.050781 16.40625 -4.21875 L 16.40625 -39.453125 C 14.84375 -38.617188 13.488281 -37.410156 12.34375 -35.828125 C 10.863281 -33.765625 9.835938 -31.238281 9.265625 -28.25 C 8.867188 -26.289062 8.671875 -23.253906 8.671875 -19.140625 Z M 20.515625 -2.890625 C 21.160156 -2.816406 21.820312 -2.78125 22.5 -2.78125 C 26.800781 -2.78125 29.925781 -4.144531 31.875 -6.875 C 33.882812 -9.582031 35.175781 -12.445312 35.75 -15.46875 C 36.113281 -17.394531 36.296875 -20.414062 36.296875 -24.53125 C 36.296875 -28.675781 35.054688 -32.441406 32.578125 -35.828125 C 30.160156 -39.210938 26.800781 -40.90625 22.5 -40.90625 C 21.820312 -40.90625 21.160156 -40.863281 20.515625 -40.78125 Z M 20.515625 -2.890625 "/></g></g></g></svg>