<svg xmlns="http://www.w3.org/2000/svg" xmlns:xlink="http://www.w3.org/1999/xlink" width="1080" zoomAndPan="magnify" viewBox="0 0 810 809.999993" height="1080" preserveAspectRatio="xMidYMid meet" version="1.0"><defs><g/><clipPath id="c6b8de0714"><path d="M 81 148.503906 L 399.75 148.503906 L 399.75 597.753906 L 81 597.753906 Z M 81 148.503906 " clip-rule="nonzero"/></clipPath><clipPath id="499b8fc429"><path d="M 411 148.503906 L 729 148.503906 L 729 367.503906 L 411 367.503906 Z M 411 148.503906 " clip-rule="nonzero"/></clipPath><clipPath id="a0735edb15"><path d="M 411 378.753906 L 729 378.753906 L 729 597.753906 L 411 597.753906 Z M 411 378.753906 " clip-rule="nonzero"/></clipPath><clipPath id="58b8020fa8"><path d="M 81 607.304688 L 235.5 607.304688 L 235.5 755.804688 L 81 755.804688 Z M 81 607.304688 " clip-rule="nonzero"/></clipPath><clipPath id="db7a0efec5"><path d="M 245.25 607.304688 L 400.5 607.304688 L 400.5 755.804688 L 245.25 755.804688 Z M 245.25 607.304688 " clip-rule="nonzero"/></clipPath><clipPath id="5f488b22f7"><path d="M 410.25 607.304688 L 564.75 607.304688 L 564.75 755.804688 L 410.25 755.804688 Z M 410.25 607.304688 " clip-rule="nonzero"/></clipPath><clipPath id="0db784beca"><path d="M 574.5 607.304688 L 729 607.304688 L 729 755.804688 L 574.5 755.804688 Z M 574.5 607.304688 " clip-rule="nonzero"/></clipPath></defs><rect x="-81" width="972" fill="#ffffff" y="-80.999999" height="971.999992" fill-opacity="1"/><rect x="-81" width="972" fill="#ffffff" y="-80.999999" height="971.999992" fill-opacity="1"/><g clip-path="url(#c6b8de0714)"><path fill="#2e765b" d="M 81 148.503906 L 399.75 148.503906 L 399.75 597.753906 L 81 597.753906 Z M 81 148.503906 " fill-opacity="1" fill-rule="nonzero"/></g><g clip-path="url(#499b8fc429)"><path fill="#31bd89" d="M 411 148.503906 L 729 148.503906 L 729 367.503906 L 411 367.503906 Z M 411 148.503906 " fill-opacity="1" fill-rule="nonzero"/></g><g clip-path="url(#a0735edb15)"><path fill="#37d399" d="M 411 378.753906 L 729 378.753906 L 729 597.753906 L 411 597.753906 Z M 411 378.753906 " fill-opacity="1" fill-rule="nonzero"/></g><g clip-path="url(#58b8020fa8)"><path fill="#37d399" d="M 81 607.304688 L 235.5 607.304688 L 235.5 755.804688 L 81 755.804688 Z M 81 607.304688 " fill-opacity="1" fill-rule="nonzero"/></g><g clip-path="url(#db7a0efec5)"><path fill="#31bd89" d="M 245.25 607.304688 L 400.5 607.304688 L 400.5 755.804688 L 245.25 755.804688 Z M 245.25 607.304688 " fill-opacity="1" fill-rule="nonzero"/></g><g clip-path="url(#5f488b22f7)"><path fill="#2ca87a" d="M 410.25 607.304688 L 564.75 607.304688 L 564.75 755.804688 L 410.25 755.804688 Z M 410.25 607.304688 " fill-opacity="1" fill-rule="nonzero"/></g><g clip-path="url(#0db784beca)"><path fill="#217e5b" d="M 574.5 607.304688 L 729 607.304688 L 729 755.804688 L 574.5 755.804688 Z M 574.5 607.304688 " fill-opacity="1" fill-rule="nonzero"/></g><g fill="#039e8e" fill-opacity="1"><g transform="translate(80.562986, 96.750015)"><g><path d="M 20.160156 0.625 C 30.382812 0.625 37.585938 -6.574219 37.585938 -16.800781 C 37.585938 -27.023438 30.382812 -34.222656 20.160156 -34.222656 C 9.9375 -34.222656 2.785156 -27.023438 2.785156 -16.800781 C 2.785156 -6.574219 9.9375 0.625 20.160156 0.625 Z M 7.105469 -16.800781 C 7.105469 -24.625 12.433594 -30 20.160156 -30 C 27.886719 -30 33.214844 -24.625 33.214844 -16.800781 C 33.214844 -8.976562 27.886719 -3.601562 20.160156 -3.601562 C 12.433594 -3.601562 7.105469 -8.976562 7.105469 -16.800781 Z M 7.105469 -16.800781 "/></g></g></g><g fill="#039e8e" fill-opacity="1"><g transform="translate(120.882911, 96.750015)"><g><path d="M 4.464844 0 L 8.496094 0 L 8.496094 -12.574219 C 8.496094 -18.046875 11.808594 -21.695312 16.464844 -21.695312 C 20.832031 -21.695312 23.519531 -18.527344 23.519531 -13.488281 L 23.519531 0 L 27.550781 0 L 27.550781 -13.871094 C 27.550781 -20.976562 23.617188 -25.535156 16.992188 -25.535156 C 13.632812 -25.535156 10.367188 -24.238281 8.207031 -21.265625 L 7.777344 -24.910156 L 4.464844 -24.910156 Z M 4.464844 0 "/></g></g></g><g fill="#039e8e" fill-opacity="1"><g transform="translate(152.418856, 96.750015)"><g><path d="M 15.265625 0.625 C 20.878906 0.625 25.488281 -2.398438 27.503906 -7.246094 L 22.945312 -7.246094 C 21.40625 -4.609375 18.574219 -3.167969 15.3125 -3.167969 C 10.558594 -3.167969 7.199219 -6.144531 6.574219 -10.847656 L 28.128906 -10.847656 C 28.414062 -19.535156 23.28125 -25.535156 15.3125 -25.535156 C 7.777344 -25.535156 2.496094 -20.160156 2.496094 -12.480469 C 2.496094 -4.753906 7.726562 0.625 15.265625 0.625 Z M 6.625 -14.398438 C 7.34375 -18.816406 10.703125 -21.742188 15.3125 -21.742188 C 19.871094 -21.742188 23.230469 -18.960938 24.097656 -14.398438 Z M 6.625 -14.398438 "/></g></g></g><g fill="#039e8e" fill-opacity="1"><g transform="translate(182.946805, 96.750015)"><g/></g></g><g fill="#039e8e" fill-opacity="1"><g transform="translate(194.850788, 96.750015)"><g><path d="M 13.007812 0 L 17.230469 0 L 17.230469 -29.566406 L 28.558594 -29.566406 L 28.558594 -33.601562 L 1.632812 -33.601562 L 1.632812 -29.566406 L 13.007812 -29.566406 Z M 13.007812 0 "/></g></g></g><g fill="#039e8e" fill-opacity="1"><g transform="translate(225.090735, 96.750015)"><g><path d="M 15.695312 0.625 C 23.425781 0.625 28.894531 -4.847656 28.894531 -12.480469 C 28.894531 -20.113281 23.425781 -25.535156 15.695312 -25.535156 C 7.96875 -25.535156 2.496094 -20.113281 2.496094 -12.480469 C 2.496094 -4.847656 7.96875 0.625 15.695312 0.625 Z M 6.527344 -12.480469 C 6.527344 -17.902344 10.320312 -21.695312 15.695312 -21.695312 C 21.070312 -21.695312 24.863281 -17.902344 24.863281 -12.480469 C 24.863281 -7.007812 21.070312 -3.265625 15.695312 -3.265625 C 10.320312 -3.265625 6.527344 -7.007812 6.527344 -12.480469 Z M 6.527344 -12.480469 "/></g></g></g><g fill="#039e8e" fill-opacity="1"><g transform="translate(256.482679, 96.750015)"><g><path d="M 15.695312 0.625 C 23.425781 0.625 28.894531 -4.847656 28.894531 -12.480469 C 28.894531 -20.113281 23.425781 -25.535156 15.695312 -25.535156 C 7.96875 -25.535156 2.496094 -20.113281 2.496094 -12.480469 C 2.496094 -4.847656 7.96875 0.625 15.695312 0.625 Z M 6.527344 -12.480469 C 6.527344 -17.902344 10.320312 -21.695312 15.695312 -21.695312 C 21.070312 -21.695312 24.863281 -17.902344 24.863281 -12.480469 C 24.863281 -7.007812 21.070312 -3.265625 15.695312 -3.265625 C 10.320312 -3.265625 6.527344 -7.007812 6.527344 -12.480469 Z M 6.527344 -12.480469 "/></g></g></g><g fill="#039e8e" fill-opacity="1"><g transform="translate(287.874622, 96.750015)"><g><path d="M 4.464844 0 L 8.496094 0 L 8.496094 -35.519531 L 4.464844 -35.519531 Z M 4.464844 0 "/></g></g></g><g fill="#039e8e" fill-opacity="1"><g transform="translate(300.834598, 96.750015)"><g/></g></g><g fill="#039e8e" fill-opacity="1"><g transform="translate(312.738581, 96.750015)"><g><path d="M 4.894531 0 L 9.121094 0 L 9.121094 -25.726562 L 20.257812 -8.929688 L 23.710938 -8.929688 L 34.847656 -25.679688 L 34.847656 0 L 39.070312 0 L 39.070312 -33.601562 L 35.136719 -33.601562 L 22.03125 -13.679688 L 8.832031 -33.601562 L 4.894531 -33.601562 Z M 4.894531 0 "/></g></g></g><g fill="#039e8e" fill-opacity="1"><g transform="translate(356.706505, 96.750015)"><g><path d="M 12.625 0.382812 C 16.65625 0.382812 19.824219 -0.910156 22.078125 -3.457031 L 22.511719 0 L 25.824219 0 L 25.824219 -15.839844 C 25.824219 -21.601562 21.457031 -25.535156 14.929688 -25.535156 C 9.503906 -25.535156 5.425781 -22.609375 4.320312 -17.808594 L 8.398438 -17.808594 C 9.214844 -20.257812 11.761719 -21.792969 14.976562 -21.792969 C 19.199219 -21.792969 21.792969 -19.441406 21.792969 -15.550781 L 21.792969 -14.640625 L 11.617188 -14.640625 C 6.433594 -14.640625 3.023438 -11.710938 3.023438 -7.199219 C 3.023438 -2.496094 6.625 0.382812 12.625 0.382812 Z M 7.054688 -7.246094 C 7.054688 -9.601562 8.976562 -11.089844 11.761719 -11.089844 L 21.839844 -11.089844 C 21.695312 -6.480469 17.953125 -3.214844 12.769531 -3.214844 C 9.265625 -3.214844 7.054688 -4.800781 7.054688 -7.246094 Z M 7.054688 -7.246094 "/></g></g></g><g fill="#039e8e" fill-opacity="1"><g transform="translate(386.466452, 96.750015)"><g><path d="M 4.464844 0 L 8.496094 0 L 8.496094 -12.574219 C 8.496094 -18.046875 11.808594 -21.695312 16.464844 -21.695312 C 20.832031 -21.695312 23.519531 -18.527344 23.519531 -13.488281 L 23.519531 0 L 27.550781 0 L 27.550781 -13.871094 C 27.550781 -20.976562 23.617188 -25.535156 16.992188 -25.535156 C 13.632812 -25.535156 10.367188 -24.238281 8.207031 -21.265625 L 7.777344 -24.910156 L 4.464844 -24.910156 Z M 4.464844 0 "/></g></g></g><g fill="#039e8e" fill-opacity="1"><g transform="translate(418.002408, 96.750015)"><g><path d="M 3.601562 9.601562 L 6.433594 9.601562 C 11.089844 9.601562 13.34375 8.449219 15.070312 3.886719 L 26.496094 -24.910156 L 22.222656 -24.910156 L 17.566406 -13.152344 L 14.542969 -5.425781 L 10.894531 -13.152344 L 5.28125 -24.910156 L 0.769531 -24.910156 L 12.574219 -0.574219 L 11.425781 2.351562 C 10.367188 5.136719 9.265625 5.808594 6.046875 5.808594 L 3.601562 5.808594 Z M 3.601562 9.601562 "/></g></g></g><g fill="#039e8e" fill-opacity="1"><g transform="translate(445.266353, 96.750015)"><g/></g></g><g fill="#039e8e" fill-opacity="1"><g transform="translate(457.170337, 96.750015)"><g><path d="M 4.894531 0 L 9.121094 0 L 9.121094 -14.160156 L 22.894531 -14.160156 L 22.894531 -18.046875 L 9.121094 -18.046875 L 9.121094 -29.664062 L 24.144531 -29.664062 L 24.144531 -33.601562 L 4.894531 -33.601562 Z M 4.894531 0 "/></g></g></g><g fill="#039e8e" fill-opacity="1"><g transform="translate(483.954294, 96.750015)"><g><path d="M 15.695312 0.625 C 23.425781 0.625 28.894531 -4.847656 28.894531 -12.480469 C 28.894531 -20.113281 23.425781 -25.535156 15.695312 -25.535156 C 7.96875 -25.535156 2.496094 -20.113281 2.496094 -12.480469 C 2.496094 -4.847656 7.96875 0.625 15.695312 0.625 Z M 6.527344 -12.480469 C 6.527344 -17.902344 10.320312 -21.695312 15.695312 -21.695312 C 21.070312 -21.695312 24.863281 -17.902344 24.863281 -12.480469 C 24.863281 -7.007812 21.070312 -3.265625 15.695312 -3.265625 C 10.320312 -3.265625 6.527344 -7.007812 6.527344 -12.480469 Z M 6.527344 -12.480469 "/></g></g></g><g fill="#039e8e" fill-opacity="1"><g transform="translate(515.34626, 96.750015)"><g><path d="M 4.464844 0 L 8.496094 0 L 8.496094 -12.574219 C 8.496094 -18.046875 11.808594 -21.695312 16.464844 -21.695312 C 20.832031 -21.695312 23.519531 -18.527344 23.519531 -13.488281 L 23.519531 0 L 27.550781 0 L 27.550781 -13.871094 C 27.550781 -20.976562 23.617188 -25.535156 16.992188 -25.535156 C 13.632812 -25.535156 10.367188 -24.238281 8.207031 -21.265625 L 7.777344 -24.910156 L 4.464844 -24.910156 Z M 4.464844 0 "/></g></g></g><g fill="#039e8e" fill-opacity="1"><g transform="translate(546.882193, 96.750015)"><g><path d="M 15.214844 0 L 18.960938 0 L 18.960938 -3.886719 L 15.40625 -3.886719 C 12.097656 -3.886719 10.558594 -5.566406 10.558594 -9.167969 L 10.558594 -21.214844 L 18.625 -21.214844 L 18.625 -24.910156 L 10.558594 -24.910156 L 10.558594 -31.105469 L 7.441406 -31.105469 L 7.054688 -27.742188 C 6.769531 -25.488281 6.097656 -24.910156 3.792969 -24.910156 L 1.296875 -24.910156 L 1.296875 -21.214844 L 6.527344 -21.214844 L 6.527344 -8.976562 C 6.527344 -3.265625 9.695312 0 15.214844 0 Z M 15.214844 0 "/></g></g></g><g fill="#039e8e" fill-opacity="1"><g transform="translate(568.194159, 96.750015)"><g/></g></g><g fill="#039e8e" fill-opacity="1"><g transform="translate(580.098119, 96.750015)"><g><path d="M 16.078125 0.625 C 23.425781 0.625 28.175781 -2.976562 28.175781 -8.832031 C 28.175781 -13.777344 24.863281 -16.753906 16.273438 -18.863281 C 9.742188 -20.449219 7.585938 -22.175781 7.585938 -24.960938 C 7.585938 -28.175781 10.464844 -30.191406 15.265625 -30.191406 C 20.207031 -30.191406 23.28125 -27.695312 23.375 -23.664062 L 27.550781 -23.664062 C 27.503906 -30.191406 22.800781 -34.222656 15.265625 -34.222656 C 7.921875 -34.222656 3.265625 -30.625 3.265625 -24.960938 C 3.265625 -19.777344 6.960938 -16.894531 15.214844 -14.929688 C 21.265625 -13.488281 23.808594 -11.808594 23.808594 -8.6875 C 23.808594 -5.375 20.832031 -3.40625 16.078125 -3.40625 C 10.847656 -3.40625 7.199219 -6 7.105469 -10.320312 L 2.878906 -10.320312 C 2.929688 -3.742188 8.0625 0.625 16.078125 0.625 Z M 16.078125 0.625 "/></g></g></g><g fill="#039e8e" fill-opacity="1"><g transform="translate(611.154087, 96.750015)"><g><path d="M 15.214844 0 L 18.960938 0 L 18.960938 -3.886719 L 15.40625 -3.886719 C 12.097656 -3.886719 10.558594 -5.566406 10.558594 -9.167969 L 10.558594 -21.214844 L 18.625 -21.214844 L 18.625 -24.910156 L 10.558594 -24.910156 L 10.558594 -31.105469 L 7.441406 -31.105469 L 7.054688 -27.742188 C 6.769531 -25.488281 6.097656 -24.910156 3.792969 -24.910156 L 1.296875 -24.910156 L 1.296875 -21.214844 L 6.527344 -21.214844 L 6.527344 -8.976562 C 6.527344 -3.265625 9.695312 0 15.214844 0 Z M 15.214844 0 "/></g></g></g><g fill="#039e8e" fill-opacity="1"><g transform="translate(632.466052, 96.750015)"><g><path d="M 3.601562 9.601562 L 6.433594 9.601562 C 11.089844 9.601562 13.34375 8.449219 15.070312 3.886719 L 26.496094 -24.910156 L 22.222656 -24.910156 L 17.566406 -13.152344 L 14.542969 -5.425781 L 10.894531 -13.152344 L 5.28125 -24.910156 L 0.769531 -24.910156 L 12.574219 -0.574219 L 11.425781 2.351562 C 10.367188 5.136719 9.265625 5.808594 6.046875 5.808594 L 3.601562 5.808594 Z M 3.601562 9.601562 "/></g></g></g><g fill="#039e8e" fill-opacity="1"><g transform="translate(659.729997, 96.750015)"><g><path d="M 4.464844 0 L 8.496094 0 L 8.496094 -35.519531 L 4.464844 -35.519531 Z M 4.464844 0 "/></g></g></g><g fill="#039e8e" fill-opacity="1"><g transform="translate(672.689973, 96.750015)"><g><path d="M 15.265625 0.625 C 20.878906 0.625 25.488281 -2.398438 27.503906 -7.246094 L 22.945312 -7.246094 C 21.40625 -4.609375 18.574219 -3.167969 15.3125 -3.167969 C 10.558594 -3.167969 7.199219 -6.144531 6.574219 -10.847656 L 28.128906 -10.847656 C 28.414062 -19.535156 23.28125 -25.535156 15.3125 -25.535156 C 7.777344 -25.535156 2.496094 -20.160156 2.496094 -12.480469 C 2.496094 -4.753906 7.726562 0.625 15.265625 0.625 Z M 6.625 -14.398438 C 7.34375 -18.816406 10.703125 -21.742188 15.3125 -21.742188 C 19.871094 -21.742188 23.230469 -18.960938 24.097656 -14.398438 Z M 6.625 -14.398438 "/></g></g></g><g fill="#039e8e" fill-opacity="1"><g transform="translate(703.21791, 96.750015)"><g><path d="M 13.488281 0.625 C 19.632812 0.625 23.617188 -2.207031 23.617188 -6.527344 C 23.617188 -10.414062 20.351562 -13.054688 14.0625 -14.304688 C 8.878906 -15.3125 7.105469 -16.320312 7.105469 -18.433594 C 7.105469 -20.640625 9.214844 -21.984375 12.816406 -21.984375 C 16.609375 -21.984375 18.863281 -20.496094 19.152344 -17.761719 L 23.136719 -17.761719 C 22.800781 -22.65625 18.910156 -25.535156 12.769531 -25.535156 C 6.769531 -25.535156 3.121094 -22.894531 3.121094 -18.433594 C 3.121094 -14.496094 6.144531 -12.097656 12.574219 -11.039062 C 17.425781 -10.222656 19.632812 -8.878906 19.632812 -6.625 C 19.632812 -4.367188 17.328125 -2.976562 13.535156 -2.976562 C 9.265625 -2.976562 6.71875 -4.800781 6.574219 -7.824219 L 2.59375 -7.824219 C 2.6875 -2.734375 6.960938 0.625 13.488281 0.625 Z M 13.488281 0.625 "/></g></g></g><g fill="#ffffff" fill-opacity="1"><g transform="translate(155.736486, 385.203049)"><g><path d="M 15.78125 -3.140625 C 14.101562 -6.078125 10.707031 -9.03125 5.59375 -12 C 3.207031 -13.382812 2.015625 -15.164062 2.015625 -17.34375 C 2.015625 -18.257812 2.179688 -19.140625 2.515625 -19.984375 C 2.859375 -20.835938 3.367188 -21.59375 4.046875 -22.25 C 4.691406 -22.894531 5.441406 -23.398438 6.296875 -23.765625 C 7.085938 -24.109375 7.953125 -24.28125 8.890625 -24.28125 C 9.835938 -24.28125 10.710938 -24.109375 11.515625 -23.765625 C 12.347656 -23.410156 13.097656 -22.90625 13.765625 -22.25 C 14.410156 -21.613281 14.90625 -20.875 15.25 -20.03125 C 15.601562 -19.195312 15.78125 -18.300781 15.78125 -17.34375 C 15.78125 -18.300781 15.953125 -19.195312 16.296875 -20.03125 C 16.648438 -20.875 17.15625 -21.613281 17.8125 -22.25 C 18.46875 -22.90625 19.210938 -23.410156 20.046875 -23.765625 C 20.847656 -24.109375 21.71875 -24.28125 22.65625 -24.28125 C 23.601562 -24.28125 24.476562 -24.109375 25.28125 -23.765625 C 26.125 -23.398438 26.867188 -22.894531 27.515625 -22.25 C 28.191406 -21.59375 28.695312 -20.835938 29.03125 -19.984375 C 29.375 -19.140625 29.546875 -18.257812 29.546875 -17.34375 C 29.546875 -15.132812 28.351562 -13.351562 25.96875 -12 C 20.851562 -9.03125 17.457031 -6.078125 15.78125 -3.140625 Z M 15.78125 -3.140625 "/></g></g></g><g fill="#ffffff" fill-opacity="1"><g transform="translate(187.294849, 385.203049)"><g/></g></g><g fill="#ffffff" fill-opacity="1"><g transform="translate(187.294849, 385.203049)"><g><path d="M 2.78125 1.125 L 0.265625 0 C 1.171875 -2.4375 2.148438 -4.332031 3.203125 -5.6875 L 3.203125 -28.625 L 6.515625 -28.625 L 6.515625 -8.21875 C 7.296875 -8.519531 8.148438 -8.671875 9.078125 -8.671875 C 10.710938 -8.671875 11.9375 -8.257812 12.75 -7.4375 C 13.5625 -6.625 13.96875 -5.578125 13.96875 -4.296875 C 13.96875 -2.984375 13.535156 -1.875 12.671875 -0.96875 C 11.804688 -0.0703125 10.570312 0.375 8.96875 0.375 C 7.789062 0.375 6.789062 0.148438 5.96875 -0.296875 C 5.15625 -0.753906 4.535156 -1.347656 4.109375 -2.078125 C 3.878906 -1.648438 3.648438 -1.160156 3.421875 -0.609375 C 3.203125 -0.0546875 2.988281 0.519531 2.78125 1.125 Z M 8.921875 -2.1875 C 9.609375 -2.1875 10.117188 -2.375 10.453125 -2.75 C 10.796875 -3.125 10.96875 -3.585938 10.96875 -4.140625 C 10.96875 -4.796875 10.769531 -5.285156 10.375 -5.609375 C 9.988281 -5.941406 9.46875 -6.109375 8.8125 -6.109375 C 8.03125 -6.109375 7.265625 -5.804688 6.515625 -5.203125 C 6.546875 -4.296875 6.738281 -3.566406 7.09375 -3.015625 C 7.457031 -2.460938 8.066406 -2.1875 8.921875 -2.1875 Z M 8.921875 -2.1875 "/></g></g></g><g fill="#ffffff" fill-opacity="1"><g transform="translate(201.644881, 385.203049)"><g><path d="M 27.125 -13.484375 C 27.125 -10.703125 26.648438 -8.273438 25.703125 -6.203125 C 24.765625 -4.128906 23.375 -2.515625 21.53125 -1.359375 C 19.6875 -0.203125 17.421875 0.375 14.734375 0.375 C 11.941406 0.375 9.625 -0.203125 7.78125 -1.359375 C 5.9375 -2.515625 4.5625 -4.132812 3.65625 -6.21875 C 2.75 -8.300781 2.296875 -10.738281 2.296875 -13.53125 C 2.296875 -16.257812 2.75 -18.660156 3.65625 -20.734375 C 4.5625 -22.804688 5.9375 -24.421875 7.78125 -25.578125 C 9.625 -26.734375 11.953125 -27.3125 14.765625 -27.3125 C 17.453125 -27.3125 19.710938 -26.738281 21.546875 -25.59375 C 23.378906 -24.457031 24.765625 -22.851562 25.703125 -20.78125 C 26.648438 -18.707031 27.125 -16.273438 27.125 -13.484375 Z M 5.875 -13.484375 C 5.875 -10.097656 6.585938 -7.429688 8.015625 -5.484375 C 9.453125 -3.535156 11.691406 -2.5625 14.734375 -2.5625 C 17.765625 -2.5625 19.988281 -3.535156 21.40625 -5.484375 C 22.832031 -7.429688 23.546875 -10.097656 23.546875 -13.484375 C 23.546875 -16.878906 22.84375 -19.535156 21.4375 -21.453125 C 20.03125 -23.378906 17.804688 -24.34375 14.765625 -24.34375 C 11.703125 -24.34375 9.453125 -23.378906 8.015625 -21.453125 C 6.585938 -19.535156 5.875 -16.878906 5.875 -13.484375 Z M 20.375 -15.140625 L 20.375 -12.203125 L 9 -12.203125 L 9 -15.140625 Z M 20.375 -15.140625 "/></g></g></g><g fill="#ffffff" fill-opacity="1"><g transform="translate(231.060555, 385.203049)"><g><path d="M 13.640625 0.375 C 10.273438 0.375 7.722656 -0.53125 5.984375 -2.34375 C 4.253906 -4.164062 3.390625 -6.570312 3.390625 -9.5625 L 3.390625 -26.890625 L 6.78125 -26.890625 L 6.78125 -9.453125 C 6.78125 -7.265625 7.363281 -5.566406 8.53125 -4.359375 C 9.695312 -3.160156 11.460938 -2.5625 13.828125 -2.5625 C 16.265625 -2.5625 18.023438 -3.207031 19.109375 -4.5 C 20.203125 -5.789062 20.75 -7.457031 20.75 -9.5 L 20.75 -21.625 C 20.75 -22.601562 20.546875 -23.289062 20.140625 -23.6875 C 19.742188 -24.09375 19.160156 -24.296875 18.390625 -24.296875 C 17.878906 -24.296875 17.382812 -24.226562 16.90625 -24.09375 C 16.4375 -23.957031 16 -23.773438 15.59375 -23.546875 L 15.59375 -26.40625 C 15.96875 -26.6875 16.46875 -26.898438 17.09375 -27.046875 C 17.726562 -27.203125 18.375 -27.28125 19.03125 -27.28125 C 22.414062 -27.28125 24.109375 -25.46875 24.109375 -21.84375 L 24.109375 -9.5 C 24.109375 -7.632812 23.726562 -5.953125 22.96875 -4.453125 C 22.21875 -2.960938 21.0625 -1.785156 19.5 -0.921875 C 17.945312 -0.0546875 15.992188 0.375 13.640625 0.375 Z M 13.640625 0.375 "/></g></g></g><g fill="#ffffff" fill-opacity="1"><g transform="translate(258.593025, 385.203049)"><g><path d="M 12.46875 0.375 C 10.03125 0.375 8.046875 -0.00390625 6.515625 -0.765625 C 4.984375 -1.535156 3.859375 -2.550781 3.140625 -3.8125 C 2.429688 -5.082031 2.078125 -6.460938 2.078125 -7.953125 C 2.078125 -9.835938 2.492188 -11.410156 3.328125 -12.671875 C 4.171875 -13.941406 5.269531 -14.894531 6.625 -15.53125 C 7.988281 -16.175781 9.457031 -16.523438 11.03125 -16.578125 L 3.203125 -24.21875 L 3.203125 -26.890625 L 19.921875 -26.890625 L 19.921875 -23.890625 L 7.5 -23.890625 L 15.21875 -16.28125 L 15.21875 -13.828125 L 12.28125 -13.828125 C 11.019531 -13.828125 9.890625 -13.625 8.890625 -13.21875 C 7.890625 -12.820312 7.09375 -12.203125 6.5 -11.359375 C 5.90625 -10.515625 5.609375 -9.40625 5.609375 -8.03125 C 5.609375 -6.289062 6.210938 -4.914062 7.421875 -3.90625 C 8.628906 -2.90625 10.453125 -2.40625 12.890625 -2.40625 C 14.140625 -2.40625 15.453125 -2.554688 16.828125 -2.859375 C 18.210938 -3.160156 19.5 -3.601562 20.6875 -4.1875 L 20.6875 -1.09375 C 19.550781 -0.539062 18.316406 -0.160156 16.984375 0.046875 C 15.660156 0.265625 14.15625 0.375 12.46875 0.375 Z M 12.46875 0.375 "/></g></g></g><g fill="#ffffff" fill-opacity="1"><g transform="translate(280.588866, 385.203049)"><g/></g></g><g fill="#ffffff" fill-opacity="1"><g transform="translate(289.929569, 385.203049)"><g><path d="M 15.78125 -3.140625 C 14.101562 -6.078125 10.707031 -9.03125 5.59375 -12 C 3.207031 -13.382812 2.015625 -15.164062 2.015625 -17.34375 C 2.015625 -18.257812 2.179688 -19.140625 2.515625 -19.984375 C 2.859375 -20.835938 3.367188 -21.59375 4.046875 -22.25 C 4.691406 -22.894531 5.441406 -23.398438 6.296875 -23.765625 C 7.085938 -24.109375 7.953125 -24.28125 8.890625 -24.28125 C 9.835938 -24.28125 10.710938 -24.109375 11.515625 -23.765625 C 12.347656 -23.410156 13.097656 -22.90625 13.765625 -22.25 C 14.410156 -21.613281 14.90625 -20.875 15.25 -20.03125 C 15.601562 -19.195312 15.78125 -18.300781 15.78125 -17.34375 C 15.78125 -18.300781 15.953125 -19.195312 16.296875 -20.03125 C 16.648438 -20.875 17.15625 -21.613281 17.8125 -22.25 C 18.46875 -22.90625 19.210938 -23.410156 20.046875 -23.765625 C 20.847656 -24.109375 21.71875 -24.28125 22.65625 -24.28125 C 23.601562 -24.28125 24.476562 -24.109375 25.28125 -23.765625 C 26.125 -23.398438 26.867188 -22.894531 27.515625 -22.25 C 28.191406 -21.59375 28.695312 -20.835938 29.03125 -19.984375 C 29.375 -19.140625 29.546875 -18.257812 29.546875 -17.34375 C 29.546875 -15.132812 28.351562 -13.351562 25.96875 -12 C 20.851562 -9.03125 17.457031 -6.078125 15.78125 -3.140625 Z M 15.78125 -3.140625 "/></g></g></g><g fill="#ffffff" fill-opacity="1"><g transform="translate(321.487932, 385.203049)"><g/></g></g><g fill="#ffffff" fill-opacity="1"><g transform="translate(461.169337, 277.798835)"><g><path d="M 9.9375 -14.859375 L 3.203125 -14.859375 L 3.203125 -21.59375 L 6.21875 -27.46875 L 8.59375 -27.46875 L 7.078125 -21.59375 L 9.9375 -21.59375 Z M 18.0625 -14.859375 L 11.328125 -14.859375 L 11.328125 -21.59375 L 14.34375 -27.46875 L 16.71875 -27.46875 L 15.203125 -21.59375 L 18.0625 -21.59375 Z M 18.0625 -14.859375 "/></g></g></g><g fill="#ffffff" fill-opacity="1"><g transform="translate(481.435838, 277.798835)"><g><path d="M 4.109375 -3.609375 L 4.109375 -21.84375 C 4.109375 -22.800781 3.863281 -23.460938 3.375 -23.828125 C 2.882812 -24.191406 1.960938 -24.425781 0.609375 -24.53125 L 0.609375 -25.46875 L 13.78125 -25.46875 L 13.78125 -24.53125 C 12.40625 -24.476562 11.460938 -24.257812 10.953125 -23.875 C 10.453125 -23.5 10.203125 -22.820312 10.203125 -21.84375 L 10.203125 -3.609375 C 10.203125 -2.628906 10.441406 -1.960938 10.921875 -1.609375 C 11.398438 -1.265625 12.351562 -1.039062 13.78125 -0.9375 L 13.78125 0 L 0.609375 0 L 0.609375 -0.9375 C 2.015625 -1.0625 2.945312 -1.300781 3.40625 -1.65625 C 3.875 -2.007812 4.109375 -2.660156 4.109375 -3.609375 Z M 4.109375 -3.609375 "/></g></g></g><g fill="#ffffff" fill-opacity="1"><g transform="translate(495.974182, 277.798835)"><g><path d="M 11.265625 -15.296875 C 10.554688 -15.296875 9.835938 -15 9.109375 -14.40625 C 8.390625 -13.820312 8.03125 -13.390625 8.03125 -13.109375 L 8.03125 -3.046875 C 8.03125 -2.347656 8.160156 -1.84375 8.421875 -1.53125 C 8.679688 -1.21875 9.164062 -1.007812 9.875 -0.90625 L 9.875 0 L 0.796875 0 L 0.796875 -0.90625 C 1.648438 -1.082031 2.191406 -1.304688 2.421875 -1.578125 C 2.660156 -1.859375 2.78125 -2.390625 2.78125 -3.171875 L 2.78125 -14.234375 C 2.78125 -15.015625 2.65625 -15.550781 2.40625 -15.84375 C 2.15625 -16.132812 1.617188 -16.34375 0.796875 -16.46875 L 0.796875 -17.359375 L 7.984375 -17.359375 L 7.984375 -14.546875 C 9.367188 -16.722656 11.164062 -17.8125 13.375 -17.8125 C 14.925781 -17.8125 16.160156 -17.328125 17.078125 -16.359375 C 17.992188 -15.398438 18.453125 -14.113281 18.453125 -12.5 L 18.453125 -3.046875 C 18.453125 -2.242188 18.578125 -1.695312 18.828125 -1.40625 C 19.085938 -1.125 19.582031 -0.957031 20.3125 -0.90625 L 20.3125 0 L 11.453125 0 L 11.453125 -0.90625 C 12.078125 -0.976562 12.523438 -1.175781 12.796875 -1.5 C 13.078125 -1.832031 13.21875 -2.347656 13.21875 -3.046875 L 13.21875 -12.171875 C 13.21875 -14.253906 12.566406 -15.296875 11.265625 -15.296875 Z M 11.265625 -15.296875 "/></g></g></g><g fill="#ffffff" fill-opacity="1"><g transform="translate(516.915427, 277.798835)"><g><path d="M 6.9375 -17.8125 C 7.632812 -17.8125 8.445312 -17.671875 9.375 -17.390625 C 10.3125 -17.117188 10.878906 -16.984375 11.078125 -16.984375 C 11.472656 -16.984375 11.773438 -17.238281 11.984375 -17.75 L 12.8125 -17.75 L 12.8125 -12.28125 L 11.859375 -12.28125 C 10.878906 -15.144531 9.347656 -16.578125 7.265625 -16.578125 C 6.566406 -16.578125 5.976562 -16.367188 5.5 -15.953125 C 5.019531 -15.535156 4.78125 -15.015625 4.78125 -14.390625 C 4.78125 -13.816406 5 -13.296875 5.4375 -12.828125 C 5.882812 -12.359375 6.429688 -11.984375 7.078125 -11.703125 C 7.734375 -11.429688 8.4375 -11.101562 9.1875 -10.71875 C 9.945312 -10.332031 10.648438 -9.929688 11.296875 -9.515625 C 11.953125 -9.097656 12.5 -8.519531 12.9375 -7.78125 C 13.375 -7.039062 13.59375 -6.179688 13.59375 -5.203125 C 13.59375 -3.515625 13.050781 -2.132812 11.96875 -1.0625 C 10.894531 0 9.503906 0.53125 7.796875 0.53125 C 6.765625 0.53125 5.722656 0.347656 4.671875 -0.015625 C 3.617188 -0.378906 3.015625 -0.5625 2.859375 -0.5625 C 2.585938 -0.5625 2.265625 -0.210938 1.890625 0.484375 L 0.9375 0.484375 L 0.9375 -5.71875 L 2 -5.71875 C 2.800781 -2.40625 4.519531 -0.75 7.15625 -0.75 C 8.007812 -0.75 8.691406 -0.972656 9.203125 -1.421875 C 9.722656 -1.878906 9.984375 -2.472656 9.984375 -3.203125 C 9.984375 -3.859375 9.675781 -4.4375 9.0625 -4.9375 C 8.445312 -5.4375 7.695312 -5.882812 6.8125 -6.28125 C 5.9375 -6.6875 5.054688 -7.117188 4.171875 -7.578125 C 3.296875 -8.046875 2.550781 -8.679688 1.9375 -9.484375 C 1.320312 -10.296875 1.015625 -11.238281 1.015625 -12.3125 C 1.015625 -13.894531 1.570312 -15.207031 2.6875 -16.25 C 3.8125 -17.289062 5.226562 -17.8125 6.9375 -17.8125 Z M 6.9375 -17.8125 "/></g></g></g><g fill="#ffffff" fill-opacity="1"><g transform="translate(531.566771, 277.798835)"><g><path d="M 7.984375 -17.359375 L 7.984375 -14.765625 C 8.566406 -15.847656 9.226562 -16.625 9.96875 -17.09375 C 10.707031 -17.570312 11.628906 -17.8125 12.734375 -17.8125 C 14.816406 -17.8125 16.503906 -16.992188 17.796875 -15.359375 C 19.085938 -13.734375 19.734375 -11.613281 19.734375 -9 C 19.734375 -6.21875 19.054688 -3.941406 17.703125 -2.171875 C 16.347656 -0.398438 14.613281 0.484375 12.5 0.484375 C 11.675781 0.484375 10.957031 0.328125 10.34375 0.015625 C 9.726562 -0.296875 8.96875 -0.890625 8.0625 -1.765625 L 8.0625 3.546875 C 8.0625 4.796875 8.257812 5.660156 8.65625 6.140625 C 9.0625 6.617188 9.84375 6.882812 11 6.9375 L 11 7.71875 L 0.71875 7.71875 L 0.71875 6.8125 C 1.625 6.664062 2.203125 6.457031 2.453125 6.1875 C 2.703125 5.925781 2.828125 5.410156 2.828125 4.640625 L 2.828125 -14.234375 C 2.828125 -15.015625 2.691406 -15.550781 2.421875 -15.84375 C 2.160156 -16.132812 1.617188 -16.34375 0.796875 -16.46875 L 0.796875 -17.359375 Z M 11.296875 -15.671875 C 10.492188 -15.671875 9.753906 -15.320312 9.078125 -14.625 C 8.398438 -13.9375 8.0625 -13.40625 8.0625 -13.03125 L 8.0625 -3.875 C 8.664062 -2.34375 9.632812 -1.578125 10.96875 -1.578125 C 13.101562 -1.578125 14.171875 -3.875 14.171875 -8.46875 C 14.171875 -13.269531 13.210938 -15.671875 11.296875 -15.671875 Z M 11.296875 -15.671875 "/></g></g></g><g fill="#ffffff" fill-opacity="1"><g transform="translate(552.508015, 277.798835)"><g><path d="M 7.828125 -17.359375 L 7.828125 -3.046875 C 7.828125 -2.347656 7.957031 -1.84375 8.21875 -1.53125 C 8.488281 -1.21875 8.953125 -1.007812 9.609375 -0.90625 L 9.609375 0 L 0.609375 0 L 0.609375 -0.90625 C 1.460938 -1.101562 2.003906 -1.332031 2.234375 -1.59375 C 2.472656 -1.863281 2.59375 -2.390625 2.59375 -3.171875 L 2.59375 -14.234375 C 2.59375 -15.015625 2.46875 -15.535156 2.21875 -15.796875 C 1.96875 -16.066406 1.429688 -16.289062 0.609375 -16.46875 L 0.609375 -17.359375 Z M 3.125 -25.1875 C 3.707031 -25.75 4.398438 -26.03125 5.203125 -26.03125 C 6.003906 -26.03125 6.6875 -25.738281 7.25 -25.15625 C 7.8125 -24.582031 8.09375 -23.894531 8.09375 -23.09375 C 8.09375 -22.257812 7.8125 -21.566406 7.25 -21.015625 C 6.6875 -20.460938 5.988281 -20.1875 5.15625 -20.1875 C 4.332031 -20.1875 3.644531 -20.460938 3.09375 -21.015625 C 2.539062 -21.566406 2.265625 -22.269531 2.265625 -23.125 C 2.265625 -23.9375 2.550781 -24.625 3.125 -25.1875 Z M 3.125 -25.1875 "/></g></g></g><g fill="#ffffff" fill-opacity="1"><g transform="translate(562.978638, 277.798835)"><g><path d="M 13.96875 -12.359375 C 13.394531 -12.359375 12.890625 -12.546875 12.453125 -12.921875 C 12.015625 -13.296875 11.65625 -13.664062 11.375 -14.03125 C 11.101562 -14.394531 10.863281 -14.578125 10.65625 -14.578125 C 10.03125 -14.578125 9.488281 -14.222656 9.03125 -13.515625 C 8.582031 -12.816406 8.359375 -11.976562 8.359375 -11 L 8.359375 -3.875 C 8.359375 -2.695312 8.523438 -1.925781 8.859375 -1.5625 C 9.203125 -1.195312 9.953125 -0.976562 11.109375 -0.90625 L 11.109375 0 L 1.09375 0 L 1.09375 -0.90625 C 1.914062 -1.050781 2.457031 -1.269531 2.71875 -1.5625 C 2.988281 -1.851562 3.125 -2.390625 3.125 -3.171875 L 3.125 -14.234375 C 3.125 -14.992188 2.984375 -15.53125 2.703125 -15.84375 C 2.429688 -16.15625 1.894531 -16.363281 1.09375 -16.46875 L 1.09375 -17.359375 L 8.21875 -17.359375 L 8.21875 -14.28125 C 9.09375 -15.53125 9.925781 -16.429688 10.71875 -16.984375 C 11.507812 -17.535156 12.367188 -17.8125 13.296875 -17.8125 C 14.171875 -17.8125 14.894531 -17.535156 15.46875 -16.984375 C 16.050781 -16.429688 16.34375 -15.726562 16.34375 -14.875 C 16.34375 -14.144531 16.125 -13.539062 15.6875 -13.0625 C 15.25 -12.59375 14.675781 -12.359375 13.96875 -12.359375 Z M 13.96875 -12.359375 "/></g></g></g><g fill="#ffffff" fill-opacity="1"><g transform="translate(579.701499, 277.798835)"><g><path d="M 5.53125 -15.21875 C 5.53125 -15.09375 5.71875 -14.757812 6.09375 -14.21875 C 6.476562 -13.675781 6.671875 -13.191406 6.671875 -12.765625 C 6.671875 -12.117188 6.429688 -11.59375 5.953125 -11.1875 C 5.472656 -10.78125 4.859375 -10.578125 4.109375 -10.578125 C 3.328125 -10.578125 2.722656 -10.796875 2.296875 -11.234375 C 1.867188 -11.679688 1.65625 -12.296875 1.65625 -13.078125 C 1.65625 -14.484375 2.304688 -15.625 3.609375 -16.5 C 4.921875 -17.375 6.644531 -17.8125 8.78125 -17.8125 C 11.0625 -17.8125 12.875 -17.347656 14.21875 -16.421875 C 15.5625 -15.492188 16.234375 -14.238281 16.234375 -12.65625 L 16.234375 -2.828125 C 16.234375 -2.203125 16.5 -1.890625 17.03125 -1.890625 C 17.207031 -1.890625 17.34375 -1.9375 17.4375 -2.03125 L 17.8125 -2.40625 L 18.390625 -1.625 C 17.054688 -0.1875 15.648438 0.53125 14.171875 0.53125 C 13.234375 0.53125 12.53125 0.332031 12.0625 -0.0625 C 11.601562 -0.46875 11.273438 -1.148438 11.078125 -2.109375 C 9.140625 -0.347656 7.15625 0.53125 5.125 0.53125 C 3.914062 0.53125 2.914062 0.15625 2.125 -0.59375 C 1.332031 -1.351562 0.9375 -2.3125 0.9375 -3.46875 C 0.9375 -4.25 1.144531 -4.96875 1.5625 -5.625 C 1.976562 -6.289062 2.460938 -6.835938 3.015625 -7.265625 C 3.566406 -7.691406 4.328125 -8.117188 5.296875 -8.546875 C 6.265625 -8.972656 7.085938 -9.300781 7.765625 -9.53125 C 8.441406 -9.757812 9.332031 -10.035156 10.4375 -10.359375 C 10.707031 -10.429688 10.921875 -10.492188 11.078125 -10.546875 L 11.078125 -13.296875 C 11.078125 -14.453125 10.820312 -15.289062 10.3125 -15.8125 C 9.8125 -16.34375 9.007812 -16.609375 7.90625 -16.609375 C 7.257812 -16.609375 6.703125 -16.476562 6.234375 -16.21875 C 5.765625 -15.957031 5.53125 -15.625 5.53125 -15.21875 Z M 11.03125 -3.765625 L 11.03125 -9.234375 C 7.96875 -8.429688 6.4375 -6.910156 6.4375 -4.671875 C 6.4375 -3.921875 6.613281 -3.3125 6.96875 -2.84375 C 7.320312 -2.375 7.785156 -2.140625 8.359375 -2.140625 C 9.210938 -2.140625 10.101562 -2.679688 11.03125 -3.765625 Z M 11.03125 -3.765625 "/></g></g></g><g fill="#ffffff" fill-opacity="1"><g transform="translate(598.533553, 277.798835)"><g><path d="M 11.484375 -17.359375 L 11.484375 -15.703125 L 7.953125 -15.703125 L 7.953125 -4.375 C 7.953125 -3.613281 8.0625 -3.0625 8.28125 -2.71875 C 8.507812 -2.382812 8.890625 -2.21875 9.421875 -2.21875 C 10.171875 -2.21875 10.882812 -2.875 11.5625 -4.1875 L 12.5 -3.765625 C 11.726562 -2.234375 10.921875 -1.144531 10.078125 -0.5 C 9.234375 0.132812 8.1875 0.453125 6.9375 0.453125 C 5.625 0.453125 4.59375 0.101562 3.84375 -0.59375 C 3.09375 -1.300781 2.71875 -2.269531 2.71875 -3.5 L 2.71875 -15.703125 L 0.75 -15.703125 L 0.75 -16.71875 C 1.976562 -17.75 3.039062 -18.765625 3.9375 -19.765625 C 4.832031 -20.773438 5.851562 -22.097656 7 -23.734375 L 7.953125 -23.734375 L 7.953125 -17.359375 Z M 11.484375 -17.359375 "/></g></g></g><g fill="#ffffff" fill-opacity="1"><g transform="translate(611.075705, 277.798835)"><g><path d="M 7.828125 -17.359375 L 7.828125 -3.046875 C 7.828125 -2.347656 7.957031 -1.84375 8.21875 -1.53125 C 8.488281 -1.21875 8.953125 -1.007812 9.609375 -0.90625 L 9.609375 0 L 0.609375 0 L 0.609375 -0.90625 C 1.460938 -1.101562 2.003906 -1.332031 2.234375 -1.59375 C 2.472656 -1.863281 2.59375 -2.390625 2.59375 -3.171875 L 2.59375 -14.234375 C 2.59375 -15.015625 2.46875 -15.535156 2.21875 -15.796875 C 1.96875 -16.066406 1.429688 -16.289062 0.609375 -16.46875 L 0.609375 -17.359375 Z M 3.125 -25.1875 C 3.707031 -25.75 4.398438 -26.03125 5.203125 -26.03125 C 6.003906 -26.03125 6.6875 -25.738281 7.25 -25.15625 C 7.8125 -24.582031 8.09375 -23.894531 8.09375 -23.09375 C 8.09375 -22.257812 7.8125 -21.566406 7.25 -21.015625 C 6.6875 -20.460938 5.988281 -20.1875 5.15625 -20.1875 C 4.332031 -20.1875 3.644531 -20.460938 3.09375 -21.015625 C 2.539062 -21.566406 2.265625 -22.269531 2.265625 -23.125 C 2.265625 -23.9375 2.550781 -24.625 3.125 -25.1875 Z M 3.125 -25.1875 "/></g></g></g><g fill="#ffffff" fill-opacity="1"><g transform="translate(621.546327, 277.798835)"><g><path d="M 9.453125 -17.8125 C 11.890625 -17.8125 13.910156 -16.9375 15.515625 -15.1875 C 17.128906 -13.445312 17.9375 -11.257812 17.9375 -8.625 C 17.9375 -6.007812 17.128906 -3.828125 15.515625 -2.078125 C 13.910156 -0.335938 11.890625 0.53125 9.453125 0.53125 C 6.992188 0.53125 4.957031 -0.335938 3.34375 -2.078125 C 1.738281 -3.828125 0.9375 -6.046875 0.9375 -8.734375 C 0.9375 -11.296875 1.757812 -13.445312 3.40625 -15.1875 C 5.050781 -16.9375 7.066406 -17.8125 9.453125 -17.8125 Z M 9.5 -16.65625 C 8.34375 -16.65625 7.550781 -16.050781 7.125 -14.84375 C 6.695312 -13.632812 6.484375 -11.375 6.484375 -8.0625 C 6.484375 -5.300781 6.703125 -3.375 7.140625 -2.28125 C 7.578125 -1.1875 8.347656 -0.640625 9.453125 -0.640625 C 10.554688 -0.640625 11.320312 -1.207031 11.75 -2.34375 C 12.175781 -3.488281 12.390625 -5.507812 12.390625 -8.40625 C 12.390625 -11.488281 12.175781 -13.632812 11.75 -14.84375 C 11.320312 -16.050781 10.570312 -16.65625 9.5 -16.65625 Z M 9.5 -16.65625 "/></g></g></g><g fill="#ffffff" fill-opacity="1"><g transform="translate(640.378381, 277.798835)"><g><path d="M 11.265625 -15.296875 C 10.554688 -15.296875 9.835938 -15 9.109375 -14.40625 C 8.390625 -13.820312 8.03125 -13.390625 8.03125 -13.109375 L 8.03125 -3.046875 C 8.03125 -2.347656 8.160156 -1.84375 8.421875 -1.53125 C 8.679688 -1.21875 9.164062 -1.007812 9.875 -0.90625 L 9.875 0 L 0.796875 0 L 0.796875 -0.90625 C 1.648438 -1.082031 2.191406 -1.304688 2.421875 -1.578125 C 2.660156 -1.859375 2.78125 -2.390625 2.78125 -3.171875 L 2.78125 -14.234375 C 2.78125 -15.015625 2.65625 -15.550781 2.40625 -15.84375 C 2.15625 -16.132812 1.617188 -16.34375 0.796875 -16.46875 L 0.796875 -17.359375 L 7.984375 -17.359375 L 7.984375 -14.546875 C 9.367188 -16.722656 11.164062 -17.8125 13.375 -17.8125 C 14.925781 -17.8125 16.160156 -17.328125 17.078125 -16.359375 C 17.992188 -15.398438 18.453125 -14.113281 18.453125 -12.5 L 18.453125 -3.046875 C 18.453125 -2.242188 18.578125 -1.695312 18.828125 -1.40625 C 19.085938 -1.125 19.582031 -0.957031 20.3125 -0.90625 L 20.3125 0 L 11.453125 0 L 11.453125 -0.90625 C 12.078125 -0.976562 12.523438 -1.175781 12.796875 -1.5 C 13.078125 -1.832031 13.21875 -2.347656 13.21875 -3.046875 L 13.21875 -12.171875 C 13.21875 -14.253906 12.566406 -15.296875 11.265625 -15.296875 Z M 11.265625 -15.296875 "/></g></g></g><g fill="#ffffff" fill-opacity="1"><g transform="translate(661.319629, 277.798835)"><g><path d="M 2.203125 -27.46875 L 8.9375 -27.46875 L 8.9375 -20.734375 L 5.921875 -14.859375 L 3.546875 -14.859375 L 5.0625 -20.734375 L 2.203125 -20.734375 Z M 10.328125 -27.46875 L 17.0625 -27.46875 L 17.0625 -20.734375 L 14.046875 -14.859375 L 11.671875 -14.859375 L 13.1875 -20.734375 L 10.328125 -20.734375 Z M 10.328125 -27.46875 "/></g></g></g><g fill="#ffffff" fill-opacity="1"><g transform="translate(458.380274, 480.44414)"><g><path d="M 1.882812 2.636719 L 35.789062 2.636719 L 35.789062 -31.269531 L 1.882812 -31.269531 Z M 3.050781 1.46875 L 3.050781 -30.101562 L 34.621094 -30.101562 L 34.621094 1.46875 Z M 13.148438 -4.785156 L 25.84375 -4.785156 L 25.84375 -7.308594 L 16.3125 -7.308594 L 16.3125 -13.75 L 24.074219 -13.75 L 24.074219 -16.199219 L 16.3125 -16.199219 L 16.3125 -21.773438 L 25.464844 -21.773438 L 25.464844 -24.296875 L 13.148438 -24.296875 Z M 13.148438 -4.785156 "/></g></g></g><g fill="#ffffff" fill-opacity="1"><g transform="translate(496.044392, 480.44414)"><g><path d="M 1.882812 2.636719 L 35.789062 2.636719 L 35.789062 -31.269531 L 1.882812 -31.269531 Z M 3.050781 1.46875 L 3.050781 -30.101562 L 34.621094 -30.101562 L 34.621094 1.46875 Z M 10.019531 -4.785156 L 12.882812 -4.785156 L 12.882812 -14.390625 C 12.882812 -16.160156 12.65625 -18.796875 12.507812 -20.570312 L 12.65625 -20.570312 L 14.351562 -16.160156 L 18.082031 -6.628906 L 19.589844 -6.628906 L 23.320312 -16.160156 L 24.976562 -20.570312 L 25.128906 -20.570312 C 24.976562 -18.761719 24.75 -16.160156 24.75 -14.390625 L 24.75 -4.785156 L 27.6875 -4.785156 L 27.6875 -24.296875 L 24.109375 -24.296875 L 20.378906 -14.351562 L 18.949219 -10.511719 L 18.796875 -10.511719 L 17.367188 -14.351562 L 13.5625 -24.296875 L 10.019531 -24.296875 Z M 10.019531 -4.785156 "/></g></g></g><g fill="#ffffff" fill-opacity="1"><g transform="translate(533.708509, 480.44414)"><g><path d="M 1.882812 2.636719 L 35.789062 2.636719 L 35.789062 -31.269531 L 1.882812 -31.269531 Z M 3.050781 1.46875 L 3.050781 -30.101562 L 34.621094 -30.101562 L 34.621094 1.46875 Z M 12.320312 -4.785156 L 15.519531 -4.785156 L 15.519531 -12.167969 L 19.023438 -12.167969 C 23.621094 -12.167969 26.898438 -14.089844 26.898438 -18.347656 C 26.898438 -22.828125 23.660156 -24.296875 19.023438 -24.296875 L 12.320312 -24.296875 Z M 15.519531 -14.464844 L 15.519531 -21.773438 L 18.722656 -21.773438 C 22.152344 -21.773438 23.808594 -20.832031 23.808594 -18.195312 C 23.808594 -15.671875 22.226562 -14.464844 18.796875 -14.464844 Z M 15.519531 -14.464844 "/></g></g></g><g fill="#ffffff" fill-opacity="1"><g transform="translate(571.372627, 480.44414)"><g><path d="M 1.882812 2.636719 L 35.789062 2.636719 L 35.789062 -31.269531 L 1.882812 -31.269531 Z M 3.050781 1.46875 L 3.050781 -30.101562 L 34.621094 -30.101562 L 34.621094 1.46875 Z M 18.835938 -4.332031 C 24.222656 -4.332031 27.992188 -8.289062 27.992188 -14.617188 C 27.992188 -20.945312 24.222656 -24.75 18.835938 -24.75 C 13.449219 -24.75 9.644531 -20.984375 9.644531 -14.617188 C 9.644531 -8.289062 13.449219 -4.332031 18.835938 -4.332031 Z M 18.835938 -7.007812 C 15.257812 -7.007812 12.921875 -9.945312 12.921875 -14.617188 C 12.921875 -19.289062 15.257812 -22.074219 18.835938 -22.074219 C 22.414062 -22.074219 24.714844 -19.289062 24.714844 -14.617188 C 24.714844 -9.945312 22.414062 -7.007812 18.835938 -7.007812 Z M 18.835938 -7.007812 "/></g></g></g><g fill="#ffffff" fill-opacity="1"><g transform="translate(609.036745, 480.44414)"><g><path d="M 1.882812 2.636719 L 35.789062 2.636719 L 35.789062 -31.269531 L 1.882812 -31.269531 Z M 3.050781 1.46875 L 3.050781 -30.101562 L 34.621094 -30.101562 L 34.621094 1.46875 Z M 11.1875 -4.785156 L 14.84375 -4.785156 L 17.742188 -15.671875 C 18.121094 -17.214844 18.421875 -18.6875 18.761719 -20.15625 L 18.910156 -20.15625 C 19.214844 -18.6875 19.550781 -17.214844 19.890625 -15.671875 L 22.867188 -4.785156 L 26.597656 -4.785156 L 30.855469 -24.261719 L 27.878906 -24.261719 L 25.84375 -14.128906 C 25.429688 -12.09375 25.089844 -9.984375 24.714844 -7.875 L 24.5625 -7.875 C 24.074219 -9.984375 23.546875 -12.09375 23.019531 -14.128906 L 20.304688 -24.261719 L 17.59375 -24.261719 L 14.804688 -14.128906 C 14.316406 -12.054688 13.75 -9.945312 13.296875 -7.875 L 13.183594 -7.875 C 12.769531 -9.945312 12.394531 -12.054688 12.015625 -14.128906 L 9.945312 -24.261719 L 6.820312 -24.261719 Z M 11.1875 -4.785156 "/></g></g></g><g fill="#ffffff" fill-opacity="1"><g transform="translate(646.700862, 480.44414)"><g><path d="M 1.882812 2.636719 L 35.789062 2.636719 L 35.789062 -31.269531 L 1.882812 -31.269531 Z M 3.050781 1.46875 L 3.050781 -30.101562 L 34.621094 -30.101562 L 34.621094 1.46875 Z M 13.148438 -4.785156 L 25.84375 -4.785156 L 25.84375 -7.308594 L 16.3125 -7.308594 L 16.3125 -13.75 L 24.074219 -13.75 L 24.074219 -16.199219 L 16.3125 -16.199219 L 16.3125 -21.773438 L 25.464844 -21.773438 L 25.464844 -24.296875 L 13.148438 -24.296875 Z M 13.148438 -4.785156 "/></g></g></g><g fill="#ffffff" fill-opacity="1"><g transform="translate(477.212304, 517.944138)"><g><path d="M 15.070312 -21.773438 L 18.269531 -21.773438 C 21.398438 -21.773438 23.132812 -20.871094 23.132812 -18.421875 C 23.132812 -16.125 21.511719 -14.878906 18.269531 -14.878906 L 15.070312 -14.878906 Z M 15.070312 -12.621094 L 18.648438 -12.621094 L 23.46875 -4.785156 L 26.824219 -4.785156 L 21.699219 -12.996094 C 24.410156 -13.75 26.183594 -15.632812 26.183594 -18.609375 C 26.183594 -22.828125 22.980469 -24.296875 18.648438 -24.296875 L 11.867188 -24.296875 L 11.867188 -4.785156 L 15.070312 -4.785156 Z M 34.621094 1.46875 L 3.050781 1.46875 L 3.050781 -30.101562 L 34.621094 -30.101562 Z M 1.882812 -31.269531 L 1.882812 2.636719 L 35.789062 2.636719 L 35.789062 -31.269531 Z M 1.882812 -31.269531 "/></g></g></g><g fill="#ffffff" fill-opacity="1"><g transform="translate(514.876422, 517.944138)"><g><path d="M 1.882812 2.636719 L 35.789062 2.636719 L 35.789062 -31.269531 L 1.882812 -31.269531 Z M 3.050781 1.46875 L 3.050781 -30.101562 L 34.621094 -30.101562 L 34.621094 1.46875 Z M 10.019531 -4.785156 L 12.882812 -4.785156 L 12.882812 -14.390625 C 12.882812 -16.160156 12.65625 -18.796875 12.507812 -20.570312 L 12.65625 -20.570312 L 14.351562 -16.160156 L 18.082031 -6.628906 L 19.589844 -6.628906 L 23.320312 -16.160156 L 24.976562 -20.570312 L 25.128906 -20.570312 C 24.976562 -18.761719 24.75 -16.160156 24.75 -14.390625 L 24.75 -4.785156 L 27.6875 -4.785156 L 27.6875 -24.296875 L 24.109375 -24.296875 L 20.378906 -14.351562 L 18.949219 -10.511719 L 18.796875 -10.511719 L 17.367188 -14.351562 L 13.5625 -24.296875 L 10.019531 -24.296875 Z M 10.019531 -4.785156 "/></g></g></g><g fill="#ffffff" fill-opacity="1"><g transform="translate(552.54054, 517.944138)"><g><path d="M 1.882812 2.636719 L 35.789062 2.636719 L 35.789062 -31.269531 L 1.882812 -31.269531 Z M 3.050781 1.46875 L 3.050781 -30.101562 L 34.621094 -30.101562 L 34.621094 1.46875 Z M 13.148438 -4.785156 L 25.84375 -4.785156 L 25.84375 -7.308594 L 16.3125 -7.308594 L 16.3125 -13.75 L 24.074219 -13.75 L 24.074219 -16.199219 L 16.3125 -16.199219 L 16.3125 -21.773438 L 25.464844 -21.773438 L 25.464844 -24.296875 L 13.148438 -24.296875 Z M 13.148438 -4.785156 "/></g></g></g><g fill="#ffffff" fill-opacity="1"><g transform="translate(590.204657, 517.944138)"><g><path d="M 1.882812 2.636719 L 35.789062 2.636719 L 35.789062 -31.269531 L 1.882812 -31.269531 Z M 3.050781 1.46875 L 3.050781 -30.101562 L 34.621094 -30.101562 L 34.621094 1.46875 Z M 11.1875 -4.785156 L 14.089844 -4.785156 L 14.089844 -13.9375 C 14.089844 -16.046875 13.863281 -18.421875 13.710938 -20.492188 L 13.863281 -20.492188 L 16.160156 -16.238281 L 23.28125 -4.785156 L 26.484375 -4.785156 L 26.484375 -24.296875 L 23.546875 -24.296875 L 23.546875 -15.21875 C 23.546875 -13.074219 23.769531 -10.585938 23.960938 -8.628906 L 23.808594 -8.628906 L 21.511719 -12.808594 L 14.390625 -24.296875 L 11.1875 -24.296875 Z M 11.1875 -4.785156 "/></g></g></g><g fill="#ffffff" fill-opacity="1"><g transform="translate(627.868775, 517.944138)"><g><path d="M 1.882812 2.636719 L 35.789062 2.636719 L 35.789062 -31.269531 L 1.882812 -31.269531 Z M 3.050781 1.46875 L 3.050781 -30.101562 L 34.621094 -30.101562 L 34.621094 1.46875 Z M 17.214844 -4.785156 L 20.417969 -4.785156 L 20.417969 -21.660156 L 26.597656 -21.660156 L 26.597656 -24.296875 L 11.074219 -24.296875 L 11.074219 -21.660156 L 17.214844 -21.660156 Z M 17.214844 -4.785156 "/></g></g></g><g fill="#ffffff" fill-opacity="1"><g transform="translate(87.539062, 695.677017)"><g><path d="M 10.875 0.273438 C 16.25 0.273438 20.023438 -3.625 20.023438 -8.75 C 20.023438 -13.898438 16.273438 -17.75 10.875 -17.75 C 5.472656 -17.75 1.726562 -13.898438 1.726562 -8.75 C 1.726562 -3.601562 5.472656 0.273438 10.875 0.273438 Z M 7 -11.074219 C 7.097656 -13.324219 8.675781 -14.699219 11.125 -14.699219 C 13.546875 -14.699219 15.25 -13.324219 15.25 -11.25 C 15.25 -9.949219 14.523438 -8.898438 13.097656 -8.125 C 12.046875 -7.550781 11.875 -7.050781 11.875 -6.449219 L 11.875 -6.097656 L 9.875 -6.097656 L 9.875 -6.625 C 9.875 -7.898438 10.425781 -8.75 11.75 -9.398438 C 12.75 -9.925781 13.171875 -10.398438 13.171875 -11.222656 C 13.171875 -12.273438 12.398438 -12.875 11.148438 -12.875 C 9.875 -12.875 9.074219 -12.222656 9 -11.074219 Z M 9.5 -3.425781 C 9.5 -4.199219 10.074219 -4.773438 10.875 -4.773438 C 11.699219 -4.773438 12.273438 -4.199219 12.273438 -3.425781 C 12.273438 -2.625 11.699219 -2.050781 10.875 -2.050781 C 10.074219 -2.050781 9.5 -2.601562 9.5 -3.425781 Z M 9.5 -3.425781 "/></g></g></g><g fill="#ffffff" fill-opacity="1"><g transform="translate(109.285616, 695.677017)"><g><path d="M 5.953125 -18.46875 C 7.910156 -18.46875 9.628906 -17.890625 11.109375 -16.734375 C 12.585938 -15.585938 13.328125 -13.988281 13.328125 -11.9375 C 13.328125 -10.789062 12.921875 -9.597656 12.109375 -8.359375 C 11.296875 -7.128906 9.851562 -6.195312 7.78125 -5.5625 C 6.8125 -5.269531 5.765625 -5.125 4.640625 -5.125 L 4.640625 0 L 2.4375 0 L 2.4375 -18.21875 C 3.757812 -18.382812 4.929688 -18.46875 5.953125 -18.46875 Z M 4.640625 -7.328125 C 6.796875 -7.328125 8.414062 -7.796875 9.5 -8.734375 C 10.59375 -9.660156 11.140625 -10.734375 11.140625 -11.953125 C 11.140625 -13.234375 10.570312 -14.316406 9.4375 -15.203125 C 8.507812 -15.910156 7.269531 -16.265625 5.71875 -16.265625 C 5.375 -16.265625 5.015625 -16.25 4.640625 -16.21875 Z M 4.640625 -7.328125 "/></g></g></g><g fill="#ffffff" fill-opacity="1"><g transform="translate(124.444379, 695.677017)"><g><path d="M 1.21875 -0.421875 L 8.0625 -18.21875 L 10.859375 -18.21875 L 17.703125 -0.421875 L 15.65625 0.359375 L 13.296875 -5.78125 L 5.625 -5.78125 L 3.265625 0.359375 Z M 6.46875 -7.96875 L 12.453125 -7.96875 L 9.453125 -15.734375 Z M 6.46875 -7.96875 "/></g></g></g><g fill="#ffffff" fill-opacity="1"><g transform="translate(143.36232, 695.677017)"><g><path d="M 15.578125 -14.1875 L 14.890625 -12.078125 L 9.25 -13.90625 L 9.25 0 L 7.0625 0 L 7.0625 -14.609375 L 1.21875 -16.484375 L 1.90625 -18.578125 Z M 15.578125 -14.1875 "/></g></g></g><g fill="#ffffff" fill-opacity="1"><g transform="translate(160.766826, 695.677017)"><g><path d="M 2.4375 -18.21875 L 4.640625 -18.21875 L 4.640625 0 L 2.4375 0 Z M 2.4375 -18.21875 "/></g></g></g><g fill="#ffffff" fill-opacity="1"><g transform="translate(167.845797, 695.677017)"><g><path d="M 15.578125 -14.1875 L 14.890625 -12.078125 L 9.25 -13.90625 L 9.25 0 L 7.0625 0 L 7.0625 -14.609375 L 1.21875 -16.484375 L 1.90625 -18.578125 Z M 15.578125 -14.1875 "/></g></g></g><g fill="#ffffff" fill-opacity="1"><g transform="translate(185.250303, 695.677017)"><g><path d="M 13.84375 0.453125 C 13.84375 0.597656 13.757812 0.671875 13.59375 0.671875 C 12.726562 0.671875 11.820312 0.289062 10.875 -0.46875 C 9.519531 0.289062 7.742188 0.671875 5.546875 0.671875 C 5.203125 0.671875 4.835938 0.609375 4.453125 0.484375 C 4.066406 0.359375 3.65625 0.132812 3.21875 -0.1875 C 2.789062 -0.507812 2.410156 -0.914062 2.078125 -1.40625 C 1.742188 -1.90625 1.46875 -2.5625 1.25 -3.375 C 1.03125 -4.1875 0.921875 -5.101562 0.921875 -6.125 C 0.921875 -7.570312 1.25 -9.039062 1.90625 -10.53125 C 2.570312 -12.03125 3.445312 -13.046875 4.53125 -13.578125 C 4.570312 -13.585938 4.632812 -13.59375 4.71875 -13.59375 C 4.84375 -13.59375 4.957031 -13.550781 5.0625 -13.46875 C 5.164062 -13.382812 5.21875 -13.296875 5.21875 -13.203125 C 5.21875 -13.171875 5.144531 -13.0625 5 -12.875 C 4.863281 -12.6875 4.695312 -12.414062 4.5 -12.0625 C 4.300781 -11.71875 4.097656 -11.300781 3.890625 -10.8125 C 3.691406 -10.320312 3.519531 -9.664062 3.375 -8.84375 C 3.238281 -8.03125 3.171875 -7.140625 3.171875 -6.171875 C 3.171875 -5.773438 3.210938 -5.304688 3.296875 -4.765625 C 3.378906 -4.222656 3.507812 -3.632812 3.6875 -3 C 3.875 -2.363281 4.148438 -1.828125 4.515625 -1.390625 C 4.890625 -0.960938 5.328125 -0.75 5.828125 -0.75 C 6.890625 -0.75 7.757812 -0.875 8.4375 -1.125 C 9.113281 -1.375 9.550781 -1.628906 9.75 -1.890625 C 9.945312 -2.160156 10.046875 -2.429688 10.046875 -2.703125 L 10.046875 -9.21875 C 10.046875 -9.800781 9.960938 -10.289062 9.796875 -10.6875 C 9.628906 -11.09375 9.445312 -11.367188 9.25 -11.515625 C 9.0625 -11.671875 8.882812 -11.832031 8.71875 -12 C 8.550781 -12.164062 8.46875 -12.332031 8.46875 -12.5 C 8.46875 -13.1875 9.320312 -13.53125 11.03125 -13.53125 C 12.625 -13.53125 13.421875 -13.296875 13.421875 -12.828125 C 13.421875 -12.710938 13.191406 -12.390625 12.734375 -11.859375 C 12.273438 -11.335938 12.046875 -10.925781 12.046875 -10.625 C 12.046875 -9.3125 12.082031 -8.132812 12.15625 -7.09375 C 12.238281 -6.050781 12.304688 -5.328125 12.359375 -4.921875 C 12.421875 -4.523438 12.519531 -4.035156 12.65625 -3.453125 C 12.800781 -2.867188 12.875 -2.566406 12.875 -2.546875 C 12.976562 -1.867188 13.164062 -1.21875 13.4375 -0.59375 C 13.707031 0.0195312 13.84375 0.367188 13.84375 0.453125 Z M 13.84375 0.453125 "/></g></g></g><g fill="#ffffff" fill-opacity="1"><g transform="translate(199.748009, 695.677017)"><g><path d="M 2.4375 0 L 2.4375 -18.1875 L 3.546875 -18.1875 C 6.703125 -18.1875 8.921875 -17.695312 10.203125 -16.71875 C 11.492188 -15.726562 12.242188 -14.21875 12.453125 -12.1875 C 12.535156 -11.375 12.578125 -10.125 12.578125 -8.4375 C 12.578125 -6.75 12.414062 -5.390625 12.09375 -4.359375 C 11.632812 -2.859375 10.738281 -1.753906 9.40625 -1.046875 C 8.082031 -0.347656 6.128906 0 3.546875 0 Z M 4.640625 -2.34375 C 6.316406 -2.40625 7.554688 -2.640625 8.359375 -3.046875 C 9.171875 -3.453125 9.707031 -4.082031 9.96875 -4.9375 C 10.238281 -5.800781 10.375 -7.003906 10.375 -8.546875 C 10.375 -10.085938 10.332031 -11.226562 10.25 -11.96875 C 10.101562 -13.375 9.644531 -14.367188 8.875 -14.953125 C 8.113281 -15.546875 6.703125 -15.882812 4.640625 -15.96875 Z M 4.640625 -2.34375 "/></g></g></g><g fill="#ffffff" fill-opacity="1"><g transform="translate(214.760311, 695.677017)"><g><path d="M 4.640625 -3.78125 L 4.640625 0 L 2.4375 0 L 2.4375 -18.578125 L 11.28125 -17.15625 L 10.9375 -14.984375 L 4.640625 -15.984375 L 4.640625 -12.125 L 11.28125 -11.046875 L 10.9375 -8.875 L 4.640625 -9.890625 L 4.640625 -6.015625 L 11.28125 -4.9375 L 10.9375 -2.765625 Z M 4.640625 -3.78125 "/></g></g></g><g fill="#ffffff" fill-opacity="1"><g transform="translate(252.031939, 695.677017)"><g><path d="M 4.84375 -8 L 4.84375 -1.203125 L 14.078125 -1.203125 L 14.078125 -4.703125 C 14.078125 -5.234375 14.285156 -5.5 14.703125 -5.5 C 15.097656 -5.5 15.296875 -5.234375 15.296875 -4.703125 L 15.296875 0 L 2.046875 0 C 1.535156 0 1.28125 -0.207031 1.28125 -0.625 C 1.28125 -1.007812 1.535156 -1.203125 2.046875 -1.203125 L 3.65625 -1.203125 L 3.65625 -15.34375 L 2.046875 -15.34375 C 1.535156 -15.34375 1.28125 -15.550781 1.28125 -15.96875 C 1.28125 -16.351562 1.535156 -16.546875 2.046875 -16.546875 L 14.671875 -16.546875 L 14.671875 -12.46875 C 14.671875 -11.9375 14.460938 -11.671875 14.046875 -11.671875 C 13.660156 -11.671875 13.46875 -11.9375 13.46875 -12.46875 L 13.46875 -15.34375 L 4.84375 -15.34375 L 4.84375 -9.203125 L 9.125 -9.203125 L 9.125 -10.53125 C 9.125 -11.0625 9.320312 -11.328125 9.71875 -11.328125 C 10.125 -11.328125 10.328125 -11.0625 10.328125 -10.53125 L 10.328125 -6.671875 C 10.328125 -6.140625 10.125 -5.875 9.71875 -5.875 C 9.320312 -5.875 9.125 -6.140625 9.125 -6.671875 L 9.125 -8 Z M 4.84375 -8 "/></g></g></g><g fill="#ffffff" fill-opacity="1"><g transform="translate(269.654146, 695.677017)"><g><path d="M 9.671875 -6.453125 L 15.078125 -1.203125 L 15.34375 -1.203125 C 15.882812 -1.203125 16.15625 -1.007812 16.15625 -0.625 C 16.15625 -0.207031 15.882812 0 15.34375 0 L 11.46875 0 C 10.9375 0 10.671875 -0.207031 10.671875 -0.625 C 10.671875 -1.007812 10.9375 -1.203125 11.46875 -1.203125 L 13.375 -1.203125 L 8.828125 -5.578125 L 4.203125 -1.203125 L 6.203125 -1.203125 C 6.734375 -1.203125 7 -1.007812 7 -0.625 C 7 -0.207031 6.734375 0 6.203125 0 L 2.296875 0 C 1.765625 0 1.5 -0.207031 1.5 -0.625 C 1.5 -1.007812 1.765625 -1.203125 2.296875 -1.203125 L 2.546875 -1.203125 L 7.96875 -6.453125 L 3.171875 -11.046875 L 2.96875 -11.046875 C 2.4375 -11.046875 2.171875 -11.253906 2.171875 -11.671875 C 2.171875 -12.054688 2.4375 -12.25 2.96875 -12.25 L 6.21875 -12.25 C 6.757812 -12.25 7.03125 -12.054688 7.03125 -11.671875 C 7.03125 -11.253906 6.757812 -11.046875 6.21875 -11.046875 L 4.875 -11.046875 L 8.828125 -7.21875 L 12.84375 -11.046875 L 11.421875 -11.046875 C 10.910156 -11.046875 10.65625 -11.253906 10.65625 -11.671875 C 10.65625 -12.054688 10.910156 -12.25 11.421875 -12.25 L 14.671875 -12.25 C 15.203125 -12.25 15.46875 -12.054688 15.46875 -11.671875 C 15.46875 -11.253906 15.203125 -11.046875 14.671875 -11.046875 L 14.46875 -11.046875 Z M 9.671875 -6.453125 "/></g></g></g><g fill="#ffffff" fill-opacity="1"><g transform="translate(287.276353, 695.677017)"><g><path d="M 15.71875 -2.578125 C 15.71875 -2.441406 15.617188 -2.253906 15.421875 -2.015625 C 15.222656 -1.785156 14.921875 -1.523438 14.515625 -1.234375 C 14.117188 -0.941406 13.660156 -0.671875 13.140625 -0.421875 C 12.628906 -0.171875 12.007812 0.0351562 11.28125 0.203125 C 10.5625 0.378906 9.828125 0.46875 9.078125 0.46875 C 7.160156 0.46875 5.578125 -0.132812 4.328125 -1.34375 C 3.085938 -2.5625 2.46875 -4.113281 2.46875 -6 C 2.46875 -7.9375 3.101562 -9.53125 4.375 -10.78125 C 5.644531 -12.039062 7.257812 -12.671875 9.21875 -12.671875 C 11.070312 -12.671875 12.609375 -12.128906 13.828125 -11.046875 L 13.828125 -11.421875 C 13.828125 -11.972656 14.023438 -12.25 14.421875 -12.25 C 14.828125 -12.25 15.03125 -11.972656 15.03125 -11.421875 L 15.03125 -8.75 C 15.03125 -8.226562 14.828125 -7.96875 14.421875 -7.96875 C 14.078125 -7.96875 13.878906 -8.203125 13.828125 -8.671875 C 13.753906 -9.453125 13.265625 -10.113281 12.359375 -10.65625 C 11.453125 -11.195312 10.382812 -11.46875 9.15625 -11.46875 C 7.53125 -11.46875 6.207031 -10.960938 5.1875 -9.953125 C 4.175781 -8.953125 3.671875 -7.644531 3.671875 -6.03125 C 3.671875 -4.488281 4.179688 -3.21875 5.203125 -2.21875 C 6.234375 -1.21875 7.550781 -0.71875 9.15625 -0.71875 C 11.25 -0.71875 13.082031 -1.425781 14.65625 -2.84375 C 14.851562 -3.050781 15.023438 -3.15625 15.171875 -3.15625 C 15.328125 -3.15625 15.457031 -3.09375 15.5625 -2.96875 C 15.664062 -2.851562 15.71875 -2.722656 15.71875 -2.578125 Z M 15.71875 -2.578125 "/></g></g></g><g fill="#ffffff" fill-opacity="1"><g transform="translate(304.89856, 695.677017)"><g><path d="M 9.40625 -12.25 L 9.40625 -1.203125 L 14.09375 -1.203125 C 14.644531 -1.203125 14.921875 -1.007812 14.921875 -0.625 C 14.921875 -0.207031 14.644531 0 14.09375 0 L 3.5 0 C 2.96875 0 2.703125 -0.207031 2.703125 -0.625 C 2.703125 -1.007812 2.96875 -1.203125 3.5 -1.203125 L 8.203125 -1.203125 L 8.203125 -11.046875 L 4.71875 -11.046875 C 4.207031 -11.046875 3.953125 -11.253906 3.953125 -11.671875 C 3.953125 -12.054688 4.207031 -12.25 4.71875 -12.25 Z M 9.34375 -18.34375 L 9.34375 -15.296875 L 7.625 -15.296875 L 7.625 -18.34375 Z M 9.34375 -18.34375 "/></g></g></g><g fill="#ffffff" fill-opacity="1"><g transform="translate(322.520766, 695.677017)"><g><path d="M 5.46875 -12.25 L 11.921875 -12.25 C 12.453125 -12.25 12.71875 -12.054688 12.71875 -11.671875 C 12.71875 -11.253906 12.453125 -11.046875 11.921875 -11.046875 L 5.46875 -11.046875 L 5.46875 -3.203125 C 5.46875 -2.453125 5.765625 -1.847656 6.359375 -1.390625 C 6.953125 -0.941406 7.75 -0.71875 8.75 -0.71875 C 9.582031 -0.71875 10.460938 -0.832031 11.390625 -1.0625 C 12.328125 -1.289062 13.082031 -1.570312 13.65625 -1.90625 C 13.820312 -2.019531 13.96875 -2.078125 14.09375 -2.078125 C 14.25 -2.078125 14.382812 -2.015625 14.5 -1.890625 C 14.613281 -1.773438 14.671875 -1.644531 14.671875 -1.5 C 14.671875 -1.082031 14.007812 -0.648438 12.6875 -0.203125 C 11.363281 0.242188 10.078125 0.46875 8.828125 0.46875 C 7.441406 0.46875 6.335938 0.140625 5.515625 -0.515625 C 4.691406 -1.171875 4.28125 -2.050781 4.28125 -3.15625 L 4.28125 -11.046875 L 2.078125 -11.046875 C 1.546875 -11.046875 1.28125 -11.253906 1.28125 -11.671875 C 1.28125 -12.054688 1.546875 -12.25 2.078125 -12.25 L 4.28125 -12.25 L 4.28125 -15.75 C 4.28125 -16.28125 4.476562 -16.546875 4.875 -16.546875 C 5.269531 -16.546875 5.46875 -16.28125 5.46875 -15.75 Z M 5.46875 -12.25 "/></g></g></g><g fill="#ffffff" fill-opacity="1"><g transform="translate(340.142973, 695.677017)"><g><path d="M 15.296875 -5.84375 L 3.046875 -5.84375 C 3.265625 -4.3125 3.914062 -3.070312 5 -2.125 C 6.082031 -1.1875 7.414062 -0.71875 9 -0.71875 C 9.914062 -0.71875 10.859375 -0.867188 11.828125 -1.171875 C 12.796875 -1.472656 13.570312 -1.859375 14.15625 -2.328125 C 14.332031 -2.460938 14.476562 -2.53125 14.59375 -2.53125 C 14.75 -2.53125 14.882812 -2.472656 15 -2.359375 C 15.113281 -2.253906 15.171875 -2.117188 15.171875 -1.953125 C 15.171875 -1.429688 14.46875 -0.894531 13.0625 -0.34375 C 11.664062 0.195312 10.300781 0.46875 8.96875 0.46875 C 6.988281 0.46875 5.304688 -0.191406 3.921875 -1.515625 C 2.535156 -2.835938 1.84375 -4.457031 1.84375 -6.375 C 1.84375 -8.144531 2.488281 -9.632812 3.78125 -10.84375 C 5.070312 -12.0625 6.660156 -12.671875 8.546875 -12.671875 C 10.535156 -12.671875 12.15625 -12.046875 13.40625 -10.796875 C 14.664062 -9.546875 15.296875 -7.894531 15.296875 -5.84375 Z M 3.046875 -7.046875 L 14.046875 -7.046875 C 13.816406 -8.378906 13.195312 -9.445312 12.1875 -10.25 C 11.175781 -11.0625 9.960938 -11.46875 8.546875 -11.46875 C 7.128906 -11.46875 5.925781 -11.066406 4.9375 -10.265625 C 3.945312 -9.472656 3.316406 -8.398438 3.046875 -7.046875 Z M 3.046875 -7.046875 "/></g></g></g><g fill="#ffffff" fill-opacity="1"><g transform="translate(357.76518, 695.677017)"><g><path d="M 3.296875 -12.25 L 3.296875 -10.71875 C 3.796875 -11.4375 4.28125 -11.941406 4.75 -12.234375 C 5.21875 -12.523438 5.757812 -12.671875 6.375 -12.671875 C 7.644531 -12.671875 8.59375 -11.972656 9.21875 -10.578125 C 10.300781 -11.972656 11.410156 -12.671875 12.546875 -12.671875 C 13.398438 -12.671875 14.128906 -12.359375 14.734375 -11.734375 C 15.347656 -11.109375 15.65625 -10.363281 15.65625 -9.5 L 15.65625 -1.203125 L 16.65625 -1.203125 C 17.164062 -1.203125 17.421875 -1.007812 17.421875 -0.625 C 17.421875 -0.207031 17.164062 0 16.65625 0 L 14.46875 0 L 14.46875 -9.375 C 14.46875 -9.9375 14.269531 -10.425781 13.875 -10.84375 C 13.488281 -11.257812 13.039062 -11.46875 12.53125 -11.46875 C 11.539062 -11.46875 10.519531 -10.660156 9.46875 -9.046875 L 9.46875 -1.203125 L 10.46875 -1.203125 C 10.988281 -1.203125 11.25 -1.007812 11.25 -0.625 C 11.25 -0.207031 10.988281 0 10.46875 0 L 8.296875 0 L 8.296875 -9.296875 C 8.296875 -9.867188 8.097656 -10.375 7.703125 -10.8125 C 7.316406 -11.25 6.875 -11.46875 6.375 -11.46875 C 5.394531 -11.46875 4.367188 -10.660156 3.296875 -9.046875 L 3.296875 -1.203125 L 4.296875 -1.203125 C 4.816406 -1.203125 5.078125 -1.007812 5.078125 -0.625 C 5.078125 -0.207031 4.816406 0 4.296875 0 L 1.09375 0 C 0.582031 0 0.328125 -0.207031 0.328125 -0.625 C 0.328125 -1.007812 0.59375 -1.203125 1.125 -1.203125 L 2.125 -1.203125 L 2.125 -11.046875 L 1.125 -11.046875 C 0.59375 -11.046875 0.328125 -11.253906 0.328125 -11.671875 C 0.328125 -12.054688 0.59375 -12.25 1.125 -12.25 Z M 3.296875 -12.25 "/></g></g></g><g fill="#ffffff" fill-opacity="1"><g transform="translate(375.387387, 695.677017)"><g><path d="M 15.296875 -5.84375 L 3.046875 -5.84375 C 3.265625 -4.3125 3.914062 -3.070312 5 -2.125 C 6.082031 -1.1875 7.414062 -0.71875 9 -0.71875 C 9.914062 -0.71875 10.859375 -0.867188 11.828125 -1.171875 C 12.796875 -1.472656 13.570312 -1.859375 14.15625 -2.328125 C 14.332031 -2.460938 14.476562 -2.53125 14.59375 -2.53125 C 14.75 -2.53125 14.882812 -2.472656 15 -2.359375 C 15.113281 -2.253906 15.171875 -2.117188 15.171875 -1.953125 C 15.171875 -1.429688 14.46875 -0.894531 13.0625 -0.34375 C 11.664062 0.195312 10.300781 0.46875 8.96875 0.46875 C 6.988281 0.46875 5.304688 -0.191406 3.921875 -1.515625 C 2.535156 -2.835938 1.84375 -4.457031 1.84375 -6.375 C 1.84375 -8.144531 2.488281 -9.632812 3.78125 -10.84375 C 5.070312 -12.0625 6.660156 -12.671875 8.546875 -12.671875 C 10.535156 -12.671875 12.15625 -12.046875 13.40625 -10.796875 C 14.664062 -9.546875 15.296875 -7.894531 15.296875 -5.84375 Z M 3.046875 -7.046875 L 14.046875 -7.046875 C 13.816406 -8.378906 13.195312 -9.445312 12.1875 -10.25 C 11.175781 -11.0625 9.960938 -11.46875 8.546875 -11.46875 C 7.128906 -11.46875 5.925781 -11.066406 4.9375 -10.265625 C 3.945312 -9.472656 3.316406 -8.398438 3.046875 -7.046875 Z M 3.046875 -7.046875 "/></g></g></g><g fill="#ffffff" fill-opacity="1"><g transform="translate(304.895218, 720.427016)"><g><path d="M 9.375 -11.46875 C 9.007812 -11.46875 8.660156 -11.4375 8.328125 -11.375 C 8.003906 -11.3125 7.707031 -11.203125 7.4375 -11.046875 C 7.164062 -10.898438 6.925781 -10.765625 6.71875 -10.640625 C 6.519531 -10.515625 6.3125 -10.332031 6.09375 -10.09375 C 5.882812 -9.863281 5.726562 -9.691406 5.625 -9.578125 C 5.519531 -9.472656 5.375 -9.300781 5.1875 -9.0625 C 5.007812 -8.820312 4.914062 -8.6875 4.90625 -8.65625 L 4.90625 -1.203125 L 6.21875 -1.203125 C 6.757812 -1.203125 7.03125 -1.007812 7.03125 -0.625 C 7.03125 -0.207031 6.757812 0 6.21875 0 L 2.375 0 C 1.820312 0 1.546875 -0.207031 1.546875 -0.625 C 1.546875 -1.007812 1.820312 -1.203125 2.375 -1.203125 L 3.703125 -1.203125 L 3.703125 -11.046875 L 2.703125 -11.046875 C 2.171875 -11.046875 1.90625 -11.253906 1.90625 -11.671875 C 1.90625 -12.054688 2.171875 -12.25 2.703125 -12.25 L 4.90625 -12.25 L 4.90625 -10.21875 C 5.769531 -11.175781 6.519531 -11.820312 7.15625 -12.15625 C 7.800781 -12.5 8.582031 -12.671875 9.5 -12.671875 C 10.800781 -12.671875 11.890625 -12.285156 12.765625 -11.515625 C 13.648438 -10.753906 14.09375 -9.804688 14.09375 -8.671875 L 14.09375 -1.203125 L 15.09375 -1.203125 C 15.632812 -1.203125 15.90625 -1.007812 15.90625 -0.625 C 15.90625 -0.207031 15.632812 0 15.09375 0 L 11.90625 0 C 11.382812 0 11.125 -0.207031 11.125 -0.625 C 11.125 -1.007812 11.382812 -1.203125 11.90625 -1.203125 L 12.90625 -1.203125 L 12.90625 -8.46875 C 12.90625 -9.320312 12.582031 -10.035156 11.9375 -10.609375 C 11.289062 -11.179688 10.4375 -11.46875 9.375 -11.46875 Z M 9.375 -11.46875 "/></g></g></g><g fill="#ffffff" fill-opacity="1"><g transform="translate(322.517424, 720.427016)"><g><path d="M 5.46875 -12.25 L 11.921875 -12.25 C 12.453125 -12.25 12.71875 -12.054688 12.71875 -11.671875 C 12.71875 -11.253906 12.453125 -11.046875 11.921875 -11.046875 L 5.46875 -11.046875 L 5.46875 -3.203125 C 5.46875 -2.453125 5.765625 -1.847656 6.359375 -1.390625 C 6.953125 -0.941406 7.75 -0.71875 8.75 -0.71875 C 9.582031 -0.71875 10.460938 -0.832031 11.390625 -1.0625 C 12.328125 -1.289062 13.082031 -1.570312 13.65625 -1.90625 C 13.820312 -2.019531 13.96875 -2.078125 14.09375 -2.078125 C 14.25 -2.078125 14.382812 -2.015625 14.5 -1.890625 C 14.613281 -1.773438 14.671875 -1.644531 14.671875 -1.5 C 14.671875 -1.082031 14.007812 -0.648438 12.6875 -0.203125 C 11.363281 0.242188 10.078125 0.46875 8.828125 0.46875 C 7.441406 0.46875 6.335938 0.140625 5.515625 -0.515625 C 4.691406 -1.171875 4.28125 -2.050781 4.28125 -3.15625 L 4.28125 -11.046875 L 2.078125 -11.046875 C 1.546875 -11.046875 1.28125 -11.253906 1.28125 -11.671875 C 1.28125 -12.054688 1.546875 -12.25 2.078125 -12.25 L 4.28125 -12.25 L 4.28125 -15.75 C 4.28125 -16.28125 4.476562 -16.546875 4.875 -16.546875 C 5.269531 -16.546875 5.46875 -16.28125 5.46875 -15.75 Z M 5.46875 -12.25 "/></g></g></g><g fill="#ffffff" fill-opacity="1"><g transform="translate(439.938887, 695.677017)"><g><path d="M 6.546875 -7.578125 L 6.546875 -2.921875 C 6.546875 -2.003906 6.664062 -1.425781 6.90625 -1.1875 C 7.15625 -0.945312 7.769531 -0.757812 8.75 -0.625 L 8.75 0 L 0.40625 0 L 0.40625 -0.625 C 0.769531 -0.6875 0.96875 -0.71875 1 -0.71875 C 1.582031 -0.789062 1.976562 -0.976562 2.1875 -1.28125 C 2.394531 -1.59375 2.5 -2.140625 2.5 -2.921875 L 2.5 -13.96875 C 2.5 -14.851562 2.363281 -15.441406 2.09375 -15.734375 C 1.832031 -16.023438 1.269531 -16.207031 0.40625 -16.28125 L 0.40625 -16.90625 L 8.453125 -16.90625 C 10.535156 -16.90625 12.144531 -16.507812 13.28125 -15.71875 C 14.425781 -14.925781 15 -13.800781 15 -12.34375 C 15 -11.382812 14.726562 -10.535156 14.1875 -9.796875 C 13.644531 -9.066406 12.875 -8.507812 11.875 -8.125 C 11.320312 -7.90625 10.71875 -7.757812 10.0625 -7.6875 C 9.414062 -7.625 8.242188 -7.585938 6.546875 -7.578125 Z M 6.546875 -8.453125 C 8.179688 -8.453125 9.28125 -8.703125 9.84375 -9.203125 C 10.414062 -9.703125 10.703125 -10.707031 10.703125 -12.21875 C 10.703125 -13.570312 10.472656 -14.546875 10.015625 -15.140625 C 9.566406 -15.734375 8.828125 -16.03125 7.796875 -16.03125 C 6.960938 -16.03125 6.546875 -15.738281 6.546875 -15.15625 Z M 6.546875 -8.453125 "/></g></g></g><g fill="#ffffff" fill-opacity="1"><g transform="translate(455.211473, 695.677017)"><g><path d="M 9.28125 -8.203125 C 8.894531 -8.203125 8.554688 -8.328125 8.265625 -8.578125 C 7.972656 -8.828125 7.734375 -9.070312 7.546875 -9.3125 C 7.367188 -9.550781 7.210938 -9.671875 7.078125 -9.671875 C 6.660156 -9.671875 6.300781 -9.4375 6 -8.96875 C 5.695312 -8.507812 5.546875 -7.953125 5.546875 -7.296875 L 5.546875 -2.578125 C 5.546875 -1.796875 5.65625 -1.28125 5.875 -1.03125 C 6.101562 -0.789062 6.601562 -0.644531 7.375 -0.59375 L 7.375 0 L 0.71875 0 L 0.71875 -0.59375 C 1.269531 -0.695312 1.632812 -0.84375 1.8125 -1.03125 C 1.988281 -1.226562 2.078125 -1.582031 2.078125 -2.09375 L 2.078125 -9.453125 C 2.078125 -9.953125 1.984375 -10.304688 1.796875 -10.515625 C 1.617188 -10.722656 1.257812 -10.859375 0.71875 -10.921875 L 0.71875 -11.53125 L 5.453125 -11.53125 L 5.453125 -9.46875 C 6.035156 -10.300781 6.585938 -10.898438 7.109375 -11.265625 C 7.640625 -11.640625 8.210938 -11.828125 8.828125 -11.828125 C 9.410156 -11.828125 9.890625 -11.640625 10.265625 -11.265625 C 10.648438 -10.898438 10.84375 -10.4375 10.84375 -9.875 C 10.84375 -9.394531 10.695312 -8.992188 10.40625 -8.671875 C 10.113281 -8.359375 9.738281 -8.203125 9.28125 -8.203125 Z M 9.28125 -8.203125 "/></g></g></g><g fill="#ffffff" fill-opacity="1"><g transform="translate(466.309713, 695.677017)"><g><path d="M 5.203125 -11.53125 L 5.203125 -2.03125 C 5.203125 -1.5625 5.285156 -1.222656 5.453125 -1.015625 C 5.628906 -0.804688 5.9375 -0.664062 6.375 -0.59375 L 6.375 0 L 0.40625 0 L 0.40625 -0.59375 C 0.96875 -0.726562 1.328125 -0.882812 1.484375 -1.0625 C 1.640625 -1.238281 1.71875 -1.582031 1.71875 -2.09375 L 1.71875 -9.453125 C 1.71875 -9.960938 1.632812 -10.304688 1.46875 -10.484375 C 1.300781 -10.660156 0.945312 -10.804688 0.40625 -10.921875 L 0.40625 -11.53125 Z M 2.078125 -16.71875 C 2.460938 -17.09375 2.921875 -17.28125 3.453125 -17.28125 C 3.984375 -17.28125 4.4375 -17.085938 4.8125 -16.703125 C 5.1875 -16.316406 5.375 -15.859375 5.375 -15.328125 C 5.375 -14.773438 5.1875 -14.316406 4.8125 -13.953125 C 4.4375 -13.585938 3.972656 -13.40625 3.421875 -13.40625 C 2.867188 -13.40625 2.410156 -13.585938 2.046875 -13.953125 C 1.679688 -14.316406 1.5 -14.78125 1.5 -15.34375 C 1.5 -15.882812 1.691406 -16.34375 2.078125 -16.71875 Z M 2.078125 -16.71875 "/></g></g></g><g fill="#ffffff" fill-opacity="1"><g transform="translate(473.258611, 695.677017)"><g><path d="M 8.46875 0.328125 L 8.46875 -1.296875 C 7.882812 -0.679688 7.351562 -0.253906 6.875 -0.015625 C 6.394531 0.222656 5.820312 0.34375 5.15625 0.34375 C 3.832031 0.34375 2.742188 -0.207031 1.890625 -1.3125 C 1.046875 -2.414062 0.625 -3.820312 0.625 -5.53125 C 0.625 -7.34375 1.078125 -8.84375 1.984375 -10.03125 C 2.890625 -11.226562 4.035156 -11.828125 5.421875 -11.828125 C 5.992188 -11.828125 6.5 -11.710938 6.9375 -11.484375 C 7.375 -11.265625 7.863281 -10.863281 8.40625 -10.28125 L 8.40625 -14.84375 C 8.40625 -15.425781 8.296875 -15.796875 8.078125 -15.953125 C 7.859375 -16.117188 7.332031 -16.234375 6.5 -16.296875 L 6.5 -16.90625 L 11.875 -16.90625 L 11.875 -2.53125 C 11.875 -1.988281 11.976562 -1.617188 12.1875 -1.421875 C 12.394531 -1.222656 12.78125 -1.109375 13.34375 -1.078125 L 13.34375 -0.5 L 11.796875 -0.296875 C 10.566406 -0.160156 9.457031 0.046875 8.46875 0.328125 Z M 6.28125 -1.046875 C 6.820312 -1.046875 7.3125 -1.28125 7.75 -1.75 C 8.1875 -2.226562 8.40625 -2.578125 8.40625 -2.796875 L 8.40625 -8.875 C 8.238281 -9.34375 7.972656 -9.71875 7.609375 -10 C 7.253906 -10.28125 6.867188 -10.421875 6.453125 -10.421875 C 5.035156 -10.421875 4.328125 -8.851562 4.328125 -5.71875 C 4.328125 -2.601562 4.976562 -1.046875 6.28125 -1.046875 Z M 6.28125 -1.046875 "/></g></g></g><g fill="#ffffff" fill-opacity="1"><g transform="translate(487.156407, 695.677017)"><g><path d="M 4.21875 -6.125 C 4.238281 -5.675781 4.273438 -5.269531 4.328125 -4.90625 C 4.378906 -4.550781 4.46875 -4.144531 4.59375 -3.6875 C 4.71875 -3.226562 4.882812 -2.847656 5.09375 -2.546875 C 5.300781 -2.242188 5.582031 -1.984375 5.9375 -1.765625 C 6.289062 -1.554688 6.710938 -1.453125 7.203125 -1.453125 C 7.734375 -1.453125 8.210938 -1.578125 8.640625 -1.828125 C 9.078125 -2.078125 9.546875 -2.507812 10.046875 -3.125 L 10.65625 -2.78125 C 9.832031 -1.613281 9.066406 -0.800781 8.359375 -0.34375 C 7.648438 0.113281 6.789062 0.34375 5.78125 0.34375 C 4.226562 0.34375 2.976562 -0.207031 2.03125 -1.3125 C 1.09375 -2.414062 0.625 -3.878906 0.625 -5.703125 C 0.625 -7.535156 1.101562 -9.015625 2.0625 -10.140625 C 3.019531 -11.265625 4.28125 -11.828125 5.84375 -11.828125 C 8.695312 -11.828125 10.257812 -9.925781 10.53125 -6.125 Z M 7.453125 -7.421875 C 7.429688 -7.953125 7.410156 -8.359375 7.390625 -8.640625 C 7.378906 -8.929688 7.335938 -9.253906 7.265625 -9.609375 C 7.203125 -9.972656 7.113281 -10.238281 7 -10.40625 C 6.894531 -10.582031 6.75 -10.734375 6.5625 -10.859375 C 6.375 -10.984375 6.132812 -11.046875 5.84375 -11.046875 C 5.226562 -11.046875 4.789062 -10.753906 4.53125 -10.171875 C 4.28125 -9.585938 4.132812 -8.546875 4.09375 -7.046875 L 7.453125 -7.046875 Z M 7.453125 -7.421875 "/></g></g></g><g fill="#ffffff" fill-opacity="1"><g transform="translate(498.254646, 695.677017)"><g><path d="M 10.875 0.273438 C 16.25 0.273438 20.023438 -3.625 20.023438 -8.75 C 20.023438 -13.898438 16.273438 -17.75 10.875 -17.75 C 5.472656 -17.75 1.726562 -13.898438 1.726562 -8.75 C 1.726562 -3.601562 5.472656 0.273438 10.875 0.273438 Z M 7 -11.074219 C 7.097656 -13.324219 8.675781 -14.699219 11.125 -14.699219 C 13.546875 -14.699219 15.25 -13.324219 15.25 -11.25 C 15.25 -9.949219 14.523438 -8.898438 13.097656 -8.125 C 12.046875 -7.550781 11.875 -7.050781 11.875 -6.449219 L 11.875 -6.097656 L 9.875 -6.097656 L 9.875 -6.625 C 9.875 -7.898438 10.425781 -8.75 11.75 -9.398438 C 12.75 -9.925781 13.171875 -10.398438 13.171875 -11.222656 C 13.171875 -12.273438 12.398438 -12.875 11.148438 -12.875 C 9.875 -12.875 9.074219 -12.222656 9 -11.074219 Z M 9.5 -3.425781 C 9.5 -4.199219 10.074219 -4.773438 10.875 -4.773438 C 11.699219 -4.773438 12.273438 -4.199219 12.273438 -3.425781 C 12.273438 -2.625 11.699219 -2.050781 10.875 -2.050781 C 10.074219 -2.050781 9.5 -2.601562 9.5 -3.425781 Z M 9.5 -3.425781 "/></g></g></g><g fill="#ffffff" fill-opacity="1"><g transform="translate(520.0012, 695.677017)"><g><path d="M 6.550781 -11.550781 L 7.773438 -11.550781 L 7.773438 -15.148438 L 9.597656 -12.449219 L 10.273438 -12.449219 L 12.046875 -15.125 L 12.046875 -11.550781 L 13.273438 -11.550781 L 13.273438 -17.5 L 12.171875 -17.5 L 9.925781 -13.949219 L 7.648438 -17.5 L 6.550781 -17.5 Z M 0.75 -16.324219 L 2.625 -16.324219 L 2.625 -11.550781 L 3.875 -11.550781 L 3.875 -16.324219 L 5.75 -16.324219 L 5.75 -17.5 L 0.75 -17.5 Z M 0.75 -16.324219 "/></g></g></g><g fill="#ffffff" fill-opacity="1"><g transform="translate(602.486457, 695.677017)"><g><path d="M 10.875 0.273438 C 16.25 0.273438 20.023438 -3.625 20.023438 -8.75 C 20.023438 -13.898438 16.273438 -17.75 10.875 -17.75 C 5.472656 -17.75 1.726562 -13.898438 1.726562 -8.75 C 1.726562 -3.601562 5.472656 0.273438 10.875 0.273438 Z M 7 -11.074219 C 7.097656 -13.324219 8.675781 -14.699219 11.125 -14.699219 C 13.546875 -14.699219 15.25 -13.324219 15.25 -11.25 C 15.25 -9.949219 14.523438 -8.898438 13.097656 -8.125 C 12.046875 -7.550781 11.875 -7.050781 11.875 -6.449219 L 11.875 -6.097656 L 9.875 -6.097656 L 9.875 -6.625 C 9.875 -7.898438 10.425781 -8.75 11.75 -9.398438 C 12.75 -9.925781 13.171875 -10.398438 13.171875 -11.222656 C 13.171875 -12.273438 12.398438 -12.875 11.148438 -12.875 C 9.875 -12.875 9.074219 -12.222656 9 -11.074219 Z M 9.5 -3.425781 C 9.5 -4.199219 10.074219 -4.773438 10.875 -4.773438 C 11.699219 -4.773438 12.273438 -4.199219 12.273438 -3.425781 C 12.273438 -2.625 11.699219 -2.050781 10.875 -2.050781 C 10.074219 -2.050781 9.5 -2.601562 9.5 -3.425781 Z M 9.5 -3.425781 "/></g></g></g><g fill="#ffffff" fill-opacity="1"><g transform="translate(624.233011, 695.677017)"><g><path d="M 12.40625 0 L 6.65625 0 L 6.171875 1.875 L 4.546875 1.875 L 5.03125 0 L 2.421875 0 L 2.421875 -17.84375 L 9.546875 -17.84375 L 9.84375 -19 L 11.46875 -19 L 11.171875 -17.84375 L 12.40625 -17.84375 L 12.40625 -15.875 L 10.671875 -15.875 L 9.28125 -10.296875 L 11.953125 -10.296875 L 11.953125 -8.34375 L 8.78125 -8.34375 L 7.15625 -1.96875 L 12.40625 -1.96875 Z M 4.671875 -10.296875 L 7.65625 -10.296875 L 9.046875 -15.875 L 4.671875 -15.875 Z M 4.671875 -1.96875 L 5.53125 -1.96875 L 7.15625 -8.34375 L 4.671875 -8.34375 Z M 4.671875 -1.96875 "/></g></g></g><g fill="#ffffff" fill-opacity="1"><g transform="translate(638.130808, 695.677017)"><g><path d="M 0.078125 -6.34375 L 2.125 -6.71875 L 2.125 -13.40625 L 3.90625 -13.40625 L 4.21875 -11.578125 L 4.34375 -11.578125 C 4.78125 -12.273438 5.378906 -12.796875 6.140625 -13.140625 C 6.910156 -13.484375 7.722656 -13.65625 8.578125 -13.65625 C 10.171875 -13.65625 11.375 -13.265625 12.1875 -12.484375 C 13.007812 -11.710938 13.421875 -10.492188 13.421875 -8.828125 L 15.34375 -9.171875 L 15.34375 -7.59375 L 13.421875 -7.25 L 13.421875 0 L 11.25 0 L 11.25 -6.84375 L 4.328125 -5.546875 L 4.328125 0 L 2.125 0 L 2.125 -5.15625 L 0.078125 -4.78125 Z M 8.25 -11.796875 C 6.800781 -11.796875 5.785156 -11.394531 5.203125 -10.59375 C 4.628906 -9.800781 4.335938 -8.644531 4.328125 -7.125 L 11.25 -8.421875 L 11.25 -8.578125 C 11.25 -10.722656 10.25 -11.796875 8.25 -11.796875 Z M 8.25 -11.796875 "/></g></g></g><g fill="#ffffff" fill-opacity="1"><g transform="translate(653.553369, 695.677017)"><g><path d="M 5.078125 0 L 4.34375 -1.953125 L 2.90625 2.328125 L 1.578125 2.328125 L 3.625 -3.828125 L 0 -13.40625 L 2.34375 -13.40625 L 4.671875 -6.96875 L 7.671875 -15.96875 L 9.078125 -15.96875 L 5.375 -5 C 5.5625 -4.476562 5.738281 -3.925781 5.90625 -3.34375 C 6.082031 -2.757812 6.207031 -2.296875 6.28125 -1.953125 L 6.375 -1.953125 C 6.425781 -2.210938 6.515625 -2.554688 6.640625 -2.984375 C 6.773438 -3.410156 6.914062 -3.84375 7.0625 -4.28125 C 7.21875 -4.726562 7.363281 -5.132812 7.5 -5.5 L 10.34375 -13.40625 L 12.703125 -13.40625 L 7.59375 0 Z M 5.078125 0 "/></g></g></g><g fill="#ffffff" fill-opacity="1"><g transform="translate(666.126374, 695.677017)"><g><path d="M 0.03125 -13.40625 L 2.375 -13.40625 L 4.046875 -8.96875 L 8.796875 -8.96875 L 10.375 -13.40625 L 12.75 -13.40625 L 11.078125 -8.96875 L 12.5 -8.96875 L 12.5 -7.203125 L 10.40625 -7.203125 L 6.96875 1.84375 C 6.488281 3.113281 5.878906 4.125 5.140625 4.875 C 4.410156 5.625 3.394531 6 2.09375 6 C 1.695312 6 1.347656 5.976562 1.046875 5.9375 C 0.742188 5.894531 0.488281 5.847656 0.28125 5.796875 L 0.28125 4.046875 C 0.457031 4.078125 0.675781 4.109375 0.9375 4.140625 C 1.195312 4.179688 1.46875 4.203125 1.75 4.203125 C 2.519531 4.203125 3.132812 3.984375 3.59375 3.546875 C 4.0625 3.117188 4.4375 2.546875 4.71875 1.828125 L 5.421875 0.046875 L 2.53125 -7.203125 L 0.25 -7.203125 L 0.25 -8.96875 L 1.796875 -8.96875 Z M 6.40625 -2.125 L 6.5 -2.125 C 6.601562 -2.539062 6.757812 -3.085938 6.96875 -3.765625 C 7.1875 -4.441406 7.414062 -5.117188 7.65625 -5.796875 L 8.15625 -7.203125 L 4.71875 -7.203125 L 5.28125 -5.78125 C 5.53125 -5.09375 5.753906 -4.445312 5.953125 -3.84375 C 6.148438 -3.25 6.300781 -2.675781 6.40625 -2.125 Z M 6.40625 -2.125 "/></g></g></g><g fill="#ffffff" fill-opacity="1"><g transform="translate(678.874358, 695.677017)"><g><path d="M 10.875 0.273438 C 16.25 0.273438 20.023438 -3.625 20.023438 -8.75 C 20.023438 -13.898438 16.273438 -17.75 10.875 -17.75 C 5.472656 -17.75 1.726562 -13.898438 1.726562 -8.75 C 1.726562 -3.601562 5.472656 0.273438 10.875 0.273438 Z M 7 -11.074219 C 7.097656 -13.324219 8.675781 -14.699219 11.125 -14.699219 C 13.546875 -14.699219 15.25 -13.324219 15.25 -11.25 C 15.25 -9.949219 14.523438 -8.898438 13.097656 -8.125 C 12.046875 -7.550781 11.875 -7.050781 11.875 -6.449219 L 11.875 -6.097656 L 9.875 -6.097656 L 9.875 -6.625 C 9.875 -7.898438 10.425781 -8.75 11.75 -9.398438 C 12.75 -9.925781 13.171875 -10.398438 13.171875 -11.222656 C 13.171875 -12.273438 12.398438 -12.875 11.148438 -12.875 C 9.875 -12.875 9.074219 -12.222656 9 -11.074219 Z M 9.5 -3.425781 C 9.5 -4.199219 10.074219 -4.773438 10.875 -4.773438 C 11.699219 -4.773438 12.273438 -4.199219 12.273438 -3.425781 C 12.273438 -2.625 11.699219 -2.050781 10.875 -2.050781 C 10.074219 -2.050781 9.5 -2.601562 9.5 -3.425781 Z M 9.5 -3.425781 "/></g></g></g></svg>